<svg xmlns="http://www.w3.org/2000/svg" xmlns:xlink="http://www.w3.org/1999/xlink" width="500" zoomAndPan="magnify" viewBox="0 0 375 374.999991" height="500" preserveAspectRatio="xMidYMid meet" version="1.2"><defs><clipPath id="61a3f67998"><path d="M 108 128 L 110.535156 128 L 110.535156 130.898438 L 108 130.898438 Z M 108 128 "/></clipPath><clipPath id="2a462bd7e3"><path d="M 105.285156 125 L 110 125 L 110 130.898438 L 105.285156 130.898438 Z M 105.285156 125 "/></clipPath></defs><g id="6a080796af"><path style=" stroke:none;fill-rule:nonzero;fill:#ffffff;fill-opacity:1;" d="M 332.882812 271.703125 L 290.480469 271.703125 L 290.480469 229.296875 C 290.480469 228.503906 290.402344 227.714844 290.246094 226.933594 C 290.09375 226.152344 289.863281 225.398438 289.558594 224.660156 C 289.253906 223.925781 288.882812 223.230469 288.4375 222.566406 C 287.996094 221.90625 287.496094 221.292969 286.933594 220.730469 C 286.371094 220.167969 285.757812 219.667969 285.097656 219.222656 C 284.433594 218.78125 283.738281 218.410156 283 218.105469 C 282.265625 217.800781 281.507812 217.570312 280.730469 217.414062 C 279.949219 217.261719 279.160156 217.183594 278.367188 217.183594 C 277.570312 217.183594 276.78125 217.261719 276 217.414062 C 275.222656 217.570312 274.464844 217.800781 273.730469 218.105469 C 272.992188 218.410156 272.296875 218.78125 271.632812 219.222656 C 270.972656 219.667969 270.359375 220.167969 269.796875 220.730469 C 269.234375 221.292969 268.734375 221.90625 268.292969 222.566406 C 267.851562 223.230469 267.476562 223.925781 267.171875 224.660156 C 266.867188 225.398438 266.636719 226.152344 266.484375 226.933594 C 266.328125 227.714844 266.25 228.503906 266.25 229.296875 L 266.25 271.703125 L 223.847656 271.703125 C 223.050781 271.703125 222.261719 271.78125 221.484375 271.933594 C 220.703125 272.089844 219.945312 272.320312 219.210938 272.625 C 218.476562 272.929688 217.777344 273.300781 217.113281 273.742188 C 216.453125 274.1875 215.839844 274.6875 215.277344 275.25 C 214.714844 275.8125 214.214844 276.425781 213.773438 277.085938 C 213.332031 277.746094 212.957031 278.445312 212.652344 279.179688 C 212.347656 279.914062 212.117188 280.671875 211.964844 281.453125 C 211.808594 282.234375 211.730469 283.023438 211.730469 283.816406 C 211.730469 284.613281 211.808594 285.402344 211.964844 286.179688 C 212.117188 286.960938 212.347656 287.71875 212.652344 288.453125 C 212.957031 289.1875 213.332031 289.886719 213.773438 290.546875 C 214.214844 291.210938 214.714844 291.820312 215.277344 292.382812 C 215.839844 292.945312 216.453125 293.449219 217.113281 293.890625 C 217.777344 294.332031 218.476562 294.707031 219.210938 295.011719 C 219.945312 295.316406 220.703125 295.542969 221.484375 295.699219 C 222.261719 295.855469 223.050781 295.933594 223.847656 295.933594 L 266.25 295.933594 L 266.25 338.335938 C 266.25 339.132812 266.328125 339.917969 266.484375 340.699219 C 266.636719 341.480469 266.867188 342.238281 267.171875 342.972656 C 267.476562 343.707031 267.851562 344.40625 268.292969 345.066406 C 268.734375 345.730469 269.234375 346.339844 269.796875 346.902344 C 270.359375 347.464844 270.972656 347.96875 271.632812 348.410156 C 272.296875 348.851562 272.992188 349.226562 273.730469 349.53125 C 274.464844 349.835938 275.222656 350.0625 276 350.21875 C 276.78125 350.375 277.570312 350.453125 278.367188 350.453125 C 279.160156 350.453125 279.949219 350.375 280.730469 350.21875 C 281.507812 350.0625 282.265625 349.835938 283 349.53125 C 283.738281 349.226562 284.433594 348.851562 285.097656 348.410156 C 285.757812 347.96875 286.371094 347.464844 286.933594 346.902344 C 287.496094 346.339844 287.996094 345.730469 288.4375 345.066406 C 288.882812 344.40625 289.253906 343.707031 289.558594 342.972656 C 289.863281 342.238281 290.09375 341.480469 290.246094 340.699219 C 290.402344 339.917969 290.480469 339.132812 290.480469 338.335938 L 290.480469 295.933594 L 332.882812 295.933594 C 333.679688 295.933594 334.46875 295.855469 335.25 295.699219 C 336.027344 295.542969 336.785156 295.316406 337.519531 295.011719 C 338.257812 294.707031 338.953125 294.332031 339.617188 293.890625 C 340.277344 293.449219 340.890625 292.945312 341.453125 292.382812 C 342.015625 291.820312 342.515625 291.210938 342.957031 290.546875 C 343.398438 289.886719 343.773438 289.1875 344.078125 288.453125 C 344.382812 287.71875 344.613281 286.960938 344.765625 286.179688 C 344.921875 285.402344 345 284.613281 345 283.816406 C 345 283.023438 344.921875 282.234375 344.765625 281.453125 C 344.613281 280.671875 344.382812 279.914062 344.078125 279.179688 C 343.773438 278.445312 343.398438 277.746094 342.957031 277.085938 C 342.515625 276.425781 342.015625 275.8125 341.453125 275.25 C 340.890625 274.6875 340.277344 274.1875 339.617188 273.742188 C 338.953125 273.300781 338.257812 272.929688 337.519531 272.625 C 336.785156 272.320312 336.027344 272.089844 335.25 271.933594 C 334.46875 271.78125 333.679688 271.703125 332.882812 271.703125 Z M 332.882812 271.703125 "/><path style=" stroke:none;fill-rule:nonzero;fill:#ffffff;fill-opacity:1;" d="M 187.5 350.453125 L 66.347656 350.453125 C 65.550781 350.453125 64.761719 350.375 63.984375 350.21875 C 63.203125 350.0625 62.445312 349.835938 61.710938 349.53125 C 60.976562 349.226562 60.277344 348.851562 59.613281 348.410156 C 58.953125 347.96875 58.339844 347.464844 57.777344 346.902344 C 57.214844 346.339844 56.714844 345.730469 56.273438 345.066406 C 55.832031 344.40625 55.457031 343.707031 55.152344 342.972656 C 54.847656 342.238281 54.617188 341.480469 54.464844 340.699219 C 54.308594 339.917969 54.230469 339.132812 54.230469 338.335938 C 54.234375 336.15625 54.289062 333.976562 54.398438 331.800781 C 54.507812 329.621094 54.671875 327.449219 54.886719 325.277344 C 55.101562 323.109375 55.371094 320.945312 55.695312 318.789062 C 56.015625 316.632812 56.390625 314.484375 56.816406 312.347656 C 57.246094 310.210938 57.722656 308.082031 58.253906 305.96875 C 58.789062 303.855469 59.371094 301.753906 60.003906 299.667969 C 60.640625 297.582031 61.324219 295.511719 62.058594 293.460938 C 62.796875 291.40625 63.582031 289.375 64.417969 287.359375 C 65.253906 285.347656 66.136719 283.355469 67.070312 281.382812 C 68.003906 279.414062 68.984375 277.46875 70.011719 275.546875 C 71.042969 273.621094 72.117188 271.726562 73.238281 269.855469 C 74.359375 267.988281 75.527344 266.144531 76.738281 264.332031 C 77.949219 262.519531 79.207031 260.738281 80.503906 258.988281 C 81.804688 257.238281 83.144531 255.519531 84.53125 253.832031 C 85.914062 252.148438 87.335938 250.5 88.800781 248.882812 C 90.265625 247.265625 91.769531 245.6875 93.308594 244.148438 C 94.851562 242.605469 96.429688 241.101562 98.046875 239.636719 C 99.660156 238.171875 101.3125 236.75 102.996094 235.367188 C 104.683594 233.984375 106.402344 232.640625 108.152344 231.34375 C 109.902344 230.042969 111.683594 228.789062 113.496094 227.574219 C 115.308594 226.363281 117.152344 225.195312 119.019531 224.074219 C 120.890625 222.953125 122.785156 221.878906 124.707031 220.851562 C 126.632812 219.820312 128.578125 218.839844 130.546875 217.90625 C 132.519531 216.972656 134.511719 216.089844 136.523438 215.253906 C 138.539062 214.417969 140.570312 213.632812 142.625 212.898438 C 144.675781 212.160156 146.746094 211.476562 148.832031 210.839844 C 150.917969 210.207031 153.019531 209.625 155.132812 209.09375 C 157.246094 208.5625 159.375 208.082031 161.511719 207.652344 C 163.648438 207.226562 165.796875 206.851562 167.953125 206.53125 C 170.109375 206.207031 172.273438 205.9375 174.441406 205.722656 C 176.613281 205.507812 178.785156 205.34375 180.964844 205.234375 C 183.140625 205.125 185.320312 205.070312 187.5 205.066406 C 189.429688 205.074219 191.359375 205.023438 193.289062 204.914062 C 195.21875 204.804688 197.140625 204.636719 199.058594 204.414062 C 200.976562 204.191406 202.886719 203.910156 204.789062 203.570312 C 206.6875 203.234375 208.578125 202.839844 210.457031 202.390625 C 212.335938 201.941406 214.199219 201.4375 216.046875 200.875 C 217.894531 200.3125 219.722656 199.699219 221.535156 199.027344 C 223.34375 198.359375 225.136719 197.632812 226.902344 196.859375 C 228.671875 196.082031 230.414062 195.253906 232.132812 194.371094 C 233.851562 193.492188 235.542969 192.558594 237.207031 191.578125 C 238.871094 190.597656 240.503906 189.566406 242.105469 188.488281 C 243.707031 187.410156 245.273438 186.285156 246.808594 185.113281 C 248.34375 183.941406 249.84375 182.722656 251.304688 181.464844 C 252.765625 180.203125 254.191406 178.898438 255.574219 177.550781 C 256.960938 176.207031 258.304688 174.820312 259.605469 173.394531 C 260.90625 171.96875 262.164062 170.503906 263.378906 169 C 264.59375 167.5 265.765625 165.964844 266.886719 164.394531 C 268.011719 162.824219 269.085938 161.21875 270.113281 159.585938 C 271.140625 157.949219 272.121094 156.285156 273.046875 154.59375 C 273.976562 152.898438 274.855469 151.179688 275.679688 149.433594 C 276.507812 147.6875 277.28125 145.921875 278 144.128906 C 278.722656 142.335938 279.386719 140.527344 280 138.695312 C 280.613281 136.863281 281.171875 135.015625 281.675781 133.148438 C 282.175781 131.285156 282.625 129.40625 283.015625 127.515625 C 283.40625 125.625 283.738281 123.722656 284.015625 121.8125 C 284.292969 119.902344 284.515625 117.984375 284.679688 116.058594 C 284.839844 114.136719 284.949219 112.207031 284.996094 110.277344 C 285.042969 108.347656 285.035156 106.417969 284.96875 104.488281 C 284.902344 102.558594 284.777344 100.628906 284.597656 98.707031 C 284.414062 96.785156 284.175781 94.871094 283.882812 92.960938 C 283.585938 91.054688 283.234375 89.15625 282.824219 87.269531 C 282.414062 85.378906 281.953125 83.507812 281.429688 81.648438 C 280.910156 79.785156 280.335938 77.945312 279.707031 76.117188 C 279.074219 74.292969 278.390625 72.488281 277.652344 70.703125 C 276.917969 68.917969 276.125 67.15625 275.285156 65.421875 C 274.441406 63.683594 273.546875 61.972656 272.601562 60.285156 C 271.65625 58.601562 270.664062 56.949219 269.621094 55.324219 C 268.578125 53.699219 267.488281 52.105469 266.347656 50.542969 C 265.210938 48.984375 264.027344 47.460938 262.796875 45.96875 C 261.570312 44.480469 260.296875 43.027344 258.980469 41.613281 C 257.667969 40.199219 256.308594 38.828125 254.914062 37.496094 C 253.515625 36.160156 252.078125 34.871094 250.605469 33.625 C 249.132812 32.375 247.621094 31.171875 246.074219 30.015625 C 244.53125 28.859375 242.949219 27.746094 241.339844 26.683594 C 239.726562 25.621094 238.085938 24.605469 236.414062 23.640625 C 234.738281 22.675781 233.039062 21.761719 231.3125 20.894531 C 229.585938 20.03125 227.835938 19.21875 226.058594 18.460938 C 224.285156 17.699219 222.488281 16.992188 220.671875 16.339844 C 218.851562 15.6875 217.019531 15.089844 215.164062 14.546875 C 213.3125 14.003906 211.445312 13.515625 209.5625 13.082031 C 207.679688 12.648438 205.785156 12.273438 203.882812 11.953125 C 201.976562 11.636719 200.066406 11.375 198.144531 11.167969 C 196.222656 10.960938 194.300781 10.8125 192.371094 10.722656 C 190.441406 10.632812 188.511719 10.597656 186.582031 10.625 C 184.648438 10.648438 182.722656 10.730469 180.796875 10.867188 C 178.867188 11.007812 176.949219 11.203125 175.035156 11.457031 C 173.121094 11.710938 171.214844 12.023438 169.320312 12.386719 C 167.421875 12.753906 165.539062 13.179688 163.667969 13.660156 C 161.796875 14.136719 159.941406 14.671875 158.105469 15.261719 C 156.265625 15.851562 154.445312 16.496094 152.644531 17.195312 C 150.84375 17.890625 149.066406 18.644531 147.3125 19.449219 C 145.554688 20.253906 143.824219 21.109375 142.121094 22.015625 C 140.414062 22.921875 138.738281 23.878906 137.089844 24.886719 C 135.445312 25.894531 133.828125 26.949219 132.242188 28.054688 C 130.65625 29.15625 129.105469 30.304688 127.589844 31.503906 C 126.074219 32.699219 124.59375 33.9375 123.152344 35.222656 C 121.710938 36.507812 120.308594 37.832031 118.945312 39.199219 C 117.582031 40.566406 116.257812 41.976562 114.980469 43.421875 C 113.699219 44.867188 112.464844 46.351562 111.273438 47.871094 C 110.082031 49.390625 108.9375 50.945312 107.839844 52.535156 C 106.742188 54.121094 105.691406 55.742188 104.6875 57.390625 C 103.6875 59.042969 102.734375 60.722656 101.832031 62.429688 C 100.929688 64.136719 100.078125 65.871094 99.28125 67.628906 C 98.480469 69.386719 97.734375 71.167969 97.042969 72.96875 C 96.351562 74.773438 95.710938 76.59375 95.128906 78.433594 C 94.542969 80.277344 94.015625 82.132812 93.542969 84.003906 C 93.070312 85.875 92.652344 87.761719 92.289062 89.65625 C 91.929688 91.554688 91.625 93.460938 91.375 95.375 C 91.128906 97.292969 90.9375 99.210938 90.804688 101.140625 C 90.671875 103.066406 90.597656 104.996094 90.578125 106.925781 C 90.5625 108.855469 90.601562 110.785156 90.695312 112.714844 C 90.792969 114.644531 90.949219 116.566406 91.160156 118.488281 C 91.371094 120.40625 91.640625 122.320312 91.964844 124.222656 C 92.289062 126.125 92.671875 128.019531 93.109375 129.898438 C 93.546875 131.78125 94.042969 133.644531 94.589844 135.496094 C 95.140625 137.347656 95.742188 139.183594 96.402344 140.996094 C 97.0625 142.8125 97.773438 144.605469 98.539062 146.378906 C 99.304688 148.152344 100.121094 149.902344 100.992188 151.625 C 101.859375 153.351562 102.78125 155.046875 103.753906 156.714844 C 104.722656 158.386719 105.742188 160.023438 106.8125 161.632812 C 107.878906 163.242188 108.996094 164.816406 110.15625 166.359375 C 111.320312 167.902344 112.527344 169.410156 113.777344 170.878906 C 115.03125 172.347656 116.324219 173.78125 117.664062 175.175781 C 119 176.566406 120.378906 177.917969 121.796875 179.230469 C 123.214844 180.542969 124.667969 181.808594 126.164062 183.03125 C 127.65625 184.257812 129.183594 185.4375 130.75 186.570312 C 132.3125 187.703125 133.910156 188.789062 135.539062 189.824219 C 131.714844 191.164062 127.953125 192.648438 124.246094 194.277344 C 120.539062 195.90625 116.898438 197.671875 113.328125 199.582031 C 109.757812 201.492188 106.265625 203.535156 102.851562 205.710938 C 99.4375 207.890625 96.113281 210.195312 92.878906 212.628906 C 89.644531 215.0625 86.507812 217.617188 83.46875 220.292969 C 80.429688 222.96875 77.496094 225.757812 74.671875 228.660156 C 71.847656 231.558594 69.140625 234.566406 66.550781 237.675781 C 63.957031 240.785156 61.488281 243.992188 59.140625 247.292969 C 56.796875 250.59375 54.582031 253.976562 52.496094 257.449219 C 50.414062 260.917969 48.464844 264.464844 46.652344 268.085938 C 44.84375 271.707031 43.171875 275.394531 41.644531 279.144531 C 40.117188 282.894531 38.738281 286.695312 37.503906 290.550781 C 36.269531 294.40625 35.183594 298.304688 34.25 302.246094 C 33.316406 306.183594 32.535156 310.15625 31.910156 314.15625 C 31.28125 318.15625 30.808594 322.171875 30.488281 326.207031 C 30.167969 330.246094 30.007812 334.289062 30 338.335938 C 30 339.527344 30.058594 340.714844 30.175781 341.898438 C 30.292969 343.082031 30.464844 344.261719 30.699219 345.425781 C 30.929688 346.59375 31.21875 347.75 31.566406 348.886719 C 31.910156 350.027344 32.3125 351.144531 32.765625 352.246094 C 33.222656 353.34375 33.730469 354.421875 34.292969 355.46875 C 34.851562 356.519531 35.464844 357.539062 36.125 358.53125 C 36.785156 359.519531 37.496094 360.472656 38.25 361.394531 C 39.003906 362.3125 39.804688 363.195312 40.644531 364.039062 C 41.488281 364.878906 42.367188 365.675781 43.289062 366.433594 C 44.207031 367.1875 45.164062 367.894531 46.152344 368.558594 C 47.144531 369.21875 48.164062 369.828125 49.210938 370.390625 C 50.261719 370.953125 51.335938 371.460938 52.4375 371.914062 C 53.535156 372.371094 54.65625 372.773438 55.796875 373.117188 C 56.933594 373.464844 58.085938 373.753906 59.253906 373.984375 C 60.421875 374.214844 61.597656 374.390625 62.785156 374.507812 C 63.96875 374.625 65.15625 374.683594 66.347656 374.683594 L 187.5 374.683594 C 188.296875 374.683594 189.082031 374.605469 189.863281 374.449219 C 190.644531 374.292969 191.402344 374.066406 192.136719 373.761719 C 192.871094 373.457031 193.570312 373.082031 194.230469 372.640625 C 194.890625 372.199219 195.503906 371.695312 196.066406 371.132812 C 196.628906 370.570312 197.132812 369.960938 197.574219 369.296875 C 198.015625 368.636719 198.390625 367.9375 198.691406 367.203125 C 198.996094 366.46875 199.226562 365.710938 199.382812 364.929688 C 199.539062 364.152344 199.617188 363.363281 199.617188 362.566406 C 199.617188 361.773438 199.539062 360.984375 199.382812 360.203125 C 199.226562 359.421875 198.996094 358.664062 198.691406 357.929688 C 198.390625 357.195312 198.015625 356.496094 197.574219 355.835938 C 197.132812 355.175781 196.628906 354.5625 196.066406 354 C 195.503906 353.4375 194.890625 352.9375 194.230469 352.492188 C 193.570312 352.050781 192.871094 351.679688 192.136719 351.375 C 191.402344 351.070312 190.644531 350.839844 189.863281 350.683594 C 189.082031 350.53125 188.296875 350.453125 187.5 350.453125 Z M 114.808594 108.144531 C 114.808594 106.953125 114.835938 105.765625 114.894531 104.578125 C 114.953125 103.390625 115.042969 102.203125 115.15625 101.019531 C 115.273438 99.835938 115.417969 98.65625 115.59375 97.476562 C 115.769531 96.300781 115.972656 95.128906 116.203125 93.960938 C 116.4375 92.796875 116.695312 91.636719 116.984375 90.480469 C 117.273438 89.328125 117.59375 88.179688 117.9375 87.042969 C 118.28125 85.90625 118.65625 84.773438 119.058594 83.65625 C 119.457031 82.535156 119.886719 81.425781 120.339844 80.324219 C 120.796875 79.226562 121.277344 78.140625 121.785156 77.0625 C 122.296875 75.988281 122.832031 74.925781 123.390625 73.878906 C 123.953125 72.828125 124.539062 71.792969 125.148438 70.773438 C 125.761719 69.753906 126.398438 68.746094 127.058594 67.757812 C 127.71875 66.769531 128.402344 65.796875 129.113281 64.839844 C 129.820312 63.886719 130.554688 62.949219 131.308594 62.027344 C 132.0625 61.109375 132.839844 60.207031 133.636719 59.328125 C 134.4375 58.445312 135.257812 57.585938 136.097656 56.742188 C 136.941406 55.902344 137.800781 55.082031 138.683594 54.28125 C 139.5625 53.484375 140.464844 52.707031 141.382812 51.953125 C 142.304688 51.199219 143.242188 50.464844 144.195312 49.757812 C 145.152344 49.046875 146.125 48.363281 147.113281 47.703125 C 148.101562 47.042969 149.109375 46.40625 150.128906 45.792969 C 151.148438 45.183594 152.183594 44.597656 153.234375 44.035156 C 154.28125 43.472656 155.34375 42.941406 156.421875 42.429688 C 157.496094 41.921875 158.582031 41.441406 159.683594 40.984375 C 160.78125 40.53125 161.890625 40.101562 163.011719 39.703125 C 164.128906 39.300781 165.261719 38.925781 166.398438 38.582031 C 167.535156 38.238281 168.683594 37.917969 169.835938 37.628906 C 170.992188 37.339844 172.152344 37.082031 173.320312 36.847656 C 174.484375 36.617188 175.65625 36.414062 176.832031 36.238281 C 178.011719 36.0625 179.191406 35.917969 180.375 35.800781 C 181.558594 35.683594 182.746094 35.597656 183.933594 35.539062 C 185.121094 35.480469 186.308594 35.453125 187.5 35.453125 C 188.691406 35.453125 189.878906 35.480469 191.066406 35.539062 C 192.253906 35.597656 193.441406 35.683594 194.625 35.800781 C 195.808594 35.917969 196.988281 36.0625 198.167969 36.238281 C 199.34375 36.414062 200.515625 36.617188 201.679688 36.847656 C 202.847656 37.082031 204.007812 37.339844 205.164062 37.628906 C 206.316406 37.917969 207.464844 38.238281 208.601562 38.582031 C 209.738281 38.925781 210.867188 39.300781 211.988281 39.703125 C 213.109375 40.101562 214.21875 40.53125 215.316406 40.984375 C 216.417969 41.441406 217.503906 41.921875 218.578125 42.429688 C 219.65625 42.941406 220.71875 43.472656 221.765625 44.035156 C 222.816406 44.597656 223.851562 45.183594 224.871094 45.792969 C 225.890625 46.40625 226.894531 47.042969 227.886719 47.703125 C 228.875 48.363281 229.847656 49.046875 230.800781 49.757812 C 231.757812 50.464844 232.695312 51.199219 233.617188 51.953125 C 234.535156 52.707031 235.4375 53.484375 236.316406 54.28125 C 237.199219 55.082031 238.058594 55.902344 238.902344 56.742188 C 239.742188 57.585938 240.5625 58.445312 241.363281 59.328125 C 242.160156 60.207031 242.9375 61.109375 243.691406 62.027344 C 244.445312 62.949219 245.179688 63.886719 245.886719 64.839844 C 246.59375 65.796875 247.28125 66.769531 247.941406 67.757812 C 248.601562 68.746094 249.238281 69.753906 249.851562 70.773438 C 250.460938 71.792969 251.046875 72.828125 251.609375 73.878906 C 252.167969 74.925781 252.703125 75.988281 253.214844 77.0625 C 253.722656 78.140625 254.203125 79.226562 254.660156 80.324219 C 255.113281 81.425781 255.542969 82.535156 255.941406 83.65625 C 256.34375 84.773438 256.71875 85.90625 257.0625 87.042969 C 257.40625 88.179688 257.726562 89.328125 258.015625 90.480469 C 258.304688 91.636719 258.5625 92.796875 258.796875 93.960938 C 259.027344 95.128906 259.230469 96.300781 259.40625 97.476562 C 259.578125 98.65625 259.726562 99.835938 259.84375 101.019531 C 259.957031 102.203125 260.046875 103.390625 260.105469 104.578125 C 260.164062 105.765625 260.191406 106.953125 260.191406 108.144531 C 260.191406 109.332031 260.164062 110.523438 260.105469 111.710938 C 260.046875 112.898438 259.957031 114.085938 259.84375 115.269531 C 259.726562 116.453125 259.578125 117.632812 259.40625 118.808594 C 259.230469 119.988281 259.027344 121.160156 258.796875 122.324219 C 258.5625 123.492188 258.304688 124.652344 258.015625 125.808594 C 257.726562 126.960938 257.40625 128.105469 257.0625 129.246094 C 256.71875 130.382812 256.34375 131.511719 255.941406 132.632812 C 255.542969 133.753906 255.113281 134.863281 254.660156 135.960938 C 254.203125 137.0625 253.722656 138.148438 253.214844 139.222656 C 252.703125 140.300781 252.167969 141.363281 251.609375 142.410156 C 251.046875 143.460938 250.460938 144.496094 249.851562 145.515625 C 249.238281 146.535156 248.601562 147.539062 247.941406 148.53125 C 247.28125 149.519531 246.59375 150.492188 245.886719 151.445312 C 245.179688 152.402344 244.445312 153.339844 243.691406 154.257812 C 242.9375 155.179688 242.160156 156.078125 241.363281 156.960938 C 240.5625 157.84375 239.742188 158.703125 238.902344 159.546875 C 238.058594 160.386719 237.199219 161.207031 236.316406 162.003906 C 235.4375 162.804688 234.535156 163.582031 233.617188 164.335938 C 232.695312 165.089844 231.757812 165.824219 230.800781 166.53125 C 229.847656 167.238281 228.875 167.925781 227.886719 168.585938 C 226.894531 169.246094 225.890625 169.882812 224.871094 170.496094 C 223.851562 171.105469 222.816406 171.691406 221.765625 172.253906 C 220.71875 172.8125 219.65625 173.347656 218.578125 173.855469 C 217.503906 174.367188 216.417969 174.847656 215.316406 175.304688 C 214.21875 175.757812 213.109375 176.1875 211.988281 176.585938 C 210.867188 176.988281 209.738281 177.359375 208.601562 177.707031 C 207.464844 178.050781 206.316406 178.367188 205.164062 178.65625 C 204.007812 178.945312 202.847656 179.207031 201.679688 179.441406 C 200.515625 179.671875 199.34375 179.875 198.167969 180.050781 C 196.988281 180.222656 195.808594 180.371094 194.625 180.488281 C 193.441406 180.601562 192.253906 180.691406 191.066406 180.75 C 189.878906 180.808594 188.691406 180.835938 187.5 180.835938 C 186.3125 180.835938 185.121094 180.804688 183.933594 180.746094 C 182.746094 180.6875 181.5625 180.597656 180.378906 180.480469 C 179.195312 180.363281 178.015625 180.214844 176.835938 180.039062 C 175.660156 179.863281 174.488281 179.660156 173.324219 179.429688 C 172.15625 179.195312 170.996094 178.933594 169.84375 178.644531 C 168.691406 178.355469 167.542969 178.035156 166.40625 177.691406 C 165.269531 177.34375 164.140625 176.96875 163.019531 176.570312 C 161.902344 176.167969 160.792969 175.738281 159.691406 175.285156 C 158.59375 174.828125 157.507812 174.347656 156.433594 173.835938 C 155.359375 173.328125 154.296875 172.792969 153.246094 172.230469 C 152.199219 171.671875 151.164062 171.085938 150.144531 170.472656 C 149.125 169.859375 148.121094 169.222656 147.132812 168.5625 C 146.144531 167.902344 145.171875 167.21875 144.214844 166.507812 C 143.261719 165.800781 142.324219 165.070312 141.402344 164.3125 C 140.484375 163.558594 139.585938 162.78125 138.703125 161.984375 C 137.820312 161.183594 136.960938 160.363281 136.121094 159.523438 C 135.277344 158.683594 134.460938 157.820312 133.660156 156.941406 C 132.863281 156.058594 132.085938 155.160156 131.332031 154.238281 C 130.574219 153.320312 129.84375 152.382812 129.136719 151.429688 C 128.425781 150.472656 127.742188 149.5 127.082031 148.511719 C 126.417969 147.523438 125.785156 146.519531 125.171875 145.5 C 124.558594 144.480469 123.972656 143.445312 123.414062 142.398438 C 122.851562 141.347656 122.316406 140.285156 121.808594 139.210938 C 121.296875 138.136719 120.816406 137.050781 120.359375 135.949219 C 119.90625 134.851562 119.476562 133.742188 119.074219 132.625 C 118.671875 131.503906 118.300781 130.375 117.953125 129.238281 C 117.609375 128.101562 117.289062 126.953125 117 125.800781 C 116.710938 124.648438 116.449219 123.488281 116.214844 122.320312 C 115.984375 121.15625 115.78125 119.984375 115.605469 118.808594 C 115.429688 117.628906 115.28125 116.449219 115.164062 115.265625 C 115.046875 114.082031 114.957031 112.898438 114.898438 111.710938 C 114.839844 110.523438 114.808594 109.332031 114.808594 108.144531 Z M 114.808594 108.144531 "/><g clip-rule="nonzero" clip-path="url(#61a3f67998)"><path style=" stroke:none;fill-rule:nonzero;fill:#ffffff;fill-opacity:1;" d="M 110.050781 129.167969 L 109.382812 129.167969 L 109.382812 128.5 C 109.382812 128.375 109.320312 128.3125 109.195312 128.3125 C 109.066406 128.3125 109.003906 128.375 109.003906 128.5 L 109.003906 129.167969 L 108.335938 129.167969 C 108.207031 129.167969 108.144531 129.234375 108.144531 129.359375 C 108.144531 129.488281 108.207031 129.550781 108.335938 129.550781 L 109.003906 129.550781 L 109.003906 130.21875 C 109.003906 130.34375 109.066406 130.410156 109.195312 130.410156 C 109.320312 130.410156 109.382812 130.34375 109.382812 130.21875 L 109.382812 129.550781 L 110.050781 129.550781 C 110.179688 129.550781 110.242188 129.488281 110.242188 129.359375 C 110.242188 129.234375 110.179688 129.167969 110.050781 129.167969 Z M 110.050781 129.167969 "/></g><g clip-rule="nonzero" clip-path="url(#2a462bd7e3)"><path style=" stroke:none;fill-rule:nonzero;fill:#ffffff;fill-opacity:1;" d="M 107.761719 130.410156 L 105.855469 130.410156 C 105.730469 130.410156 105.667969 130.34375 105.667969 130.21875 C 105.667969 129.941406 105.71875 129.671875 105.828125 129.414062 C 105.933594 129.160156 106.085938 128.933594 106.28125 128.734375 C 106.476562 128.539062 106.703125 128.386719 106.960938 128.28125 C 107.21875 128.175781 107.484375 128.121094 107.761719 128.121094 C 108.011719 128.121094 108.246094 128.066406 108.464844 127.953125 C 108.6875 127.839844 108.867188 127.683594 109.011719 127.480469 C 109.15625 127.277344 109.246094 127.054688 109.28125 126.808594 C 109.316406 126.566406 109.296875 126.324219 109.214844 126.089844 C 109.132812 125.855469 109.003906 125.65625 108.824219 125.484375 C 108.644531 125.3125 108.4375 125.191406 108.199219 125.121094 C 107.960938 125.050781 107.722656 125.042969 107.476562 125.089844 C 107.234375 125.136719 107.015625 125.234375 106.820312 125.390625 C 106.625 125.542969 106.476562 125.730469 106.375 125.957031 C 106.273438 126.183594 106.226562 126.417969 106.242188 126.667969 C 106.253906 126.914062 106.320312 127.144531 106.445312 127.359375 C 106.570312 127.574219 106.738281 127.746094 106.945312 127.878906 C 106.449219 128.054688 106.046875 128.355469 105.742188 128.785156 C 105.4375 129.214844 105.285156 129.691406 105.285156 130.21875 C 105.285156 130.375 105.339844 130.511719 105.453125 130.621094 C 105.5625 130.734375 105.699219 130.789062 105.855469 130.789062 L 107.761719 130.789062 C 107.890625 130.789062 107.953125 130.726562 107.953125 130.597656 C 107.953125 130.472656 107.890625 130.410156 107.761719 130.410156 Z M 106.621094 126.59375 C 106.621094 126.445312 106.648438 126.296875 106.707031 126.15625 C 106.765625 126.015625 106.847656 125.894531 106.953125 125.785156 C 107.0625 125.679688 107.1875 125.597656 107.324219 125.539062 C 107.464844 125.480469 107.613281 125.453125 107.761719 125.453125 C 107.914062 125.453125 108.0625 125.480469 108.203125 125.539062 C 108.339844 125.597656 108.464844 125.679688 108.574219 125.785156 C 108.679688 125.894531 108.761719 126.015625 108.820312 126.15625 C 108.878906 126.296875 108.90625 126.445312 108.90625 126.59375 C 108.90625 126.746094 108.878906 126.894531 108.820312 127.03125 C 108.761719 127.171875 108.679688 127.296875 108.574219 127.402344 C 108.464844 127.511719 108.339844 127.59375 108.203125 127.652344 C 108.0625 127.710938 107.914062 127.738281 107.761719 127.738281 C 107.613281 127.738281 107.464844 127.710938 107.324219 127.652344 C 107.1875 127.59375 107.0625 127.511719 106.957031 127.402344 C 106.847656 127.296875 106.765625 127.171875 106.707031 127.03125 C 106.648438 126.894531 106.621094 126.746094 106.621094 126.59375 Z M 106.621094 126.59375 "/></g></g></svg>