<svg xmlns="http://www.w3.org/2000/svg" xmlns:xlink="http://www.w3.org/1999/xlink" width="500" zoomAndPan="magnify" viewBox="0 0 375 374.999991" height="500" preserveAspectRatio="xMidYMid meet" version="1.2"><defs><clipPath id="1e86f562fb"><path d="M 209 225 L 358.921875 225 L 358.921875 375 L 209 375 Z M 209 225 "/></clipPath><clipPath id="de69ff9686"><path d="M 16.171875 0 L 327 0 L 327 375 L 16.171875 375 Z M 16.171875 0 "/></clipPath><clipPath id="40a1f29b1e"><path d="M 70.6875 187.5 L 75.9375 187.5 L 75.9375 193.5 L 70.6875 193.5 Z M 70.6875 187.5 "/></clipPath></defs><g id="ccafa4204c"><rect x="0" width="375" y="0" height="374.999991" style="fill:#ffffff;fill-opacity:1;stroke:none;"/><rect x="0" width="375" y="0" height="374.999991" style="fill:#ffffff;fill-opacity:1;stroke:none;"/><g clip-rule="nonzero" clip-path="url(#1e86f562fb)"><path style=" stroke:none;fill-rule:nonzero;fill:#000000;fill-opacity:1;" d="M 209.691406 300 C 209.691406 341.179688 243.082031 374.5625 284.273438 374.5625 C 325.460938 374.5625 358.851562 341.179688 358.851562 300 C 358.851562 258.820312 325.460938 225.4375 284.273438 225.4375 C 243.082031 225.4375 209.691406 258.820312 209.691406 300 Z M 298.175781 267.898438 L 298.175781 286.09375 L 316.375 286.09375 C 324.050781 286.09375 330.277344 292.320312 330.277344 299.992188 C 330.277344 307.667969 324.050781 313.890625 316.375 313.890625 L 298.175781 313.890625 L 298.175781 332.085938 C 298.175781 339.761719 291.949219 345.984375 284.273438 345.984375 C 276.59375 345.984375 270.367188 339.761719 270.367188 332.085938 L 270.367188 313.890625 L 252.167969 313.890625 C 244.492188 313.890625 238.265625 307.667969 238.265625 299.992188 C 238.265625 292.320312 244.492188 286.09375 252.167969 286.09375 L 270.367188 286.09375 L 270.367188 267.898438 C 270.367188 260.226562 276.59375 254 284.273438 254 C 291.949219 254 298.175781 260.226562 298.175781 267.898438 Z M 298.175781 267.898438 "/></g><g clip-rule="nonzero" clip-path="url(#de69ff9686)"><path style=" stroke:none;fill-rule:nonzero;fill:#000000;fill-opacity:1;" d="M 165.132812 373.214844 C 169.253906 375.007812 173.957031 375.007812 178.078125 373.214844 C 186.484375 369.558594 196.414062 363.515625 207.101562 355.53125 C 195.480469 339.460938 189.199219 320.214844 189.199219 300 C 189.199219 274.613281 199.085938 250.742188 217.042969 232.792969 C 235 214.839844 258.871094 204.957031 284.273438 204.957031 C 295.488281 204.957031 306.414062 206.886719 316.660156 210.589844 C 323.039062 192.285156 326.785156 173.570312 326.785156 155.0625 C 326.792969 69.425781 257.351562 0 171.691406 0 L 171.359375 0 C 85.691406 0 16.25 69.425781 16.25 155.0625 C 16.25 250.816406 116.382812 352.007812 165.125 373.214844 Z M 171.519531 92.566406 C 204.398438 92.566406 231.050781 119.207031 231.050781 152.078125 C 231.050781 184.945312 204.398438 211.589844 171.519531 211.589844 C 138.644531 211.589844 111.992188 184.945312 111.992188 152.078125 C 111.992188 119.207031 138.644531 92.566406 171.519531 92.566406 Z M 171.519531 92.566406 "/></g><g clip-rule="nonzero" clip-path="url(#40a1f29b1e)"><path style=" stroke:none;fill-rule:nonzero;fill:#000000;fill-opacity:1;" d="M 73.3125 187.5 C 71.867188 187.5 70.691406 188.546875 70.691406 189.832031 C 70.691406 191.089844 73.117188 193.371094 73.222656 193.464844 C 73.246094 193.488281 73.277344 193.5 73.3125 193.5 C 73.347656 193.5 73.378906 193.488281 73.402344 193.464844 C 73.507812 193.371094 75.933594 191.089844 75.933594 189.832031 C 75.933594 188.546875 74.757812 187.5 73.3125 187.5 Z M 73.3125 193.226562 C 72.867188 192.796875 70.941406 190.871094 70.941406 189.832031 C 70.941406 188.667969 72.003906 187.722656 73.3125 187.722656 C 74.621094 187.722656 75.683594 188.667969 75.683594 189.832031 C 75.683594 190.871094 73.757812 192.796875 73.3125 193.226562 Z M 73.3125 193.226562 "/></g><path style=" stroke:none;fill-rule:nonzero;fill:#000000;fill-opacity:1;" d="M 74.558594 189.722656 L 73.4375 189.722656 L 73.4375 188.722656 C 73.4375 188.660156 73.382812 188.609375 73.3125 188.609375 C 73.242188 188.609375 73.1875 188.660156 73.1875 188.722656 L 73.1875 189.722656 L 72.066406 189.722656 C 71.996094 189.722656 71.941406 189.773438 71.941406 189.832031 C 71.941406 189.894531 71.996094 189.945312 72.066406 189.945312 L 73.1875 189.945312 L 73.1875 190.945312 C 73.1875 191.007812 73.242188 191.054688 73.3125 191.054688 C 73.382812 191.054688 73.4375 191.007812 73.4375 190.945312 L 73.4375 189.945312 L 74.558594 189.945312 C 74.628906 189.945312 74.683594 189.894531 74.683594 189.832031 C 74.683594 189.773438 74.628906 189.722656 74.558594 189.722656 Z M 74.558594 189.722656 "/></g></svg>