<svg xmlns="http://www.w3.org/2000/svg" xmlns:xlink="http://www.w3.org/1999/xlink" width="500" zoomAndPan="magnify" viewBox="0 0 375 374.999991" height="500" preserveAspectRatio="xMidYMid meet" version="1.2"><defs><clipPath id="94f02e5672"><path d="M 71.664062 162.085938 L 76.914062 162.085938 L 76.914062 168.835938 L 71.664062 168.835938 Z M 71.664062 162.085938 "/></clipPath></defs><g id="03539357b1"><path style=" stroke:none;fill-rule:nonzero;fill:#ffffff;fill-opacity:1;" d="M 187.496094 0.00390625 C 116.476562 0.00390625 56.476562 61.492188 56.476562 134.277344 C 56.476562 203.269531 173.300781 363.527344 178.273438 370.320312 C 180.421875 373.257812 183.851562 375 187.496094 375 C 191.140625 375 194.566406 373.261719 196.71875 370.320312 C 201.691406 363.53125 318.519531 203.269531 318.519531 134.277344 C 318.519531 61.492188 258.519531 0.00390625 187.496094 0.00390625 Z M 126.75 140.082031 C 120.433594 140.082031 115.316406 134.964844 115.316406 128.652344 C 115.316406 122.335938 120.433594 117.21875 126.75 117.21875 L 176.0625 117.21875 L 176.0625 69.792969 C 176.0625 63.480469 181.179688 58.359375 187.496094 58.359375 C 193.8125 58.359375 198.929688 63.480469 198.929688 69.792969 L 198.929688 117.214844 L 248.246094 117.214844 C 254.5625 117.214844 259.679688 122.332031 259.679688 128.648438 C 259.679688 134.960938 254.5625 140.078125 248.246094 140.078125 L 198.929688 140.078125 L 198.929688 187.5 C 198.929688 193.816406 193.8125 198.933594 187.496094 198.933594 C 181.179688 198.933594 176.0625 193.816406 176.0625 187.5 L 176.0625 140.082031 Z M 126.75 140.082031 "/><g clip-rule="nonzero" clip-path="url(#94f02e5672)"><path style=" stroke:none;fill-rule:nonzero;fill:#ffffff;fill-opacity:1;" d="M 74.039062 162.085938 C 72.757812 162.085938 71.679688 163.195312 71.679688 164.503906 C 71.679688 165.746094 73.78125 168.628906 73.871094 168.753906 C 73.910156 168.804688 73.972656 168.835938 74.039062 168.835938 C 74.101562 168.835938 74.164062 168.804688 74.203125 168.753906 C 74.292969 168.628906 76.394531 165.746094 76.394531 164.503906 C 76.394531 163.195312 75.316406 162.085938 74.039062 162.085938 Z M 72.945312 164.609375 C 72.832031 164.609375 72.738281 164.515625 72.738281 164.402344 C 72.738281 164.289062 72.832031 164.195312 72.945312 164.195312 L 73.832031 164.195312 L 73.832031 163.34375 C 73.832031 163.230469 73.925781 163.136719 74.039062 163.136719 C 74.152344 163.136719 74.242188 163.230469 74.242188 163.34375 L 74.242188 164.195312 L 75.132812 164.195312 C 75.246094 164.195312 75.335938 164.289062 75.335938 164.402344 C 75.335938 164.515625 75.246094 164.609375 75.132812 164.609375 L 74.242188 164.609375 L 74.242188 165.460938 C 74.242188 165.574219 74.152344 165.667969 74.039062 165.667969 C 73.925781 165.667969 73.832031 165.574219 73.832031 165.460938 L 73.832031 164.609375 Z M 72.945312 164.609375 "/></g></g></svg>