<svg xmlns="http://www.w3.org/2000/svg" xmlns:xlink="http://www.w3.org/1999/xlink" width="500" zoomAndPan="magnify" viewBox="0 0 375 374.999991" height="500" preserveAspectRatio="xMidYMid meet" version="1.2"><defs><clipPath id="0ddc310905"><path d="M 64.152344 124.277344 L 71.652344 124.277344 L 71.652344 131.777344 L 64.152344 131.777344 Z M 64.152344 124.277344 "/></clipPath></defs><g id="000fe91114"><path style=" stroke:none;fill-rule:nonzero;fill:#040404;fill-opacity:1;" d="M 187.5 0 C 83.945312 0 0 83.949219 0 187.5 C 0 291.050781 83.945312 375 187.5 375 C 291.054688 375 375 291.050781 375 187.5 C 375 83.949219 291.054688 0 187.5 0 Z M 151.449219 98.265625 C 161.078125 88.636719 173.878906 83.335938 187.5 83.335938 C 201.121094 83.335938 213.921875 88.636719 223.550781 98.265625 C 233.183594 107.898438 238.484375 120.699219 238.484375 134.320312 C 238.484375 147.9375 233.179688 160.742188 223.550781 170.371094 C 213.921875 180 201.121094 185.304688 187.5 185.304688 C 173.878906 185.304688 161.078125 180 151.449219 170.371094 C 141.816406 160.742188 136.515625 147.9375 136.515625 134.320312 C 136.515625 120.699219 141.820312 107.898438 151.449219 98.265625 Z M 276.503906 279.855469 C 271.84375 287.25 263.84375 291.667969 255.101562 291.667969 L 119.898438 291.667969 C 111.15625 291.667969 103.15625 287.25 98.496094 279.855469 C 93.835938 272.460938 93.304688 263.339844 97.078125 255.453125 L 102.617188 243.878906 C 110.289062 227.839844 122.296875 214.355469 137.335938 204.875 C 152.375 195.398438 169.722656 190.386719 187.5 190.386719 C 205.28125 190.386719 222.628906 195.398438 237.667969 204.875 C 252.710938 214.355469 264.714844 227.839844 272.390625 243.878906 L 277.925781 255.453125 C 281.699219 263.339844 281.167969 272.460938 276.511719 279.855469 Z M 276.503906 279.855469 "/><g clip-rule="nonzero" clip-path="url(#0ddc310905)"><path style=" stroke:none;fill-rule:nonzero;fill:#040404;fill-opacity:1;" d="M 67.902344 124.277344 C 65.832031 124.277344 64.152344 125.957031 64.152344 128.027344 C 64.152344 130.097656 65.832031 131.777344 67.902344 131.777344 C 69.972656 131.777344 71.652344 130.097656 71.652344 128.027344 C 71.652344 125.957031 69.972656 124.277344 67.902344 124.277344 Z M 67.183594 126.242188 C 67.375 126.050781 67.628906 125.945312 67.902344 125.945312 C 68.175781 125.945312 68.429688 126.050781 68.625 126.242188 C 68.816406 126.433594 68.921875 126.691406 68.921875 126.964844 C 68.921875 127.234375 68.816406 127.492188 68.625 127.683594 C 68.429688 127.875 68.175781 127.984375 67.902344 127.984375 C 67.628906 127.984375 67.375 127.875 67.183594 127.683594 C 66.988281 127.492188 66.882812 127.234375 66.882812 126.964844 C 66.882812 126.691406 66.988281 126.433594 67.183594 126.242188 Z M 69.683594 129.875 C 69.589844 130.023438 69.429688 130.109375 69.253906 130.109375 L 66.550781 130.109375 C 66.375 130.109375 66.214844 130.023438 66.121094 129.875 C 66.03125 129.726562 66.019531 129.542969 66.09375 129.386719 L 66.207031 129.15625 C 66.359375 128.832031 66.597656 128.5625 66.898438 128.375 C 67.199219 128.183594 67.546875 128.085938 67.902344 128.085938 C 68.257812 128.085938 68.605469 128.183594 68.90625 128.375 C 69.207031 128.5625 69.445312 128.832031 69.601562 129.15625 L 69.710938 129.386719 C 69.785156 129.542969 69.777344 129.726562 69.683594 129.875 Z M 69.683594 129.875 "/></g></g></svg>