<svg xmlns="http://www.w3.org/2000/svg" xmlns:xlink="http://www.w3.org/1999/xlink" width="500" zoomAndPan="magnify" viewBox="0 0 375 374.999991" height="500" preserveAspectRatio="xMidYMid meet" version="1.2"><defs><clipPath id="fb140499ab"><path d="M 0.136719 87 L 374.863281 87 L 374.863281 341.222656 L 0.136719 341.222656 Z M 0.136719 87 "/></clipPath><clipPath id="028f024461"><path d="M 47 33.75 L 154 33.75 L 154 189 L 47 189 Z M 47 33.75 "/></clipPath><clipPath id="27ed1f3bf6"><path d="M 233.539062 187.5 L 265.039062 187.5 L 265.039062 224.25 L 233.539062 224.25 Z M 233.539062 187.5 "/></clipPath></defs><g id="791a05dace"><rect x="0" width="375" y="0" height="374.999991" style="fill:#ffffff;fill-opacity:1;stroke:none;"/><rect x="0" width="375" y="0" height="374.999991" style="fill:#ffffff;fill-opacity:1;stroke:none;"/><path style=" stroke:none;fill-rule:nonzero;fill:#000000;fill-opacity:1;" d="M 245.773438 152.429688 L 246.542969 159.882812 C 249.007812 159.644531 251.558594 159.515625 254.132812 159.515625 C 256.253906 159.515625 258.441406 159.601562 260.632812 159.769531 L 261.226562 152.300781 C 258.839844 152.121094 256.453125 152.027344 254.132812 152.027344 C 251.304688 152.027344 248.496094 152.164062 245.773438 152.429688 "/><path style=" stroke:none;fill-rule:nonzero;fill:#000000;fill-opacity:1;" d="M 216.273438 161.703125 L 220.152344 168.167969 C 224.167969 165.871094 228.445312 164.007812 232.859375 162.628906 L 230.523438 155.496094 C 225.574219 157.039062 220.777344 159.128906 216.273438 161.703125 "/><path style=" stroke:none;fill-rule:nonzero;fill:#000000;fill-opacity:1;" d="M 113.734375 263.976562 C 118.792969 262.972656 123.773438 261.5625 128.535156 259.785156 L 125.789062 252.789062 C 121.421875 254.417969 116.851562 255.714844 112.203125 256.636719 L 113.734375 263.976562 "/><path style=" stroke:none;fill-rule:nonzero;fill:#000000;fill-opacity:1;" d="M 193.25 181.730469 L 199.28125 186.359375 C 202.296875 182.617188 205.527344 179.214844 208.886719 176.261719 L 203.746094 170.699219 C 200.066406 173.941406 196.535156 177.652344 193.25 181.730469 "/><path style=" stroke:none;fill-rule:nonzero;fill:#000000;fill-opacity:1;" d="M 83.851562 258.027344 L 83.171875 265.484375 C 86.597656 265.785156 90.027344 265.9375 93.367188 265.9375 C 95.078125 265.9375 96.796875 265.898438 98.480469 265.820312 L 98.117188 258.335938 C 96.554688 258.410156 94.953125 258.445312 93.367188 258.445312 C 90.253906 258.445312 87.054688 258.304688 83.851562 258.027344 "/><path style=" stroke:none;fill-rule:nonzero;fill:#000000;fill-opacity:1;" d="M 150.15625 238.867188 C 146.445312 241.835938 142.535156 244.507812 138.53125 246.800781 L 142.417969 253.261719 C 146.761719 250.769531 151.003906 247.878906 155.019531 244.664062 L 150.15625 238.867188 "/><path style=" stroke:none;fill-rule:nonzero;fill:#000000;fill-opacity:1;" d="M 169.601562 218.496094 C 166.714844 222.363281 163.65625 226.003906 160.515625 229.316406 L 166.148438 234.40625 C 169.492188 230.878906 172.742188 227.007812 175.804688 222.90625 L 169.601562 218.496094 "/><path style=" stroke:none;fill-rule:nonzero;fill:#000000;fill-opacity:1;" d="M 53.402344 259.40625 C 58.292969 260.960938 63.234375 262.253906 68.089844 263.257812 L 69.679688 255.929688 C 65.085938 254.980469 60.410156 253.753906 55.777344 252.28125 L 53.402344 259.40625 "/><path style=" stroke:none;fill-rule:nonzero;fill:#000000;fill-opacity:1;" d="M 301.945312 170.980469 C 306.210938 172.863281 310.578125 175 314.933594 177.324219 L 318.617188 170.75 C 314.09375 168.335938 309.550781 166.117188 305.109375 164.15625 L 301.945312 170.980469 "/><path style=" stroke:none;fill-rule:nonzero;fill:#000000;fill-opacity:1;" d="M 274.707031 161.867188 C 279.1875 162.847656 283.835938 164.148438 288.527344 165.734375 L 291.039062 158.65625 C 286.078125 156.980469 281.144531 155.601562 276.386719 154.558594 L 274.707031 161.867188 "/><g clip-rule="nonzero" clip-path="url(#fb140499ab)"><path style=" stroke:none;fill-rule:nonzero;fill:#000000;fill-opacity:1;" d="M 278.84375 234.621094 L 274.738281 234.878906 L 271.714844 237.667969 L 220.65625 284.769531 L 173.214844 142.023438 L 223.691406 98.960938 L 294.664062 101.617188 L 332.019531 178.503906 C 331.875 178.410156 331.726562 178.320312 331.585938 178.230469 L 327.476562 184.554688 C 331.179688 186.847656 334.871094 189.285156 338.480469 191.800781 L 356.882812 229.675781 Z M 302.050781 90.289062 L 219.605469 87.207031 L 164.511719 134.207031 L 150.898438 131.8125 C 149.121094 135.273438 147.175781 138.859375 145.066406 142.554688 L 162.179688 145.570312 L 180.664062 201.1875 C 179.625 203.078125 178.558594 204.929688 177.484375 206.722656 L 183.683594 210.273438 L 209.871094 289.085938 L 130.625 285.464844 L 127.203125 285.304688 L 124.242188 287.039062 L 61.324219 323.847656 L 39.472656 253.554688 L 42.296875 247.269531 C 40.21875 246.378906 38.355469 245.527344 36.738281 244.75 L 13.820312 171.019531 L 56.691406 143.332031 C 54.683594 139.835938 52.816406 136.4375 51.101562 133.144531 L 0.136719 166.058594 L 54.585938 341.222656 L 130.097656 297.042969 L 219.988281 301.15625 L 279.578125 246.191406 L 374.863281 240.152344 L 302.050781 90.289062 "/></g><g clip-rule="nonzero" clip-path="url(#028f024461)"><path style=" stroke:none;fill-rule:nonzero;fill:#000000;fill-opacity:1;" d="M 71.632812 83.675781 C 71.632812 67.648438 84.628906 54.652344 100.65625 54.652344 C 116.6875 54.652344 129.679688 67.648438 129.679688 83.675781 C 129.679688 99.703125 116.6875 112.699219 100.65625 112.699219 C 84.628906 112.699219 71.632812 99.703125 71.632812 83.675781 Z M 153.917969 87.007812 C 153.917969 57.59375 130.074219 33.746094 100.65625 33.746094 C 71.242188 33.746094 47.394531 57.59375 47.394531 87.007812 C 47.394531 121.367188 100.65625 188.53125 100.65625 188.53125 C 100.65625 188.53125 153.917969 121.367188 153.917969 87.007812 "/></g><g clip-rule="nonzero" clip-path="url(#27ed1f3bf6)"><path style=" stroke:none;fill-rule:nonzero;fill:#ffffff;fill-opacity:1;" d="M 264.992188 187.898438 C 264.984375 187.820312 264.984375 187.683594 264.960938 187.53125 C 264.417969 188.570312 263.851562 188.949219 263.171875 189.257812 C 262.394531 189.609375 261.527344 189.683594 260.679688 189.769531 C 256.457031 190.195312 252.207031 190.421875 247.960938 190.265625 C 246.285156 190.203125 244.605469 190.082031 242.9375 190.257812 C 241.265625 190.429688 239.589844 190.921875 238.265625 191.960938 C 236.449219 193.382812 235.066406 194.949219 234.207031 197.097656 C 233.691406 198.386719 233.628906 199.898438 233.570312 201.277344 C 233.550781 201.679688 233.542969 202.082031 233.550781 202.484375 C 233.554688 202.609375 233.554688 202.734375 233.5625 202.859375 C 233.605469 203.972656 233.648438 204.835938 234.050781 205.878906 C 234.179688 206.214844 234.472656 206.683594 234.714844 206.9375 C 234.753906 206.972656 235.183594 207.375 235.175781 207.269531 C 234.910156 204.191406 235.84375 201.035156 237.691406 198.570312 C 238.785156 197.105469 240.238281 195.847656 241.976562 195.304688 C 242.832031 195.035156 243.722656 194.945312 244.621094 194.941406 C 244.613281 195.195312 244.613281 195.421875 244.597656 195.578125 C 244.382812 197.703125 243.867188 199.785156 243.355469 201.851562 C 242.4375 205.546875 241.480469 209.320312 239.375 212.480469 C 238.320312 214.066406 236.917969 216.117188 235.96875 217.765625 C 235.015625 219.414062 234.242188 221.050781 234.898438 222.839844 C 235.175781 223.589844 236.042969 224.054688 236.832031 224.152344 C 237.386719 224.222656 237.9375 223.96875 238.347656 223.589844 C 238.757812 223.210938 239.050781 222.722656 239.328125 222.238281 C 244.015625 214.042969 244.746094 204.789062 245.878906 195.035156 C 245.882812 195.015625 245.886719 194.996094 245.886719 194.976562 C 246.253906 194.996094 246.621094 195.023438 246.988281 195.050781 C 249.105469 195.203125 251.226562 195.332031 253.351562 195.40625 C 253.269531 195.894531 253.183594 196.378906 253.105469 196.863281 C 252.542969 200.28125 251.984375 203.699219 251.421875 207.113281 C 251.109375 209.027344 250.796875 210.9375 250.480469 212.847656 C 250.226562 214.394531 249.972656 215.953125 250.019531 217.523438 C 250.0625 219.089844 250.429688 220.6875 251.320312 221.972656 C 252.210938 223.257812 253.679688 224.191406 255.234375 224.183594 C 256.492188 224.175781 257.699219 223.5625 258.609375 222.691406 C 259.519531 221.816406 260.316406 220.792969 260.832031 219.636719 C 261.351562 218.472656 261.597656 217.109375 261.796875 215.832031 C 262.011719 214.472656 261.839844 212.34375 261.503906 211.949219 C 261.503906 211.949219 261.265625 213.519531 261.117188 213.898438 C 260.363281 215.800781 259.851562 216.847656 258.304688 218.074219 C 257.753906 218.507812 257.125 218.867188 256.433594 218.949219 C 255.742188 219.03125 254.984375 218.796875 254.574219 218.230469 C 253.871094 217.269531 253.828125 216.046875 253.769531 214.902344 C 253.675781 213.152344 253.828125 211.40625 253.953125 209.664062 C 254.128906 207.222656 254.367188 204.789062 254.664062 202.359375 C 254.851562 200.832031 255.0625 199.308594 255.296875 197.785156 C 255.414062 197.042969 255.601562 196.25 255.683594 195.460938 C 256.515625 195.472656 257.347656 195.46875 258.179688 195.457031 C 258.441406 195.453125 258.699219 195.445312 258.960938 195.433594 C 260.960938 195.34375 263.085938 194.695312 264.136719 192.824219 C 264.554688 192.074219 264.839844 191.265625 264.957031 190.414062 C 265.019531 189.96875 265.042969 189.515625 265.039062 189.0625 C 265.039062 188.8125 265.03125 188.5625 265.015625 188.3125 C 265.007812 188.175781 265 188.035156 264.992188 187.898438 "/></g></g></svg>