<svg xmlns="http://www.w3.org/2000/svg" xmlns:xlink="http://www.w3.org/1999/xlink" width="500" zoomAndPan="magnify" viewBox="0 0 375 374.999991" height="500" preserveAspectRatio="xMidYMid meet" version="1.0"><defs><clipPath id="a66bb16ae4"><path d="M 0 84.523438 L 243.75 84.523438 L 243.75 290.773438 L 0 290.773438 Z M 0 84.523438 " clip-rule="nonzero"/></clipPath><clipPath id="a95a0166ee"><path d="M 200.617188 84.523438 L 375 84.523438 L 375 286 L 200.617188 286 Z M 200.617188 84.523438 " clip-rule="nonzero"/></clipPath></defs><rect x="-37.5" width="450" fill="#ffffff" y="-37.499999" height="449.999989" fill-opacity="1"/><rect x="-37.5" width="450" fill="#ffffff" y="-37.499999" height="449.999989" fill-opacity="1"/><g clip-path="url(#a66bb16ae4)"><path fill="#000000" d="M 180.320312 89.886719 L 215.371094 89.886719 L 187.964844 186.09375 C 186.089844 192.152344 183.203125 201.671875 179.308594 214.652344 C 184.648438 236.289062 188.683594 249.269531 191.28125 253.597656 C 196.328125 261.386719 202.820312 265.28125 210.464844 265.28125 C 216.089844 265.28125 221.285156 262.972656 226.042969 258.355469 C 230.804688 253.742188 233.976562 246.386719 235.5625 236.578125 L 244.074219 236.578125 C 242.054688 256.914062 237.871094 270.90625 231.238281 278.695312 C 224.746094 286.484375 217.101562 290.378906 208.589844 290.378906 C 200.511719 290.378906 193.300781 287.0625 186.667969 280.28125 C 180.175781 273.503906 174.261719 259.078125 169.070312 236.722656 C 162.867188 248.980469 156.808594 258.214844 150.894531 264.558594 C 142.527344 273.359375 133.585938 279.847656 123.777344 284.03125 C 114.113281 288.359375 103.007812 290.523438 90.601562 290.523438 C 59.445312 290.523438 36.511719 280.136719 21.945312 259.511719 C 7.234375 238.742188 0.0195312 215.230469 0.0195312 188.691406 C 0.0195312 157.679688 8.675781 132.582031 25.839844 113.398438 C 43.003906 94.214844 63.199219 84.550781 86.277344 84.550781 C 102.285156 84.550781 116.421875 89.453125 128.683594 99.261719 C 140.941406 109.070312 152.050781 127.242188 162 153.929688 Z M 154.789062 177.152344 C 147.144531 148.160156 137.335938 127.820312 125.363281 116.425781 C 113.390625 104.886719 101.277344 99.261719 88.871094 99.261719 C 75.023438 99.261719 63.628906 106.90625 54.398438 121.90625 C 45.3125 137.050781 40.695312 161.140625 40.695312 194.316406 C 40.695312 213.933594 42.714844 229.222656 46.609375 240.472656 C 50.503906 251.722656 56.5625 260.375 64.496094 266.433594 C 72.429688 272.492188 80.9375 275.667969 89.738281 275.667969 C 100.554688 275.667969 110.507812 270.617188 119.59375 260.664062 C 131.710938 247.105469 143.394531 219.269531 154.789062 177.152344 Z M 154.789062 177.152344 " fill-opacity="1" fill-rule="nonzero"/></g><g clip-path="url(#a95a0166ee)"><path fill="#000000" d="M 374.714844 86.769531 C 374.683594 86.339844 374.671875 85.589844 374.554688 84.753906 C 371.539062 90.464844 368.410156 92.550781 364.652344 94.238281 C 360.355469 96.167969 355.546875 96.570312 350.859375 97.046875 C 327.476562 99.398438 303.945312 100.625 280.457031 99.769531 C 271.179688 99.433594 261.867188 98.769531 252.628906 99.726562 C 243.394531 100.679688 234.105469 103.371094 226.777344 109.070312 C 216.730469 116.882812 209.074219 125.476562 204.308594 137.273438 C 201.445312 144.347656 201.109375 152.660156 200.777344 160.214844 C 200.679688 162.425781 200.636719 164.640625 200.675781 166.855469 C 200.6875 167.539062 200.707031 168.21875 200.730469 168.902344 C 200.980469 175.011719 201.226562 179.75 203.4375 185.480469 C 204.148438 187.320312 205.777344 189.894531 207.128906 191.289062 C 207.332031 191.496094 209.722656 193.695312 209.671875 193.117188 C 208.199219 176.21875 213.378906 158.894531 223.589844 145.355469 C 229.65625 137.3125 237.699219 130.425781 247.320312 127.429688 C 252.058594 125.953125 256.988281 125.46875 261.964844 125.433594 C 261.914062 126.824219 261.90625 128.074219 261.816406 128.941406 C 260.644531 140.613281 257.785156 152.027344 254.941406 163.382812 C 249.859375 183.652344 244.578125 204.382812 232.925781 221.734375 C 227.085938 230.417969 219.324219 241.695312 214.050781 250.738281 C 208.777344 259.777344 204.496094 268.769531 208.136719 278.582031 C 209.667969 282.710938 214.480469 285.257812 218.851562 285.804688 C 221.902344 286.191406 224.964844 284.777344 227.238281 282.703125 C 229.507812 280.628906 231.117188 277.949219 232.652344 275.28125 C 258.597656 230.289062 262.65625 179.496094 268.929688 125.960938 C 268.945312 125.859375 268.957031 125.746094 268.96875 125.628906 C 271.003906 125.742188 273.035156 125.886719 275.050781 126.035156 C 286.78125 126.871094 298.527344 127.59375 310.277344 127.996094 C 309.835938 130.664062 309.355469 133.328125 308.914062 135.992188 C 305.8125 154.753906 302.707031 173.511719 299.605469 192.269531 C 297.871094 202.757812 296.132812 213.246094 294.398438 223.734375 C 292.992188 232.230469 291.582031 240.792969 291.835938 249.398438 C 292.089844 258.007812 294.117188 266.765625 299.046875 273.832031 C 303.976562 280.890625 312.105469 286.019531 320.714844 285.96875 C 327.679688 285.929688 334.347656 282.566406 339.394531 277.769531 C 344.4375 272.96875 348.851562 267.355469 351.703125 261.003906 C 354.570312 254.621094 355.929688 247.136719 357.039062 240.128906 C 358.222656 232.660156 357.273438 220.980469 355.40625 218.800781 C 355.40625 218.800781 354.097656 227.433594 353.269531 229.507812 C 349.09375 239.949219 346.265625 245.6875 337.695312 252.421875 C 334.667969 254.800781 331.171875 256.773438 327.347656 257.230469 C 323.519531 257.6875 319.332031 256.390625 317.046875 253.285156 C 313.167969 248.003906 312.933594 241.308594 312.597656 235.019531 C 312.085938 225.414062 312.921875 215.824219 313.617188 206.261719 C 314.597656 192.867188 315.910156 179.5 317.558594 166.171875 C 318.59375 157.78125 319.761719 149.40625 321.066406 141.050781 C 321.699219 136.980469 322.742188 132.628906 323.191406 128.296875 C 327.800781 128.351562 332.410156 128.34375 337.019531 128.265625 C 338.460938 128.242188 339.902344 128.207031 341.339844 128.144531 C 352.40625 127.65625 364.175781 124.085938 369.988281 113.816406 C 372.3125 109.710938 373.882812 105.265625 374.539062 100.589844 C 374.886719 98.136719 375.003906 95.65625 374.992188 93.179688 C 374.984375 91.800781 374.9375 90.429688 374.863281 89.054688 C 374.824219 88.292969 374.773438 87.53125 374.714844 86.769531 " fill-opacity="1" fill-rule="nonzero"/></g><path stroke-linecap="butt" transform="matrix(0.75, 0, 0, 0.75, 23.493152, 208.738961)" fill="none" stroke-linejoin="miter" d="M -0.00128664 2.999093 L 385.904989 2.999093 " stroke="#000000" stroke-width="6" stroke-opacity="1" stroke-miterlimit="4"/></svg>