<svg xmlns="http://www.w3.org/2000/svg" xmlns:xlink="http://www.w3.org/1999/xlink" width="500" zoomAndPan="magnify" viewBox="0 0 375 374.999991" height="500" preserveAspectRatio="xMidYMid meet" version="1.0"><defs><clipPath id="a617676956"><path d="M 0 84.523438 L 243.75 84.523438 L 243.75 290.773438 L 0 290.773438 Z M 0 84.523438 " clip-rule="nonzero"/></clipPath><clipPath id="8a967807f4"><path d="M 200.617188 84.523438 L 375 84.523438 L 375 286 L 200.617188 286 Z M 200.617188 84.523438 " clip-rule="nonzero"/></clipPath></defs><g clip-path="url(#a617676956)"><path fill="#ffffff" d="M 180.070312 89.894531 L 215.070312 89.894531 L 187.703125 186.242188 C 185.832031 192.3125 182.949219 201.84375 179.058594 214.847656 C 184.390625 236.515625 188.421875 249.515625 191.015625 253.847656 C 196.058594 261.648438 202.539062 265.546875 210.171875 265.546875 C 215.789062 265.546875 220.976562 263.238281 225.730469 258.613281 C 230.480469 253.992188 233.652344 246.625 235.234375 236.800781 L 243.734375 236.800781 C 241.71875 257.171875 237.539062 271.183594 230.914062 278.984375 C 224.433594 286.78125 216.796875 290.683594 208.300781 290.683594 C 200.234375 290.683594 193.03125 287.359375 186.40625 280.570312 C 179.925781 273.78125 174.019531 259.335938 168.832031 236.945312 C 162.640625 249.226562 156.589844 258.46875 150.683594 264.828125 C 142.332031 273.636719 133.402344 280.136719 123.605469 284.328125 C 113.953125 288.660156 102.863281 290.828125 90.476562 290.828125 C 59.363281 290.828125 36.460938 280.425781 21.914062 259.769531 C 7.222656 238.96875 0.0195312 215.421875 0.0195312 188.84375 C 0.0195312 157.785156 8.664062 132.652344 25.804688 113.441406 C 42.945312 94.226562 63.109375 84.550781 86.15625 84.550781 C 102.144531 84.550781 116.257812 89.460938 128.503906 99.285156 C 140.746094 109.105469 151.835938 127.308594 161.777344 154.03125 Z M 154.574219 177.289062 C 146.941406 148.253906 137.144531 127.886719 125.191406 116.472656 C 113.234375 104.917969 101.136719 99.285156 88.75 99.285156 C 74.921875 99.285156 63.542969 106.941406 54.324219 121.960938 C 45.25 137.128906 40.640625 161.253906 40.640625 194.476562 C 40.640625 214.125 42.65625 229.433594 46.546875 240.703125 C 50.433594 251.96875 56.484375 260.636719 64.40625 266.703125 C 72.328125 272.769531 80.828125 275.949219 89.613281 275.949219 C 100.414062 275.949219 110.355469 270.894531 119.429688 260.925781 C 131.527344 247.347656 143.195312 219.46875 154.574219 177.289062 Z M 154.574219 177.289062 " fill-opacity="1" fill-rule="nonzero"/></g><g clip-path="url(#8a967807f4)"><path fill="#ffffff" d="M 375.089844 86.769531 C 375.058594 86.335938 375.046875 85.589844 374.929688 84.753906 C 371.910156 90.460938 368.769531 92.546875 365.003906 94.234375 C 360.699219 96.164062 355.878906 96.566406 351.183594 97.039062 C 327.75 99.386719 304.167969 100.617188 280.628906 99.761719 C 271.332031 99.421875 261.996094 98.761719 252.742188 99.714844 C 243.484375 100.667969 234.175781 103.359375 226.832031 109.054688 C 216.765625 116.859375 209.09375 125.449219 204.316406 137.242188 C 201.449219 144.308594 201.113281 152.617188 200.777344 160.164062 C 200.679688 162.375 200.636719 164.589844 200.675781 166.804688 C 200.6875 167.484375 200.707031 168.167969 200.734375 168.847656 C 200.980469 174.953125 201.226562 179.691406 203.441406 185.414062 C 204.15625 187.253906 205.785156 189.828125 207.140625 191.21875 C 207.34375 191.425781 209.742188 193.625 209.691406 193.046875 C 208.214844 176.160156 213.40625 158.847656 223.640625 145.316406 C 229.71875 137.277344 237.777344 130.394531 247.417969 127.402344 C 252.171875 125.929688 257.109375 125.441406 262.097656 125.40625 C 262.046875 126.796875 262.039062 128.046875 261.949219 128.910156 C 260.777344 140.578125 257.910156 151.984375 255.058594 163.332031 C 249.964844 183.589844 244.671875 204.308594 232.992188 221.644531 C 227.144531 230.328125 219.363281 241.597656 214.082031 250.632812 C 208.796875 259.664062 204.503906 268.652344 208.152344 278.457031 C 209.6875 282.585938 214.507812 285.128906 218.890625 285.675781 C 221.949219 286.0625 225.015625 284.648438 227.292969 282.578125 C 229.570312 280.503906 231.183594 277.824219 232.722656 275.160156 C 258.722656 230.199219 262.789062 179.433594 269.078125 125.933594 C 269.089844 125.832031 269.101562 125.722656 269.117188 125.605469 C 271.15625 125.714844 273.191406 125.863281 275.210938 126.007812 C 286.964844 126.84375 298.734375 127.566406 310.511719 127.96875 C 310.070312 130.636719 309.589844 133.296875 309.148438 135.960938 C 306.039062 154.707031 302.929688 173.453125 299.820312 192.199219 C 298.078125 202.679688 296.339844 213.164062 294.601562 223.644531 C 293.191406 232.136719 291.777344 240.691406 292.03125 249.292969 C 292.285156 257.894531 294.320312 266.652344 299.257812 273.710938 C 304.199219 280.765625 312.34375 285.890625 320.972656 285.839844 C 327.953125 285.800781 334.632812 282.441406 339.691406 277.644531 C 344.746094 272.847656 349.167969 267.242188 352.027344 260.890625 C 354.902344 254.511719 356.261719 247.035156 357.375 240.027344 C 358.5625 232.566406 357.609375 220.890625 355.738281 218.714844 C 355.738281 218.714844 354.429688 227.339844 353.597656 229.414062 C 349.410156 239.847656 346.578125 245.582031 337.992188 252.3125 C 334.957031 254.691406 331.453125 256.664062 327.621094 257.121094 C 323.785156 257.578125 319.585938 256.28125 317.300781 253.179688 C 313.410156 247.902344 313.175781 241.207031 312.835938 234.921875 C 312.324219 225.324219 313.160156 215.742188 313.863281 206.183594 C 314.84375 192.800781 316.160156 179.4375 317.808594 166.121094 C 318.847656 157.734375 320.019531 149.363281 321.324219 141.011719 C 321.960938 136.945312 323.003906 132.597656 323.457031 128.265625 C 328.074219 128.324219 332.695312 128.316406 337.3125 128.238281 C 338.757812 128.210938 340.199219 128.179688 341.640625 128.113281 C 352.734375 127.628906 364.527344 124.0625 370.351562 113.796875 C 372.679688 109.695312 374.253906 105.253906 374.914062 100.578125 C 375.261719 98.128906 375.378906 95.648438 375.367188 93.171875 C 375.359375 91.796875 375.3125 90.425781 375.238281 89.050781 C 375.199219 88.289062 375.148438 87.527344 375.089844 86.769531 " fill-opacity="1" fill-rule="nonzero"/></g><path stroke-linecap="butt" transform="matrix(0.75, 0, 0, 0.75, 23.493152, 208.738961)" fill="none" stroke-linejoin="miter" d="M -0.00128664 2.999093 L 385.904989 2.999093 " stroke="#ffffff" stroke-width="6" stroke-opacity="1" stroke-miterlimit="4"/></svg>