<svg xmlns="http://www.w3.org/2000/svg" xmlns:xlink="http://www.w3.org/1999/xlink" width="500" zoomAndPan="magnify" viewBox="0 0 375 374.999991" height="500" preserveAspectRatio="xMidYMid meet" version="1.0"><defs><g/><clipPath id="547db751d2"><path d="M 115 112 L 204 112 L 204 200.933594 L 115 200.933594 Z M 115 112 " clip-rule="nonzero"/></clipPath><clipPath id="87ad696867"><path d="M 173.753906 99.015625 L 262.652344 99.015625 L 262.652344 187.496094 L 173.753906 187.496094 Z M 173.753906 99.015625 " clip-rule="nonzero"/></clipPath><clipPath id="8a7e5c341e"><path d="M 101.402344 52 L 191 52 L 191 142 L 101.402344 142 Z M 101.402344 52 " clip-rule="nonzero"/></clipPath><clipPath id="04ba3ec1a8"><path d="M 145 16.433594 L 234 16.433594 L 234 104 L 145 104 Z M 145 16.433594 " clip-rule="nonzero"/></clipPath></defs><rect x="-37.5" width="450" fill="#ffffff" y="-37.499999" height="449.999989" fill-opacity="1"/><rect x="-37.5" width="450" fill="#ffffff" y="-37.499999" height="449.999989" fill-opacity="1"/><g clip-path="url(#547db751d2)"><path fill="#51b59f" d="M 203.253906 179.082031 C 202.972656 179.789062 202.453125 181.101562 192.511719 184.359375 C 188.199219 185.773438 182.273438 187.421875 179.777344 187.425781 C 179.308594 187.425781 178.617188 187.378906 178.050781 186.976562 C 176.378906 185.792969 176.53125 183.089844 176.710938 179.960938 C 176.777344 178.78125 176.878906 177 176.703125 176.5 C 175.6875 173.628906 173.691406 172.109375 170.589844 171.851562 C 170.136719 171.8125 169.699219 171.792969 169.285156 171.792969 C 166.5625 171.792969 164.714844 172.601562 163.796875 174.203125 C 162.128906 177.101562 163.449219 182 165.382812 185.320312 C 165.683594 185.84375 165.960938 186.300781 166.207031 186.707031 C 167.300781 188.511719 168.019531 189.703125 167.535156 191.070312 C 167.011719 192.542969 165.570312 193.058594 162.40625 194.191406 C 161.996094 194.339844 161.546875 194.5 161.0625 194.675781 C 157.707031 195.894531 154.34375 197.105469 150.984375 198.3125 C 149.246094 198.9375 144.167969 200.769531 144.167969 200.769531 L 143.589844 199.167969 C 143.199219 198.082031 142.734375 196.375 142.191406 194.402344 C 140.769531 189.214844 137.8125 178.414062 134.816406 177.335938 C 134.484375 177.21875 134.175781 177.160156 133.871094 177.160156 C 132.496094 177.160156 131.121094 178.457031 129.671875 179.828125 C 127.820312 181.574219 125.726562 183.554688 122.820312 183.554688 C 121.628906 183.554688 120.410156 183.207031 119.191406 182.527344 C 117.320312 181.472656 115.925781 179.519531 115.375 177.164062 C 114.824219 174.808594 115.191406 172.453125 116.386719 170.703125 C 118.28125 167.933594 120.664062 167.617188 122.292969 167.617188 C 122.996094 167.617188 123.6875 167.683594 124.355469 167.742188 C 125 167.804688 125.609375 167.863281 126.203125 167.863281 C 126.921875 167.863281 127.5 167.777344 128.015625 167.589844 C 129.191406 167.167969 129.910156 166.570312 130.277344 165.703125 C 131.445312 162.988281 129.164062 157.839844 127.335938 153.703125 C 126.234375 151.21875 125.195312 148.867188 124.8125 146.96875 L 124.765625 146.734375 C 124.246094 144.171875 123.988281 142.886719 124.511719 141.707031 C 125.128906 140.320312 126.414062 139.914062 128.355469 139.296875 C 129.042969 139.078125 129.824219 138.828125 130.773438 138.488281 C 131.921875 138.078125 133.402344 137.675781 134.96875 137.253906 C 138.441406 136.3125 143.199219 135.027344 144.964844 133.257812 C 147.050781 131.164062 146.375 129.953125 143.742188 126.746094 C 141.417969 123.914062 138.230469 120.039062 142.253906 115.246094 C 143.800781 113.402344 146.390625 112.257812 149.007812 112.257812 C 151 112.257812 152.824219 112.929688 154.144531 114.148438 C 156.796875 116.59375 156.46875 119.554688 156.203125 121.933594 C 156.050781 123.328125 155.902344 124.640625 156.335938 125.691406 C 156.707031 126.589844 157.46875 127.621094 160.109375 127.621094 C 164.625 127.621094 171.324219 124.605469 176.210938 122.398438 C 178.023438 121.585938 176.851562 122.007812 178.023438 121.585938 L 178.5625 121.375 C 180.628906 120.5625 182.953125 121.644531 183.664062 123.746094 C 184.027344 124.75 183.964844 124 184.730469 125.75 C 189.046875 135.585938 192.273438 143.9375 188.011719 146.496094 C 186.84375 147.195312 185.519531 147.277344 184.625 147.277344 C 183.949219 147.277344 183.257812 147.222656 182.589844 147.171875 C 181.945312 147.121094 181.277344 147.070312 180.664062 147.070312 C 179.605469 147.070312 178.851562 147.222656 178.285156 147.550781 C 175.546875 149.125 174.269531 152.382812 175.105469 155.664062 C 175.8125 158.421875 177.992188 160.792969 180.40625 161.425781 C 180.910156 161.558594 181.382812 161.625 181.816406 161.625 C 183.394531 161.625 184.503906 160.738281 185.90625 159.613281 C 187.015625 158.722656 188.269531 157.714844 189.910156 157.121094 C 191.363281 156.589844 192.289062 156.371094 193.097656 156.371094 C 195.6875 156.371094 196.382812 158.472656 197.1875 160.902344 C 197.375 161.472656 197.589844 162.113281 197.851562 162.839844 C 198.074219 163.457031 198.632812 164.675781 199.277344 166.085938 C 202.660156 173.476562 204.039062 177.109375 203.253906 179.082031 " fill-opacity="1" fill-rule="nonzero"/></g><g clip-path="url(#87ad696867)"><path fill="#397dc9" d="M 262.808594 158.328125 L 261.203125 158.90625 C 260.242188 159.253906 258.800781 159.652344 256.976562 160.160156 C 253.546875 161.109375 248.851562 162.410156 245.09375 164.042969 C 239.796875 166.339844 239.164062 168.085938 239.136719 168.726562 C 239.101562 169.65625 240.644531 171.875 241.769531 173.492188 C 244 176.695312 246.523438 180.328125 245.183594 183.453125 C 244.320312 185.46875 242.097656 186.726562 238.386719 187.296875 C 237.664062 187.410156 236.980469 187.464844 236.355469 187.464844 C 229.875 187.464844 229.847656 181.734375 229.832031 177.9375 C 229.820312 175.480469 229.808594 172.941406 228.574219 171.988281 C 228.136719 171.648438 227.394531 171.472656 226.421875 171.472656 C 222.058594 171.472656 214.644531 174.871094 209.738281 177.121094 C 207.820312 178.003906 206.160156 178.765625 205.019531 179.175781 L 203.414062 179.753906 L 202.835938 178.152344 C 202.484375 177.171875 202.0625 175.667969 201.535156 173.765625 C 200.601562 170.414062 199.324219 165.824219 197.789062 162.097656 C 195.585938 156.761719 193.992188 155.917969 193.410156 155.800781 C 193.332031 155.785156 193.246094 155.777344 193.15625 155.777344 C 191.863281 155.777344 189.839844 157.296875 188.054688 158.636719 C 185.675781 160.425781 183.214844 162.273438 180.675781 162.273438 C 178.058594 162.273438 176.058594 160.371094 174.734375 156.625 C 173.691406 153.664062 173.722656 151.40625 174.835938 149.726562 C 176.566406 147.109375 180.179688 146.886719 183.675781 146.667969 C 186.035156 146.519531 188.707031 146.355469 189.492188 145.367188 C 191.609375 142.691406 188.871094 137.125 186.460938 132.210938 C 184.425781 128.074219 182.507812 124.171875 182.792969 121.050781 L 182.890625 119.96875 L 183.910156 119.601562 C 184.972656 119.214844 186.460938 118.566406 188.179688 117.816406 C 193.265625 115.59375 199.59375 112.828125 203.933594 112.828125 C 206.023438 112.828125 207.558594 113.472656 208.496094 114.746094 C 209.667969 116.335938 209.558594 118.347656 209.453125 120.296875 C 209.335938 122.40625 209.230469 124.394531 210.621094 125.753906 C 211.972656 127.074219 213.671875 127.769531 215.539062 127.769531 C 216.5 127.769531 217.480469 127.589844 218.457031 127.230469 C 221.386719 126.164062 223.21875 123.945312 223.476562 121.148438 C 223.675781 119.003906 222.789062 117.941406 221.554688 116.472656 C 220.707031 115.457031 219.742188 114.304688 219.132812 112.699219 C 218.40625 110.78125 218.074219 109.339844 218.675781 108.074219 C 219.351562 106.660156 220.808594 106.179688 222.824219 105.511719 C 223.410156 105.320312 224.070312 105.101562 224.808594 104.835938 C 225.382812 104.625 226.574219 104.082031 227.957031 103.457031 C 233.09375 101.117188 237.539062 99.179688 239.890625 99.179688 C 240.386719 99.179688 240.8125 99.261719 241.1875 99.425781 C 242.910156 100.179688 244.125 103.074219 246.613281 112.328125 C 246.945312 113.554688 247.230469 114.613281 247.390625 115.089844 C 247.597656 115.695312 247.84375 116.308594 248.082031 116.902344 C 249.167969 119.597656 250.65625 123.289062 246.597656 125.449219 C 245.675781 125.9375 244.640625 126.167969 243.335938 126.167969 C 242.621094 126.167969 241.898438 126.097656 241.203125 126.03125 C 240.519531 125.96875 239.875 125.90625 239.246094 125.90625 C 237.984375 125.90625 237.117188 126.160156 236.347656 126.753906 C 234.054688 128.527344 233.128906 132.148438 234.195312 135.183594 C 235.257812 138.207031 238.148438 140.40625 241.058594 140.40625 L 241.164062 140.40625 C 242.824219 140.375 244.179688 139.0625 245.613281 137.675781 C 247.074219 136.261719 248.585938 134.796875 250.628906 134.652344 C 250.714844 134.648438 250.800781 134.644531 250.886719 134.644531 C 255.453125 134.644531 258.179688 142.84375 261.023438 152.746094 C 261.503906 154.417969 261.917969 155.863281 262.230469 156.726562 L 262.808594 158.328125 " fill-opacity="1" fill-rule="nonzero"/></g><g clip-path="url(#8a7e5c341e)"><path fill="#f8c305" d="M 189.128906 92.410156 C 187.222656 94.570312 184.007812 94.574219 181.167969 94.578125 C 179.351562 94.582031 177.472656 94.585938 176.371094 95.144531 C 173.878906 96.410156 174.390625 98.859375 176.480469 103.878906 C 176.816406 104.683594 177.136719 105.445312 177.398438 106.175781 C 177.609375 106.765625 178.109375 107.792969 178.636719 108.878906 C 180.714844 113.136719 182.132812 116.316406 181.492188 118.457031 C 180.613281 121.378906 177.371094 122.40625 174.234375 123.398438 C 173.535156 123.621094 172.8125 123.847656 172.144531 124.089844 C 171.261719 124.410156 170.234375 124.871094 169.148438 125.359375 C 166.621094 126.5 163.753906 127.789062 161.253906 127.910156 C 160.601562 127.9375 160.105469 127.953125 159.699219 127.953125 C 158.636719 127.953125 157.433594 127.882812 156.632812 127.042969 C 155.835938 126.214844 155.882812 125.164062 155.925781 124.148438 C 155.957031 123.511719 155.992188 122.71875 155.886719 121.703125 C 155.347656 116.5 152.566406 113.398438 148.4375 113.398438 C 145.765625 113.398438 143.214844 114.761719 141.9375 116.875 C 140.710938 118.902344 140.785156 121.351562 142.152344 123.96875 C 142.355469 124.351562 143.175781 125.15625 143.839844 125.800781 C 145.625 127.542969 147.46875 129.34375 147.078125 131.390625 C 146.601562 133.859375 143.277344 134.964844 139.308594 136.0625 C 138.738281 136.21875 138.203125 136.367188 137.929688 136.46875 C 137.019531 136.796875 136.019531 137.238281 134.960938 137.703125 C 132.507812 138.78125 129.976562 139.894531 127.546875 140.152344 C 126.273438 140.289062 125.917969 140.570312 125.765625 140.691406 C 125.582031 140.835938 125.160156 141.175781 124.515625 141.175781 C 123.34375 141.175781 122.902344 140.207031 122.6875 139.742188 C 122.496094 139.324219 122.136719 138.542969 121.3125 137.179688 C 120.425781 135.710938 119.902344 133.953125 119.398438 132.253906 C 119.175781 131.503906 118.96875 130.796875 118.738281 130.167969 C 118.597656 129.769531 118.257812 129.023438 117.863281 128.15625 C 115.347656 122.613281 114.328125 119.65625 115.347656 117.84375 C 116.597656 115.628906 119.160156 115.628906 120.003906 115.628906 C 120.664062 115.628906 121.34375 115.683594 122 115.734375 C 122.636719 115.78125 123.234375 115.828125 123.796875 115.828125 C 124.316406 115.828125 124.726562 115.785156 125.050781 115.703125 C 127.777344 114.996094 129.804688 113.003906 130.476562 110.371094 C 131.152344 107.722656 130.296875 104.957031 128.1875 102.972656 C 126.789062 101.65625 125.320312 101.015625 123.695312 101.015625 C 122.542969 101.015625 121.285156 101.347656 119.960938 102.003906 C 119.566406 102.199219 118.648438 103.144531 117.976562 103.832031 C 116.3125 105.550781 114.742188 107.167969 113.003906 107.167969 L 112.894531 107.167969 C 109.496094 107.035156 107.042969 100.730469 103.15625 87.535156 C 102.695312 85.980469 102.300781 84.640625 102.074219 84.011719 L 101.496094 82.40625 L 103.097656 81.828125 C 104.867188 81.191406 107.117188 80.59375 109.5 79.960938 C 114.621094 78.597656 120.996094 76.902344 123.652344 74.363281 C 124.875 73.195312 125.492188 72.273438 125.433594 71.699219 C 125.378906 71.132812 124.703125 70.328125 123.917969 69.402344 C 123.15625 68.5 122.207031 67.375 121.382812 65.9375 C 119.738281 63.070312 119.746094 59.515625 121.398438 56.664062 C 122.796875 54.246094 125.085938 52.863281 127.671875 52.863281 C 129.097656 52.863281 130.542969 53.285156 131.972656 54.117188 C 135.800781 56.34375 135.621094 60.214844 135.480469 63.324219 C 135.335938 66.429688 135.429688 67.875 136.914062 68.699219 C 137.273438 68.898438 137.789062 68.996094 138.441406 68.996094 C 141.542969 68.996094 146.324219 66.8125 149.820312 65.222656 C 151.191406 64.59375 152.375 64.054688 153.269531 63.730469 C 154.082031 63.4375 154.746094 63.15625 155.332031 62.914062 C 156.511719 62.417969 157.367188 62.058594 158.332031 62.058594 C 160.089844 62.058594 161.269531 63.328125 162.324219 64.625 C 164.074219 66.78125 165.03125 70.359375 165.875 73.515625 C 166.238281 74.875 166.582031 76.15625 166.941406 77.148438 C 167.152344 77.730469 167.359375 78.335938 167.5625 78.945312 C 168.804688 82.644531 169.769531 85.066406 171.78125 85.066406 C 172.292969 85.066406 172.894531 84.933594 173.574219 84.667969 C 174.398438 84.347656 175.148438 83.5 175.941406 82.597656 C 177.09375 81.289062 178.402344 79.804688 180.464844 79.304688 C 181.101562 79.148438 181.75 79.070312 182.398438 79.070312 C 186.488281 79.070312 189.957031 82.183594 190.46875 86.3125 C 190.804688 89.015625 190.367188 91.011719 189.128906 92.410156 " fill-opacity="1" fill-rule="nonzero"/></g><g clip-path="url(#04ba3ec1a8)"><path fill="#ef3220" d="M 233.828125 56.984375 C 233.90625 58.875 232.148438 60.1875 231.117188 60.828125 C 229.878906 63.355469 227.652344 65.542969 225.496094 67.664062 C 224.144531 68.992188 222.863281 70.25 221.941406 71.480469 C 219.183594 75.171875 219.203125 76.308594 219.277344 76.570312 C 219.40625 77.039062 220.800781 77.609375 222.03125 78.117188 C 223.621094 78.773438 225.597656 79.582031 227.527344 81.015625 C 230.425781 83.171875 231.53125 86.628906 230.402344 90.035156 C 229.238281 93.554688 226.074219 96.011719 222.703125 96.011719 C 221.253906 96.011719 219.847656 95.578125 218.515625 94.730469 C 216.066406 93.164062 214.871094 90.769531 213.90625 88.839844 C 212.945312 86.910156 212.441406 86.066406 211.683594 86.066406 C 211.207031 86.066406 210.285156 86.292969 208.613281 87.382812 C 206.273438 88.90625 203.933594 92.113281 201.867188 94.945312 C 200.851562 96.332031 199.894531 97.644531 198.953125 98.761719 C 196.601562 101.535156 195.0625 103.234375 193.066406 103.234375 C 191.425781 103.234375 190.21875 102.164062 188.21875 100.394531 C 187.648438 99.890625 187.003906 99.320312 186.257812 98.691406 C 185.757812 98.269531 184.863281 97.644531 183.828125 96.917969 C 179.660156 94 176.414062 91.578125 175.703125 89.1875 C 174.484375 85.109375 177.144531 84.066406 178.730469 83.441406 C 179.492188 83.140625 180.28125 82.832031 180.988281 82.265625 C 183.726562 80.078125 185.203125 76.832031 184.757812 73.996094 C 184.375 71.597656 182.6875 69.765625 179.867188 68.699219 C 178.761719 68.28125 177.734375 68.070312 176.820312 68.070312 C 172.324219 68.070312 170.3125 73.320312 168.324219 79.664062 L 167.421875 82.539062 L 145.261719 64.207031 L 146.371094 62.894531 C 146.839844 62.332031 147.699219 61.167969 148.695312 59.824219 C 155.679688 50.363281 160.074219 45.242188 163.300781 45.242188 C 163.660156 45.242188 164.003906 45.300781 164.328125 45.417969 C 166.238281 46.121094 167.175781 48.265625 168.082031 50.335938 C 168.738281 51.835938 169.480469 53.535156 170.382812 54.097656 C 171.71875 54.929688 173.066406 55.351562 174.386719 55.351562 C 175.4375 55.351562 176.511719 55.085938 177.574219 54.558594 C 180.371094 53.167969 181.878906 51.128906 181.933594 48.660156 C 182 45.632812 179.851562 42.386719 176.585938 40.582031 C 175.410156 39.929688 174.425781 39.511719 173.632812 39.175781 C 172.242188 38.585938 171.039062 38.078125 170.675781 36.757812 C 170.246094 35.203125 171.261719 33.816406 173.480469 30.777344 C 173.835938 30.285156 174.242188 29.714844 174.679688 29.09375 C 176.890625 25.964844 179.871094 21.746094 182.667969 19.789062 C 183.203125 18.585938 184.382812 16.433594 186.554688 16.433594 C 188.644531 16.433594 190.097656 18.558594 190.714844 19.558594 C 192.640625 21.179688 194.5625 22.800781 196.488281 24.421875 C 197.105469 24.941406 197.832031 25.652344 198.671875 26.480469 C 200.648438 28.429688 203.964844 31.691406 205.773438 31.804688 C 205.878906 31.8125 205.980469 31.816406 206.082031 31.816406 C 208.074219 31.816406 208.714844 30.476562 209.796875 27.183594 C 210.839844 24.015625 212.269531 19.675781 217.589844 19.675781 L 217.761719 19.675781 C 220.113281 19.71875 222.515625 20.960938 224.1875 23 C 225.757812 24.914062 226.433594 27.238281 226.050781 29.386719 C 225.394531 33.015625 222.761719 34.25 220.648438 35.242188 C 219.679688 35.695312 218.765625 36.125 218.054688 36.734375 C 216.808594 37.804688 216.21875 38.785156 216.25 39.734375 C 216.328125 42.015625 219.878906 44.671875 222.734375 46.804688 C 223.761719 47.570312 224.730469 48.296875 225.585938 49.019531 C 227.394531 50.535156 229.203125 52.058594 231.007812 53.585938 C 232.824219 54.492188 233.769531 55.632812 233.828125 56.984375 " fill-opacity="1" fill-rule="nonzero"/></g><path fill="#110f0d" d="M 166.742188 83.359375 C 166.941406 83.523438 167.179688 83.605469 167.421875 83.605469 C 167.726562 83.605469 168.03125 83.472656 168.242188 83.21875 C 168.617188 82.765625 168.550781 82.09375 168.097656 81.71875 L 148.34375 65.371094 C 147.890625 65 147.21875 65.0625 146.84375 65.515625 C 146.46875 65.96875 146.53125 66.636719 146.984375 67.015625 Z M 203.777344 180.757812 C 203.65625 180.800781 203.535156 180.820312 203.414062 180.820312 C 202.980469 180.820312 202.570312 180.550781 202.414062 180.117188 L 201.832031 178.511719 C 201.464844 177.488281 201.042969 175.972656 200.507812 174.050781 C 199.582031 170.726562 198.316406 166.171875 196.800781 162.5 C 194.621094 157.210938 193.21875 156.847656 193.203125 156.847656 C 193.1875 156.84375 193.171875 156.84375 193.15625 156.84375 C 192.21875 156.84375 190.097656 158.4375 188.695312 159.488281 C 186.175781 161.382812 183.570312 163.335938 180.675781 163.335938 C 178.53125 163.335938 175.585938 162.234375 173.730469 156.976562 C 172.566406 153.679688 172.636719 151.117188 173.945312 149.136719 C 175.96875 146.082031 180.027344 145.828125 183.605469 145.605469 C 185.203125 145.503906 188.167969 145.320312 188.65625 144.707031 C 190.355469 142.558594 187.664062 137.082031 185.503906 132.679688 C 183.957031 129.53125 182.492188 126.546875 181.933594 123.828125 L 181.21875 123.761719 C 178.390625 123.503906 174.621094 125.359375 170.625 127.324219 C 165.425781 129.878906 159.539062 132.769531 156.335938 130.234375 C 154.976562 129.160156 154.808594 126.484375 154.632812 123.652344 C 154.433594 120.414062 154.222656 117.070312 152.050781 115.632812 C 150.667969 114.714844 148.71875 114.722656 146.09375 115.648438 C 142.820312 116.808594 141.15625 118.46875 141.15625 120.585938 C 141.15625 122.769531 142.894531 125.082031 144.578125 127.324219 C 146.089844 129.335938 147.652344 131.417969 147.652344 133.066406 C 147.652344 133.226562 147.636719 133.382812 147.609375 133.527344 C 147.28125 135.183594 144.949219 136.917969 140.671875 138.679688 C 136.882812 140.242188 132.261719 141.53125 128.882812 142.46875 C 127.003906 142.992188 125.523438 143.40625 124.574219 143.746094 L 122.96875 144.324219 C 122.851562 144.371094 122.730469 144.390625 122.609375 144.390625 C 122.171875 144.390625 121.761719 144.121094 121.609375 143.683594 C 121.40625 143.132812 121.695312 142.523438 122.25 142.324219 L 123.851562 141.742188 C 124.875 141.375 126.390625 140.953125 128.3125 140.417969 C 131.636719 139.492188 136.191406 138.226562 139.859375 136.710938 C 145.15625 134.527344 145.515625 133.128906 145.519531 133.113281 C 145.519531 133.097656 145.519531 133.082031 145.519531 133.066406 C 145.519531 132.125 143.929688 130.007812 142.875 128.605469 C 140.984375 126.082031 139.027344 123.480469 139.027344 120.585938 C 139.027344 118.441406 140.128906 115.496094 145.386719 113.640625 C 148.683594 112.476562 151.25 112.546875 153.226562 113.855469 C 156.285156 115.878906 156.535156 119.9375 156.757812 123.515625 C 156.855469 125.113281 157.042969 128.078125 157.65625 128.566406 C 159.804688 130.265625 165.28125 127.574219 169.683594 125.414062 C 173.957031 123.3125 177.988281 121.328125 181.410156 121.640625 L 182.492188 121.738281 C 182.800781 121.765625 183.066406 121.925781 183.238281 122.15625 C 183.597656 122.277344 183.878906 122.585938 183.945312 122.984375 C 184.359375 125.523438 185.84375 128.542969 187.414062 131.738281 C 189.96875 136.9375 192.859375 142.828125 190.324219 146.027344 C 189.25 147.390625 186.574219 147.554688 183.746094 147.730469 C 180.503906 147.933594 177.160156 148.140625 175.722656 150.3125 C 174.808594 151.695312 174.8125 153.644531 175.742188 156.269531 C 176.898438 159.546875 178.558594 161.207031 180.675781 161.207031 C 182.859375 161.207031 185.171875 159.46875 187.414062 157.785156 C 189.425781 156.273438 191.507812 154.710938 193.15625 154.710938 C 193.316406 154.710938 193.472656 154.726562 193.621094 154.757812 C 195.277344 155.082031 197.007812 157.417969 198.773438 161.691406 C 200.332031 165.480469 201.621094 170.105469 202.5625 173.480469 C 203.082031 175.359375 203.496094 176.839844 203.839844 177.789062 L 204.417969 179.394531 C 204.617188 179.945312 204.328125 180.558594 203.777344 180.757812 " fill-opacity="1" fill-rule="nonzero"/><g fill="#397dc9" fill-opacity="1"><g transform="translate(56.431239, 247.603637)"><g><path d="M 43.609375 -19.5 C 43.972656 -15.15625 42.710938 -11.285156 39.828125 -7.890625 C 38.640625 -6.429688 37.472656 -5.40625 36.328125 -4.8125 C 27.210938 0.175781 18.535156 1.273438 10.296875 -1.515625 C 8.609375 -2.109375 6.894531 -3.132812 5.15625 -4.59375 C 3.644531 -5.832031 3.1875 -7.570312 3.78125 -9.8125 C 4.144531 -11.28125 4.347656 -12.816406 4.390625 -14.421875 C 4.441406 -17.253906 4.488281 -20.078125 4.53125 -22.890625 C 4.570312 -25.710938 4.617188 -28.519531 4.671875 -31.3125 C 4.710938 -33.550781 4.742188 -35.804688 4.765625 -38.078125 C 4.796875 -40.347656 4.832031 -42.601562 4.875 -44.84375 L 4.875 -45.125 C 4.914062 -45.625 4.878906 -46.160156 4.765625 -46.734375 C 4.648438 -47.304688 4.179688 -47.84375 3.359375 -48.34375 C 2.898438 -48.613281 2.628906 -49.003906 2.546875 -49.515625 C 2.492188 -50.109375 2.695312 -50.632812 3.15625 -51.09375 L 3.78125 -51.703125 C 4.550781 -52.441406 5.359375 -53.1875 6.203125 -53.9375 C 7.054688 -54.695312 7.941406 -55.191406 8.859375 -55.421875 C 14.171875 -56.796875 19.320312 -57.570312 24.3125 -57.75 C 24.582031 -57.800781 24.878906 -57.828125 25.203125 -57.828125 C 31.296875 -57.828125 35.625 -55.125 38.1875 -49.71875 C 40.519531 -44.863281 39.804688 -40.46875 36.046875 -36.53125 C 35.867188 -36.351562 35.664062 -36.171875 35.4375 -35.984375 C 35.207031 -35.796875 34.953125 -35.613281 34.671875 -35.4375 C 34.535156 -35.34375 34.398438 -35.238281 34.265625 -35.125 C 34.128906 -35.007812 33.992188 -34.90625 33.859375 -34.8125 L 33.03125 -34.203125 L 33.859375 -33.65625 C 34.128906 -33.425781 34.390625 -33.21875 34.640625 -33.03125 C 34.890625 -32.84375 35.128906 -32.660156 35.359375 -32.484375 C 35.816406 -32.117188 36.238281 -31.785156 36.625 -31.484375 C 37.019531 -31.191406 37.398438 -30.882812 37.765625 -30.5625 C 41.242188 -27.625 43.191406 -23.9375 43.609375 -19.5 Z M 14.625 -38.109375 L 14.625 -37.21875 L 15.515625 -37.421875 C 15.972656 -37.515625 16.394531 -37.617188 16.78125 -37.734375 C 17.175781 -37.847656 17.578125 -37.953125 17.984375 -38.046875 C 18.898438 -38.222656 19.789062 -38.425781 20.65625 -38.65625 C 21.53125 -38.882812 22.382812 -39.160156 23.21875 -39.484375 C 24.539062 -39.984375 25.5 -40.484375 26.09375 -40.984375 C 26.6875 -41.492188 27.144531 -41.929688 27.46875 -42.296875 L 27.8125 -42.78125 C 28.082031 -43.28125 28.34375 -43.847656 28.59375 -44.484375 C 28.851562 -45.128906 28.867188 -45.796875 28.640625 -46.484375 C 28.410156 -47.171875 27.882812 -47.722656 27.0625 -48.140625 C 26.1875 -48.546875 24.925781 -48.863281 23.28125 -49.09375 C 22.5 -49.144531 21.742188 -49.15625 21.015625 -49.125 C 20.285156 -49.101562 19.414062 -48.976562 18.40625 -48.75 C 17.394531 -48.519531 16.113281 -48.132812 14.5625 -47.59375 L 14.015625 -47.390625 L 14.015625 -46.828125 C 14.054688 -45.828125 14.109375 -44.992188 14.171875 -44.328125 C 14.242188 -43.660156 14.304688 -43.03125 14.359375 -42.4375 C 14.398438 -41.84375 14.441406 -41.222656 14.484375 -40.578125 C 14.535156 -39.941406 14.582031 -39.117188 14.625 -38.109375 Z M 33.09375 -17.984375 C 33.414062 -20.234375 32.570312 -22.296875 30.5625 -24.171875 C 29.28125 -25.410156 27.914062 -26.257812 26.46875 -26.71875 C 25.03125 -27.175781 23.578125 -27.40625 22.109375 -27.40625 C 20.648438 -27.40625 19.1875 -27.332031 17.71875 -27.1875 L 16.34375 -27.125 C 15.882812 -27.082031 15.515625 -26.785156 15.234375 -26.234375 C 14.960938 -25.679688 14.804688 -25.242188 14.765625 -24.921875 C 14.765625 -24.234375 14.765625 -23.535156 14.765625 -22.828125 C 14.765625 -22.117188 14.765625 -21.421875 14.765625 -20.734375 L 14.765625 -19.234375 L 14.828125 -18.46875 C 14.828125 -18.289062 14.828125 -18.128906 14.828125 -17.984375 C 14.828125 -17.847656 14.828125 -17.710938 14.828125 -17.578125 C 14.828125 -16.941406 14.828125 -16.3125 14.828125 -15.6875 C 14.828125 -15.070312 14.804688 -14.441406 14.765625 -13.796875 C 14.671875 -12.015625 15.539062 -11.03125 17.375 -10.84375 C 17.96875 -10.800781 18.539062 -10.78125 19.09375 -10.78125 C 22.519531 -10.78125 25.953125 -11.628906 29.390625 -13.328125 C 31.546875 -14.378906 32.78125 -15.929688 33.09375 -17.984375 Z M 33.09375 -17.984375 "/></g></g></g><g fill="#397dc9" fill-opacity="1"><g transform="translate(102.649777, 247.603637)"><g><path d="M 31.3125 -34.546875 C 32.59375 -33.953125 33.492188 -32.988281 34.015625 -31.65625 C 34.546875 -30.332031 34.515625 -28.800781 33.921875 -27.0625 C 33.191406 -24.8125 32.398438 -22.578125 31.546875 -20.359375 C 30.703125 -18.140625 29.753906 -15.953125 28.703125 -13.796875 C 26.460938 -9.128906 24.148438 -4.5 21.765625 0.09375 C 19.390625 4.695312 17.007812 9.289062 14.625 13.875 C 14.257812 14.5625 13.847656 15.25 13.390625 15.9375 C 12.929688 16.625 12.382812 17.125 11.75 17.4375 C 10.1875 18.257812 8.515625 18.488281 6.734375 18.125 C 5.816406 17.945312 5.101562 17.457031 4.59375 16.65625 C 4.09375 15.851562 3.867188 14.972656 3.921875 14.015625 C 3.921875 13.179688 3.988281 12.351562 4.125 11.53125 C 4.257812 10.707031 4.460938 9.929688 4.734375 9.203125 C 5.472656 7.367188 6.226562 5.535156 7 3.703125 C 7.78125 1.878906 8.609375 0.0703125 9.484375 -1.71875 C 9.753906 -2.40625 9.898438 -3.019531 9.921875 -3.5625 C 9.941406 -4.113281 9.796875 -4.734375 9.484375 -5.421875 C 8.421875 -7.804688 7.363281 -10.195312 6.3125 -12.59375 C 5.257812 -15 4.320312 -17.414062 3.5 -19.84375 C 3.039062 -21.21875 2.785156 -22.632812 2.734375 -24.09375 C 2.691406 -25.5625 2.628906 -27.007812 2.546875 -28.4375 C 2.492188 -29.300781 2.628906 -30.097656 2.953125 -30.828125 C 3.273438 -31.566406 3.914062 -32.070312 4.875 -32.34375 C 5.925781 -32.613281 6.75 -32.460938 7.34375 -31.890625 C 7.9375 -31.328125 8.421875 -30.628906 8.796875 -29.796875 C 9.566406 -28.148438 10.316406 -26.488281 11.046875 -24.8125 C 11.785156 -23.144531 12.546875 -21.46875 13.328125 -19.78125 C 13.554688 -19.320312 13.816406 -18.851562 14.109375 -18.375 C 14.410156 -17.894531 14.742188 -17.3125 15.109375 -16.625 C 15.609375 -17.53125 16.0625 -18.347656 16.46875 -19.078125 C 16.882812 -19.816406 17.300781 -20.53125 17.71875 -21.21875 C 18.769531 -22.957031 19.8125 -24.695312 20.84375 -26.4375 C 21.875 -28.175781 22.9375 -29.894531 24.03125 -31.59375 C 25.039062 -33.144531 26.1875 -34.171875 27.46875 -34.671875 C 28.75 -35.179688 30.03125 -35.140625 31.3125 -34.546875 Z M 31.3125 -34.546875 "/></g></g></g><g fill="#397dc9" fill-opacity="1"><g transform="translate(139.597142, 247.603637)"><g><path d="M 28.703125 -11.953125 C 29.066406 -10.898438 29.085938 -9.9375 28.765625 -9.0625 C 28.453125 -8.195312 27.90625 -7.394531 27.125 -6.65625 C 25.976562 -5.601562 24.535156 -4.894531 22.796875 -4.53125 C 21.054688 -4.164062 19.269531 -4.128906 17.4375 -4.421875 C 15.613281 -4.722656 14.035156 -5.398438 12.703125 -6.453125 C 9.492188 -8.878906 7.6875 -12.109375 7.28125 -16.140625 C 7.09375 -17.515625 6.976562 -18.910156 6.9375 -20.328125 C 6.894531 -21.742188 6.847656 -23.140625 6.796875 -24.515625 C 6.796875 -25.203125 6.691406 -25.757812 6.484375 -26.1875 C 6.285156 -26.625 5.863281 -26.957031 5.21875 -27.1875 C 4.300781 -27.5625 3.578125 -28.085938 3.046875 -28.765625 C 2.523438 -29.453125 2.398438 -30.253906 2.671875 -31.171875 C 2.898438 -31.859375 3.300781 -32.535156 3.875 -33.203125 C 4.445312 -33.867188 5.054688 -34.316406 5.703125 -34.546875 C 6.523438 -34.910156 7.148438 -35.320312 7.578125 -35.78125 C 8.015625 -36.238281 8.257812 -36.925781 8.3125 -37.84375 C 8.351562 -38.664062 8.453125 -39.476562 8.609375 -40.28125 C 8.773438 -41.082031 8.925781 -41.894531 9.0625 -42.71875 C 9.5625 -45.507812 10.773438 -46.878906 12.703125 -46.828125 C 14.671875 -46.785156 15.863281 -45.367188 16.28125 -42.578125 C 16.414062 -41.617188 16.492188 -40.644531 16.515625 -39.65625 C 16.535156 -38.675781 16.546875 -37.703125 16.546875 -36.734375 C 16.546875 -35.453125 17.1875 -34.789062 18.46875 -34.75 C 19.289062 -34.695312 20.113281 -34.632812 20.9375 -34.5625 C 21.769531 -34.5 22.570312 -34.378906 23.34375 -34.203125 C 24.625 -33.878906 25.609375 -33.222656 26.296875 -32.234375 C 26.984375 -31.253906 27.28125 -30.191406 27.1875 -29.046875 C 27.101562 -27.859375 26.625 -26.835938 25.75 -25.984375 C 24.882812 -25.140625 23.8125 -24.671875 22.53125 -24.578125 C 21.613281 -24.492188 20.660156 -24.460938 19.671875 -24.484375 C 18.691406 -24.503906 17.5625 -24.515625 16.28125 -24.515625 C 16.457031 -23.140625 16.613281 -21.753906 16.75 -20.359375 C 16.894531 -18.960938 17.082031 -17.578125 17.3125 -16.203125 C 17.488281 -15.378906 17.882812 -14.785156 18.5 -14.421875 C 19.125 -14.054688 19.847656 -13.921875 20.671875 -14.015625 C 21.222656 -14.097656 21.757812 -14.195312 22.28125 -14.3125 C 22.8125 -14.425781 23.347656 -14.507812 23.890625 -14.5625 C 24.953125 -14.65625 25.90625 -14.503906 26.75 -14.109375 C 27.59375 -13.722656 28.242188 -13.003906 28.703125 -11.953125 Z M 28.703125 -11.953125 "/></g></g></g><g fill="#397dc9" fill-opacity="1"><g transform="translate(171.187825, 247.603637)"><g><path d="M 29.59375 -33.234375 C 31.332031 -31.453125 32.335938 -29.519531 32.609375 -27.4375 C 32.890625 -25.351562 32.476562 -23.425781 31.375 -21.65625 C 30.28125 -19.894531 28.566406 -18.601562 26.234375 -17.78125 C 24.359375 -17.144531 22.398438 -16.695312 20.359375 -16.4375 C 18.328125 -16.1875 16.234375 -15.859375 14.078125 -15.453125 C 14.722656 -15.265625 15.34375 -15.066406 15.9375 -14.859375 C 16.53125 -14.660156 17.125 -14.515625 17.71875 -14.421875 C 18.90625 -14.191406 20.101562 -14.019531 21.3125 -13.90625 C 22.53125 -13.789062 23.710938 -13.550781 24.859375 -13.1875 C 26.503906 -12.632812 27.5 -11.707031 27.84375 -10.40625 C 28.1875 -9.101562 27.738281 -7.832031 26.5 -6.59375 C 25.863281 -5.90625 25.0625 -5.296875 24.09375 -4.765625 C 23.132812 -4.242188 22.195312 -3.9375 21.28125 -3.84375 C 17.070312 -3.4375 13.523438 -3.972656 10.640625 -5.453125 C 7.753906 -6.941406 5.625 -9.0625 4.25 -11.8125 C 2.882812 -14.5625 2.335938 -17.628906 2.609375 -21.015625 C 2.796875 -23.117188 3.160156 -25.144531 3.703125 -27.09375 C 4.253906 -29.039062 5.125 -30.90625 6.3125 -32.6875 C 7.820312 -35.019531 9.765625 -36.703125 12.140625 -37.734375 C 14.523438 -38.765625 17.09375 -39.003906 19.84375 -38.453125 C 23.738281 -37.765625 26.988281 -36.023438 29.59375 -33.234375 Z M 23.546875 -26.640625 C 23.640625 -26.640625 23.742188 -26.671875 23.859375 -26.734375 C 23.972656 -26.804688 24.125 -26.890625 24.3125 -26.984375 C 23.4375 -28.222656 22.347656 -29.101562 21.046875 -29.625 C 19.742188 -30.15625 18.519531 -30.257812 17.375 -29.9375 C 16.320312 -29.613281 15.539062 -29.070312 15.03125 -28.3125 C 14.53125 -27.5625 14.144531 -26.660156 13.875 -25.609375 C 15.5625 -25.796875 17.207031 -25.96875 18.8125 -26.125 C 20.414062 -26.289062 21.992188 -26.460938 23.546875 -26.640625 Z M 23.546875 -26.640625 "/></g></g></g><g fill="#110f0d" fill-opacity="1"><g transform="translate(102.308369, 330.463123)"><g><path d="M 13.3125 -15.765625 L 13.265625 -15.515625 C 13.242188 -15.453125 13.195312 -15.375 13.125 -15.28125 C 13.0625 -15.195312 13.003906 -15.140625 12.953125 -15.109375 C 12.378906 -14.898438 11.75 -14.488281 11.0625 -13.875 C 10.382812 -13.257812 9.710938 -12.617188 9.046875 -11.953125 C 8.722656 -11.640625 8.40625 -11.332031 8.09375 -11.03125 C 7.78125 -10.726562 7.460938 -10.4375 7.140625 -10.15625 C 7.273438 -9.550781 7.441406 -9.003906 7.640625 -8.515625 C 7.847656 -8.035156 8.070312 -7.59375 8.3125 -7.1875 C 8.613281 -6.675781 8.90625 -6.085938 9.1875 -5.421875 C 9.46875 -4.765625 9.707031 -4.101562 9.90625 -3.4375 C 10.113281 -2.78125 10.269531 -2.1875 10.375 -1.65625 C 10.476562 -1.132812 10.503906 -0.75 10.453125 -0.5 C 10.390625 -0.175781 10.289062 0.0078125 10.15625 0.0625 C 10.019531 0.113281 9.816406 0.140625 9.546875 0.140625 C 9.347656 0.140625 9.179688 0.0703125 9.046875 -0.0625 C 9.046875 -0.0820312 9.035156 -0.101562 9.015625 -0.125 C 8.992188 -0.144531 8.976562 -0.164062 8.96875 -0.1875 C 8.769531 -0.644531 8.578125 -1.15625 8.390625 -1.71875 C 8.210938 -2.28125 8.035156 -2.894531 7.859375 -3.5625 C 7.734375 -3.988281 7.566406 -4.410156 7.359375 -4.828125 C 7.148438 -5.253906 6.945312 -5.671875 6.75 -6.078125 C 6.539062 -6.492188 6.316406 -6.945312 6.078125 -7.4375 C 5.835938 -7.925781 5.628906 -8.4375 5.453125 -8.96875 L 5.046875 -8.640625 L 4.9375 -8.5625 C 4.875 -8.332031 4.816406 -8.125 4.765625 -7.9375 C 4.710938 -7.75 4.660156 -7.570312 4.609375 -7.40625 C 4.535156 -7.175781 4.46875 -6.96875 4.40625 -6.78125 C 4.351562 -6.59375 4.300781 -6.40625 4.25 -6.21875 L 4.171875 -5.78125 C 4.117188 -5.5625 4.082031 -5.367188 4.0625 -5.203125 C 4.039062 -5.035156 4.015625 -4.851562 3.984375 -4.65625 C 3.941406 -4.4375 3.894531 -4.1875 3.84375 -3.90625 C 3.800781 -3.625 3.726562 -3.269531 3.625 -2.84375 C 3.613281 -2.78125 3.601562 -2.695312 3.59375 -2.59375 C 3.582031 -2.488281 3.570312 -2.375 3.5625 -2.25 C 3.539062 -1.894531 3.457031 -1.382812 3.3125 -0.71875 C 3.238281 -0.363281 2.984375 -0.125 2.546875 0 C 2.378906 -0.0078125 2.179688 -0.0546875 1.953125 -0.140625 C 1.734375 -0.222656 1.585938 -0.363281 1.515625 -0.5625 C 1.628906 -1 1.707031 -1.367188 1.75 -1.671875 C 1.84375 -2.023438 1.894531 -2.359375 1.90625 -2.671875 C 1.9375 -2.921875 1.972656 -3.210938 2.015625 -3.546875 C 2.066406 -3.878906 2.140625 -4.328125 2.234375 -4.890625 C 2.335938 -5.453125 2.484375 -6.1875 2.671875 -7.09375 C 2.691406 -7.1875 2.71875 -7.300781 2.75 -7.4375 C 2.789062 -7.582031 2.832031 -7.726562 2.875 -7.875 C 2.925781 -8.03125 2.972656 -8.175781 3.015625 -8.3125 C 3.054688 -8.445312 3.085938 -8.554688 3.109375 -8.640625 L 3.625 -11.25 C 3.632812 -11.28125 3.632812 -11.316406 3.625 -11.359375 C 3.625 -11.398438 3.628906 -11.441406 3.640625 -11.484375 L 3.6875 -11.734375 C 3.738281 -11.898438 3.785156 -12.066406 3.828125 -12.234375 C 3.867188 -12.410156 3.90625 -12.582031 3.9375 -12.75 C 3.976562 -12.925781 4.019531 -13.101562 4.0625 -13.28125 C 4.113281 -13.457031 4.15625 -13.644531 4.1875 -13.84375 C 4.289062 -14.28125 4.378906 -14.707031 4.453125 -15.125 C 4.535156 -15.550781 4.585938 -15.953125 4.609375 -16.328125 C 4.640625 -16.515625 4.773438 -16.660156 5.015625 -16.765625 C 5.253906 -16.878906 5.4375 -16.9375 5.5625 -16.9375 C 6.039062 -16.9375 6.273438 -16.71875 6.265625 -16.28125 L 5.828125 -13.9375 C 5.816406 -13.8125 5.796875 -13.6875 5.765625 -13.5625 C 5.742188 -13.4375 5.722656 -13.3125 5.703125 -13.1875 C 5.609375 -12.695312 5.519531 -12.273438 5.4375 -11.921875 C 5.351562 -11.566406 5.28125 -11.164062 5.21875 -10.71875 C 5.75 -11.132812 6.304688 -11.59375 6.890625 -12.09375 C 7.472656 -12.601562 8.035156 -13.113281 8.578125 -13.625 L 9.921875 -14.859375 L 10.984375 -15.8125 C 11.242188 -16.050781 11.53125 -16.242188 11.84375 -16.390625 C 12.15625 -16.535156 12.5 -16.609375 12.875 -16.609375 C 13.269531 -16.460938 13.414062 -16.179688 13.3125 -15.765625 Z M 13.3125 -15.765625 "/></g></g></g><g fill="#110f0d" fill-opacity="1"><g transform="translate(113.833284, 330.463123)"><g><path d="M 5.0625 -12.828125 C 4.894531 -12.828125 4.722656 -12.851562 4.546875 -12.90625 C 4.367188 -12.957031 4.238281 -13.101562 4.15625 -13.34375 C 4.070312 -13.59375 4.085938 -13.984375 4.203125 -14.515625 C 4.265625 -14.773438 4.34375 -15.039062 4.4375 -15.3125 C 4.53125 -15.582031 4.644531 -15.8125 4.78125 -16 C 4.925781 -16.1875 5.097656 -16.28125 5.296875 -16.28125 C 5.546875 -16.28125 5.742188 -16.171875 5.890625 -15.953125 C 6.046875 -15.742188 6.125 -15.492188 6.125 -15.203125 C 6.125 -15.078125 6.113281 -14.894531 6.09375 -14.65625 C 6.082031 -14.425781 6.046875 -14.1875 5.984375 -13.9375 C 5.929688 -13.625 5.832031 -13.359375 5.6875 -13.140625 C 5.539062 -12.929688 5.332031 -12.828125 5.0625 -12.828125 Z M 2.3125 -4.859375 C 2.394531 -5.203125 2.472656 -5.601562 2.546875 -6.0625 C 2.628906 -6.519531 2.726562 -7 2.84375 -7.5 C 2.925781 -7.914062 3.015625 -8.367188 3.109375 -8.859375 C 3.210938 -9.359375 3.304688 -9.804688 3.390625 -10.203125 C 3.484375 -10.609375 3.539062 -10.863281 3.5625 -10.96875 C 3.632812 -11.3125 3.78125 -11.585938 4 -11.796875 C 4.226562 -12.003906 4.484375 -12.109375 4.765625 -12.109375 C 4.898438 -12.109375 5.054688 -12.046875 5.234375 -11.921875 C 5.421875 -11.804688 5.476562 -11.578125 5.40625 -11.234375 C 5.34375 -10.992188 5.28125 -10.75 5.21875 -10.5 C 5.164062 -10.25 5.113281 -10.003906 5.0625 -9.765625 L 4.375 -6.53125 C 4.175781 -5.613281 4.019531 -4.867188 3.90625 -4.296875 C 3.789062 -3.722656 3.695312 -3.222656 3.625 -2.796875 C 3.582031 -2.554688 3.523438 -2.265625 3.453125 -1.921875 C 3.390625 -1.585938 3.328125 -1.289062 3.265625 -1.03125 C 3.203125 -0.6875 3.054688 -0.410156 2.828125 -0.203125 C 2.609375 0.00390625 2.347656 0.109375 2.046875 0.109375 C 1.898438 0.109375 1.742188 0.0546875 1.578125 -0.046875 C 1.421875 -0.160156 1.367188 -0.382812 1.421875 -0.71875 Z M 2.3125 -4.859375 "/></g></g></g><g fill="#110f0d" fill-opacity="1"><g transform="translate(119.10067, 330.463123)"><g><path d="M 9.59375 -16.390625 C 10.03125 -16.390625 10.304688 -16.175781 10.421875 -15.75 C 10.546875 -15.320312 10.523438 -14.738281 10.359375 -14 C 10.328125 -13.851562 10.300781 -13.742188 10.28125 -13.671875 C 10.257812 -13.609375 10.234375 -13.546875 10.203125 -13.484375 C 10.179688 -13.441406 10.164062 -13.394531 10.15625 -13.34375 C 10.15625 -13.300781 10.140625 -13.226562 10.109375 -13.125 C 10.078125 -12.976562 10.046875 -12.78125 10.015625 -12.53125 C 9.984375 -12.28125 9.929688 -11.914062 9.859375 -11.4375 C 9.847656 -11.394531 9.84375 -11.347656 9.84375 -11.296875 C 9.84375 -11.242188 9.832031 -11.1875 9.8125 -11.125 L 9.796875 -11.015625 L 8.765625 -4.765625 C 8.703125 -4.515625 8.625 -4.175781 8.53125 -3.75 C 8.4375 -3.332031 8.300781 -2.890625 8.125 -2.421875 C 7.957031 -1.960938 7.734375 -1.519531 7.453125 -1.09375 C 7.179688 -0.675781 6.835938 -0.332031 6.421875 -0.0625 C 6.015625 0.207031 5.523438 0.347656 4.953125 0.359375 L 4.59375 0.359375 C 3.71875 0.359375 3.023438 0.179688 2.515625 -0.171875 C 2.003906 -0.535156 1.691406 -0.953125 1.578125 -1.421875 C 1.535156 -1.671875 1.539062 -2.054688 1.59375 -2.578125 C 1.644531 -3.097656 1.722656 -3.65625 1.828125 -4.25 C 1.929688 -4.84375 2.023438 -5.367188 2.109375 -5.828125 L 2.25 -6.5 C 2.269531 -6.5625 2.285156 -6.617188 2.296875 -6.671875 C 2.304688 -6.722656 2.320312 -6.78125 2.34375 -6.84375 L 2.484375 -7.40625 C 2.554688 -7.78125 2.632812 -8.144531 2.71875 -8.5 C 2.8125 -8.851562 2.90625 -9.164062 3 -9.4375 C 3.175781 -9.945312 3.472656 -10.375 3.890625 -10.71875 C 4.316406 -11.0625 4.796875 -11.316406 5.328125 -11.484375 C 5.859375 -11.660156 6.363281 -11.75 6.84375 -11.75 L 7.140625 -11.75 C 7.492188 -11.75 7.832031 -11.707031 8.15625 -11.625 C 8.3125 -12.375 8.4375 -13.015625 8.53125 -13.546875 C 8.625 -14.085938 8.671875 -14.660156 8.671875 -15.265625 L 8.6875 -15.453125 C 8.738281 -15.609375 8.800781 -15.769531 8.875 -15.9375 C 8.957031 -16.101562 9.0625 -16.21875 9.1875 -16.28125 C 9.320312 -16.351562 9.457031 -16.390625 9.59375 -16.390625 Z M 6.875 -4.1875 C 6.925781 -4.425781 6.992188 -4.773438 7.078125 -5.234375 C 7.160156 -5.691406 7.25 -6.1875 7.34375 -6.71875 C 7.445312 -7.25 7.523438 -7.753906 7.578125 -8.234375 C 7.640625 -8.722656 7.675781 -9.117188 7.6875 -9.421875 C 7.695312 -9.734375 7.664062 -9.890625 7.59375 -9.890625 C 7.5 -9.890625 7.316406 -9.941406 7.046875 -10.046875 C 7.035156 -10.054688 7.003906 -10.066406 6.953125 -10.078125 C 6.898438 -10.097656 6.828125 -10.109375 6.734375 -10.109375 C 6.628906 -10.109375 6.523438 -10.097656 6.421875 -10.078125 C 6.328125 -10.054688 6.210938 -10.03125 6.078125 -10 L 5.90625 -9.953125 L 5.96875 -9.953125 C 5.707031 -9.878906 5.488281 -9.804688 5.3125 -9.734375 C 5.132812 -9.671875 5.007812 -9.601562 4.9375 -9.53125 C 4.71875 -9.238281 4.546875 -8.875 4.421875 -8.4375 C 4.304688 -8.007812 4.210938 -7.613281 4.140625 -7.25 L 3.375 -3.609375 L 3.359375 -3.078125 C 3.296875 -1.867188 3.789062 -1.265625 4.84375 -1.265625 C 5.007812 -1.265625 5.164062 -1.28125 5.3125 -1.3125 C 5.726562 -1.488281 6.082031 -1.9375 6.375 -2.65625 C 6.582031 -3.15625 6.75 -3.664062 6.875 -4.1875 Z M 6.875 -4.1875 "/></g></g></g><g fill="#110f0d" fill-opacity="1"><g transform="translate(128.712308, 330.463123)"><g><path d="M 6.5 -8.328125 L 6.46875 -8.390625 C 6.34375 -8.554688 6.300781 -8.785156 6.34375 -9.078125 L 6.421875 -9.359375 L 6.484375 -9.53125 C 6.523438 -9.738281 6.472656 -9.9375 6.328125 -10.125 C 6.179688 -10.3125 5.976562 -10.40625 5.71875 -10.40625 C 5.539062 -10.40625 5.328125 -10.375 5.078125 -10.3125 C 4.828125 -10.25 4.597656 -10.148438 4.390625 -10.015625 C 4.191406 -9.878906 4.0625 -9.691406 4 -9.453125 C 3.945312 -9.128906 4 -8.765625 4.15625 -8.359375 C 4.320312 -7.960938 4.550781 -7.578125 4.84375 -7.203125 C 5.144531 -6.828125 5.429688 -6.5 5.703125 -6.21875 C 5.941406 -5.945312 6.175781 -5.660156 6.40625 -5.359375 C 6.632812 -5.054688 6.804688 -4.710938 6.921875 -4.328125 C 7.035156 -3.953125 7.03125 -3.5 6.90625 -2.96875 C 6.789062 -2.425781 6.601562 -1.90625 6.34375 -1.40625 C 6.09375 -0.914062 5.738281 -0.507812 5.28125 -0.1875 C 4.832031 0.132812 4.265625 0.296875 3.578125 0.296875 C 2.960938 0.296875 2.429688 0.160156 1.984375 -0.109375 C 1.535156 -0.378906 1.210938 -0.753906 1.015625 -1.234375 C 0.816406 -1.710938 0.785156 -2.253906 0.921875 -2.859375 C 0.953125 -3.023438 1.015625 -3.21875 1.109375 -3.4375 C 1.210938 -3.65625 1.347656 -3.847656 1.515625 -4.015625 C 1.691406 -4.191406 1.898438 -4.28125 2.140625 -4.28125 C 2.410156 -4.28125 2.601562 -4.179688 2.71875 -3.984375 C 2.84375 -3.785156 2.875 -3.5625 2.8125 -3.3125 C 2.8125 -3.289062 2.800781 -3.273438 2.78125 -3.265625 C 2.769531 -3.253906 2.765625 -3.234375 2.765625 -3.203125 L 2.703125 -2.859375 C 2.609375 -2.441406 2.644531 -2.082031 2.8125 -1.78125 C 2.988281 -1.488281 3.296875 -1.34375 3.734375 -1.34375 C 4.035156 -1.34375 4.320312 -1.46875 4.59375 -1.71875 C 4.875 -1.96875 5.066406 -2.257812 5.171875 -2.59375 L 5.171875 -2.5625 C 5.296875 -3.132812 5.195312 -3.648438 4.875 -4.109375 C 4.5625 -4.566406 4.210938 -5.019531 3.828125 -5.46875 C 3.628906 -5.726562 3.429688 -5.972656 3.234375 -6.203125 C 3.046875 -6.429688 2.890625 -6.679688 2.765625 -6.953125 C 2.703125 -7.148438 2.648438 -7.304688 2.609375 -7.421875 C 2.566406 -7.546875 2.515625 -7.671875 2.453125 -7.796875 L 2.453125 -7.765625 C 2.347656 -8.003906 2.257812 -8.234375 2.1875 -8.453125 C 2.125 -8.679688 2.140625 -9 2.234375 -9.40625 C 2.273438 -9.664062 2.378906 -9.984375 2.546875 -10.359375 C 2.722656 -10.742188 3.019531 -11.066406 3.4375 -11.328125 C 3.8125 -11.535156 4.210938 -11.707031 4.640625 -11.84375 C 5.078125 -11.988281 5.488281 -12.0625 5.875 -12.0625 C 6.375 -12.0625 6.8125 -11.972656 7.1875 -11.796875 C 7.5625 -11.628906 7.820312 -11.328125 7.96875 -10.890625 L 7.953125 -10.890625 C 8.035156 -10.671875 8.101562 -10.414062 8.15625 -10.125 C 8.207031 -9.84375 8.195312 -9.566406 8.125 -9.296875 C 8.082031 -9.054688 7.96875 -8.789062 7.78125 -8.5 C 7.59375 -8.207031 7.347656 -8.0625 7.046875 -8.0625 C 6.953125 -8.0625 6.863281 -8.085938 6.78125 -8.140625 C 6.707031 -8.191406 6.613281 -8.253906 6.5 -8.328125 Z M 6.5 -8.328125 "/></g></g></g><g fill="#110f0d" fill-opacity="1"><g transform="translate(136.275626, 330.463123)"><g/></g></g><g fill="#110f0d" fill-opacity="1"><g transform="translate(143.321229, 330.463123)"><g><path d="M 10.328125 -11.890625 L 9.953125 -11.75 L 9.890625 -11.75 C 9.566406 -11.75 9.363281 -11.851562 9.28125 -12.0625 C 9.195312 -12.28125 9.128906 -12.617188 9.078125 -13.078125 L 9.078125 -13.0625 C 9.015625 -13.34375 8.941406 -13.617188 8.859375 -13.890625 C 8.773438 -14.160156 8.628906 -14.378906 8.421875 -14.546875 C 8.210938 -14.722656 7.890625 -14.8125 7.453125 -14.8125 C 7.273438 -14.8125 7.046875 -14.757812 6.765625 -14.65625 C 6.484375 -14.5625 6.222656 -14.429688 5.984375 -14.265625 C 5.742188 -14.109375 5.566406 -13.910156 5.453125 -13.671875 L 5.453125 -13.71875 L 5.25 -13.109375 C 5.1875 -12.910156 5.128906 -12.707031 5.078125 -12.5 C 5.035156 -12.289062 4.992188 -12.101562 4.953125 -11.9375 C 4.890625 -11.59375 4.816406 -11.238281 4.734375 -10.875 C 4.648438 -10.507812 4.566406 -10.148438 4.484375 -9.796875 C 4.390625 -9.429688 4.300781 -9.066406 4.21875 -8.703125 C 4.132812 -8.347656 4.054688 -7.988281 3.984375 -7.625 C 3.710938 -6.425781 3.507812 -5.21875 3.375 -4 L 3.328125 -3.890625 C 3.328125 -3.878906 3.332031 -3.875 3.34375 -3.875 C 3.351562 -3.875 3.359375 -3.863281 3.359375 -3.84375 C 3.296875 -3.125 3.335938 -2.554688 3.484375 -2.140625 C 3.640625 -1.722656 4.015625 -1.515625 4.609375 -1.515625 C 4.960938 -1.515625 5.359375 -1.59375 5.796875 -1.75 C 6.242188 -1.90625 6.601562 -2.125 6.875 -2.40625 C 6.914062 -2.476562 6.957031 -2.570312 7 -2.6875 C 7.039062 -2.800781 7.078125 -2.910156 7.109375 -3.015625 C 7.203125 -3.316406 7.316406 -3.601562 7.453125 -3.875 C 7.585938 -4.15625 7.804688 -4.3125 8.109375 -4.34375 C 8.429688 -4.34375 8.648438 -4.28125 8.765625 -4.15625 C 8.878906 -4.03125 8.925781 -3.863281 8.90625 -3.65625 C 8.894531 -3.457031 8.867188 -3.253906 8.828125 -3.046875 C 8.628906 -2.078125 8.113281 -1.285156 7.28125 -0.671875 C 6.445312 -0.0546875 5.453125 0.25 4.296875 0.25 C 3.171875 0.25 2.382812 -0.164062 1.9375 -1 C 1.488281 -1.832031 1.398438 -2.890625 1.671875 -4.171875 C 1.742188 -4.523438 1.816406 -4.878906 1.890625 -5.234375 C 1.960938 -5.597656 2.023438 -5.96875 2.078125 -6.34375 L 2.609375 -9.328125 C 2.609375 -9.410156 2.625 -9.523438 2.65625 -9.671875 C 2.6875 -9.816406 2.707031 -9.941406 2.71875 -10.046875 C 2.8125 -10.429688 2.914062 -10.832031 3.03125 -11.25 C 3.144531 -11.675781 3.253906 -12.078125 3.359375 -12.453125 L 3.625 -13.359375 C 3.894531 -14.222656 4.351562 -14.941406 5 -15.515625 C 5.644531 -16.097656 6.492188 -16.4375 7.546875 -16.53125 L 7.859375 -16.53125 C 8.109375 -16.53125 8.34375 -16.515625 8.5625 -16.484375 C 8.78125 -16.453125 9.035156 -16.375 9.328125 -16.25 C 9.648438 -16.101562 9.945312 -15.84375 10.21875 -15.46875 C 10.488281 -15.09375 10.695312 -14.675781 10.84375 -14.21875 C 10.988281 -13.757812 11.015625 -13.335938 10.921875 -12.953125 C 10.847656 -12.597656 10.648438 -12.242188 10.328125 -11.890625 Z M 10.328125 -11.890625 "/></g></g></g><g fill="#110f0d" fill-opacity="1"><g transform="translate(153.383054, 330.463123)"><g><path d="M 8.125 -11.984375 C 8.976562 -11.984375 9.679688 -11.753906 10.234375 -11.296875 C 10.796875 -10.835938 11.21875 -10.257812 11.5 -9.5625 C 11.789062 -8.863281 11.953125 -8.140625 11.984375 -7.390625 L 12 -7.390625 C 12.0625 -6.910156 12.003906 -6.269531 11.828125 -5.46875 C 11.691406 -4.789062 11.476562 -4.109375 11.1875 -3.421875 C 10.90625 -2.742188 10.53125 -2.125 10.0625 -1.5625 C 9.59375 -1 9.015625 -0.546875 8.328125 -0.203125 C 7.648438 0.128906 6.84375 0.296875 5.90625 0.296875 L 5.5 0.296875 C 3.914062 0.0234375 2.804688 -0.582031 2.171875 -1.53125 C 1.535156 -2.488281 1.335938 -3.851562 1.578125 -5.625 L 1.71875 -6.265625 C 1.832031 -6.847656 2.09375 -7.46875 2.5 -8.125 C 2.90625 -8.789062 3.40625 -9.414062 4 -10 C 4.601562 -10.582031 5.257812 -11.054688 5.96875 -11.421875 C 6.675781 -11.796875 7.394531 -11.984375 8.125 -11.984375 Z M 8.078125 -1.953125 C 8.578125 -2.328125 8.976562 -2.804688 9.28125 -3.390625 C 9.59375 -3.984375 9.851562 -4.65625 10.0625 -5.40625 L 10.109375 -5.671875 C 10.234375 -6.242188 10.265625 -6.816406 10.203125 -7.390625 C 10.148438 -7.972656 10.003906 -8.5 9.765625 -8.96875 L 9.25 -9.59375 C 8.832031 -10.0625 8.335938 -10.296875 7.765625 -10.296875 C 7.171875 -10.296875 6.5625 -10.082031 5.9375 -9.65625 C 5.320312 -9.238281 4.742188 -8.660156 4.203125 -7.921875 L 4.234375 -7.953125 C 3.960938 -7.578125 3.75 -7.1875 3.59375 -6.78125 C 3.445312 -6.375 3.332031 -5.972656 3.25 -5.578125 C 3.050781 -4.617188 3.148438 -3.757812 3.546875 -3 C 3.941406 -2.25 4.703125 -1.765625 5.828125 -1.546875 L 5.8125 -1.546875 C 5.882812 -1.535156 5.953125 -1.53125 6.015625 -1.53125 C 6.085938 -1.53125 6.15625 -1.53125 6.21875 -1.53125 C 6.625 -1.53125 6.988281 -1.5625 7.3125 -1.625 C 7.632812 -1.6875 7.890625 -1.796875 8.078125 -1.953125 Z M 8.078125 -1.953125 "/></g></g></g><g fill="#110f0d" fill-opacity="1"><g transform="translate(165.425671, 330.463123)"><g><path d="M 9.59375 -16.390625 C 10.03125 -16.390625 10.304688 -16.175781 10.421875 -15.75 C 10.546875 -15.320312 10.523438 -14.738281 10.359375 -14 C 10.328125 -13.851562 10.300781 -13.742188 10.28125 -13.671875 C 10.257812 -13.609375 10.234375 -13.546875 10.203125 -13.484375 C 10.179688 -13.441406 10.164062 -13.394531 10.15625 -13.34375 C 10.15625 -13.300781 10.140625 -13.226562 10.109375 -13.125 C 10.078125 -12.976562 10.046875 -12.78125 10.015625 -12.53125 C 9.984375 -12.28125 9.929688 -11.914062 9.859375 -11.4375 C 9.847656 -11.394531 9.84375 -11.347656 9.84375 -11.296875 C 9.84375 -11.242188 9.832031 -11.1875 9.8125 -11.125 L 9.796875 -11.015625 L 8.765625 -4.765625 C 8.703125 -4.515625 8.625 -4.175781 8.53125 -3.75 C 8.4375 -3.332031 8.300781 -2.890625 8.125 -2.421875 C 7.957031 -1.960938 7.734375 -1.519531 7.453125 -1.09375 C 7.179688 -0.675781 6.835938 -0.332031 6.421875 -0.0625 C 6.015625 0.207031 5.523438 0.347656 4.953125 0.359375 L 4.59375 0.359375 C 3.71875 0.359375 3.023438 0.179688 2.515625 -0.171875 C 2.003906 -0.535156 1.691406 -0.953125 1.578125 -1.421875 C 1.535156 -1.671875 1.539062 -2.054688 1.59375 -2.578125 C 1.644531 -3.097656 1.722656 -3.65625 1.828125 -4.25 C 1.929688 -4.84375 2.023438 -5.367188 2.109375 -5.828125 L 2.25 -6.5 C 2.269531 -6.5625 2.285156 -6.617188 2.296875 -6.671875 C 2.304688 -6.722656 2.320312 -6.78125 2.34375 -6.84375 L 2.484375 -7.40625 C 2.554688 -7.78125 2.632812 -8.144531 2.71875 -8.5 C 2.8125 -8.851562 2.90625 -9.164062 3 -9.4375 C 3.175781 -9.945312 3.472656 -10.375 3.890625 -10.71875 C 4.316406 -11.0625 4.796875 -11.316406 5.328125 -11.484375 C 5.859375 -11.660156 6.363281 -11.75 6.84375 -11.75 L 7.140625 -11.75 C 7.492188 -11.75 7.832031 -11.707031 8.15625 -11.625 C 8.3125 -12.375 8.4375 -13.015625 8.53125 -13.546875 C 8.625 -14.085938 8.671875 -14.660156 8.671875 -15.265625 L 8.6875 -15.453125 C 8.738281 -15.609375 8.800781 -15.769531 8.875 -15.9375 C 8.957031 -16.101562 9.0625 -16.21875 9.1875 -16.28125 C 9.320312 -16.351562 9.457031 -16.390625 9.59375 -16.390625 Z M 6.875 -4.1875 C 6.925781 -4.425781 6.992188 -4.773438 7.078125 -5.234375 C 7.160156 -5.691406 7.25 -6.1875 7.34375 -6.71875 C 7.445312 -7.25 7.523438 -7.753906 7.578125 -8.234375 C 7.640625 -8.722656 7.675781 -9.117188 7.6875 -9.421875 C 7.695312 -9.734375 7.664062 -9.890625 7.59375 -9.890625 C 7.5 -9.890625 7.316406 -9.941406 7.046875 -10.046875 C 7.035156 -10.054688 7.003906 -10.066406 6.953125 -10.078125 C 6.898438 -10.097656 6.828125 -10.109375 6.734375 -10.109375 C 6.628906 -10.109375 6.523438 -10.097656 6.421875 -10.078125 C 6.328125 -10.054688 6.210938 -10.03125 6.078125 -10 L 5.90625 -9.953125 L 5.96875 -9.953125 C 5.707031 -9.878906 5.488281 -9.804688 5.3125 -9.734375 C 5.132812 -9.671875 5.007812 -9.601562 4.9375 -9.53125 C 4.71875 -9.238281 4.546875 -8.875 4.421875 -8.4375 C 4.304688 -8.007812 4.210938 -7.613281 4.140625 -7.25 L 3.375 -3.609375 L 3.359375 -3.078125 C 3.296875 -1.867188 3.789062 -1.265625 4.84375 -1.265625 C 5.007812 -1.265625 5.164062 -1.28125 5.3125 -1.3125 C 5.726562 -1.488281 6.082031 -1.9375 6.375 -2.65625 C 6.582031 -3.15625 6.75 -3.664062 6.875 -4.1875 Z M 6.875 -4.1875 "/></g></g></g><g fill="#110f0d" fill-opacity="1"><g transform="translate(175.037308, 330.463123)"><g><path d="M 5.0625 -12.828125 C 4.894531 -12.828125 4.722656 -12.851562 4.546875 -12.90625 C 4.367188 -12.957031 4.238281 -13.101562 4.15625 -13.34375 C 4.070312 -13.59375 4.085938 -13.984375 4.203125 -14.515625 C 4.265625 -14.773438 4.34375 -15.039062 4.4375 -15.3125 C 4.53125 -15.582031 4.644531 -15.8125 4.78125 -16 C 4.925781 -16.1875 5.097656 -16.28125 5.296875 -16.28125 C 5.546875 -16.28125 5.742188 -16.171875 5.890625 -15.953125 C 6.046875 -15.742188 6.125 -15.492188 6.125 -15.203125 C 6.125 -15.078125 6.113281 -14.894531 6.09375 -14.65625 C 6.082031 -14.425781 6.046875 -14.1875 5.984375 -13.9375 C 5.929688 -13.625 5.832031 -13.359375 5.6875 -13.140625 C 5.539062 -12.929688 5.332031 -12.828125 5.0625 -12.828125 Z M 2.3125 -4.859375 C 2.394531 -5.203125 2.472656 -5.601562 2.546875 -6.0625 C 2.628906 -6.519531 2.726562 -7 2.84375 -7.5 C 2.925781 -7.914062 3.015625 -8.367188 3.109375 -8.859375 C 3.210938 -9.359375 3.304688 -9.804688 3.390625 -10.203125 C 3.484375 -10.609375 3.539062 -10.863281 3.5625 -10.96875 C 3.632812 -11.3125 3.78125 -11.585938 4 -11.796875 C 4.226562 -12.003906 4.484375 -12.109375 4.765625 -12.109375 C 4.898438 -12.109375 5.054688 -12.046875 5.234375 -11.921875 C 5.421875 -11.804688 5.476562 -11.578125 5.40625 -11.234375 C 5.34375 -10.992188 5.28125 -10.75 5.21875 -10.5 C 5.164062 -10.25 5.113281 -10.003906 5.0625 -9.765625 L 4.375 -6.53125 C 4.175781 -5.613281 4.019531 -4.867188 3.90625 -4.296875 C 3.789062 -3.722656 3.695312 -3.222656 3.625 -2.796875 C 3.582031 -2.554688 3.523438 -2.265625 3.453125 -1.921875 C 3.390625 -1.585938 3.328125 -1.289062 3.265625 -1.03125 C 3.203125 -0.6875 3.054688 -0.410156 2.828125 -0.203125 C 2.609375 0.00390625 2.347656 0.109375 2.046875 0.109375 C 1.898438 0.109375 1.742188 0.0546875 1.578125 -0.046875 C 1.421875 -0.160156 1.367188 -0.382812 1.421875 -0.71875 Z M 2.3125 -4.859375 "/></g></g></g><g fill="#110f0d" fill-opacity="1"><g transform="translate(180.304691, 330.463123)"><g><path d="M 9.34375 -8.796875 L 8.28125 -3.875 C 8.269531 -3.832031 8.265625 -3.78125 8.265625 -3.71875 C 8.265625 -3.664062 8.253906 -3.597656 8.234375 -3.515625 C 8.222656 -3.285156 8.191406 -3.015625 8.140625 -2.703125 C 8.085938 -2.398438 8.023438 -2.082031 7.953125 -1.75 L 7.859375 -1.34375 C 7.785156 -0.945312 7.6875 -0.625 7.5625 -0.375 C 7.445312 -0.125 7.175781 0 6.75 0 C 6.445312 0 6.25 -0.109375 6.15625 -0.328125 C 6.070312 -0.554688 6.046875 -0.84375 6.078125 -1.1875 C 6.117188 -1.539062 6.179688 -1.890625 6.265625 -2.234375 L 6.703125 -4.390625 C 6.753906 -4.597656 6.804688 -4.8125 6.859375 -5.03125 C 6.910156 -5.257812 6.96875 -5.488281 7.03125 -5.71875 L 7.3125 -7.09375 C 7.394531 -7.4375 7.46875 -7.78125 7.53125 -8.125 C 7.59375 -8.46875 7.632812 -8.804688 7.65625 -9.140625 C 7.71875 -9.921875 7.378906 -10.316406 6.640625 -10.328125 C 6.429688 -10.285156 6.191406 -10.210938 5.921875 -10.109375 C 5.648438 -10.003906 5.40625 -9.878906 5.1875 -9.734375 C 4.96875 -9.597656 4.828125 -9.4375 4.765625 -9.25 L 4.703125 -9.078125 C 4.640625 -8.910156 4.585938 -8.75 4.546875 -8.59375 C 4.503906 -8.4375 4.46875 -8.273438 4.4375 -8.109375 C 4.375 -7.773438 4.3125 -7.441406 4.25 -7.109375 C 4.195312 -6.785156 4.128906 -6.453125 4.046875 -6.109375 C 3.941406 -5.578125 3.828125 -5.003906 3.703125 -4.390625 C 3.585938 -3.785156 3.472656 -3.203125 3.359375 -2.640625 L 3.15625 -1.71875 C 3.0625 -1.289062 2.941406 -0.882812 2.796875 -0.5 C 2.660156 -0.125 2.40625 0.0625 2.03125 0.0625 C 1.976562 0.0625 1.910156 0.0507812 1.828125 0.03125 C 1.753906 0.0195312 1.675781 -0.0078125 1.59375 -0.0625 C 1.414062 -0.164062 1.304688 -0.335938 1.265625 -0.578125 C 1.234375 -0.828125 1.242188 -1.09375 1.296875 -1.375 C 1.347656 -1.65625 1.394531 -1.898438 1.4375 -2.109375 L 2.390625 -6.625 C 2.503906 -7.132812 2.628906 -7.644531 2.765625 -8.15625 C 2.898438 -8.664062 3.046875 -9.164062 3.203125 -9.65625 C 3.410156 -10.300781 3.753906 -10.785156 4.234375 -11.109375 C 4.710938 -11.429688 5.257812 -11.675781 5.875 -11.84375 C 6.039062 -11.882812 6.238281 -11.921875 6.46875 -11.953125 C 6.707031 -11.984375 6.945312 -12 7.1875 -12 C 7.601562 -12 7.992188 -11.9375 8.359375 -11.8125 C 8.734375 -11.695312 9.03125 -11.5 9.25 -11.21875 C 9.488281 -10.914062 9.585938 -10.550781 9.546875 -10.125 C 9.503906 -9.707031 9.4375 -9.265625 9.34375 -8.796875 Z M 9.34375 -8.796875 "/></g></g></g><g fill="#110f0d" fill-opacity="1"><g transform="translate(190.051387, 330.463123)"><g><path d="M 2.15625 -0.75 C 1.875 -1.070312 1.695312 -1.472656 1.625 -1.953125 C 1.5625 -2.429688 1.554688 -2.929688 1.609375 -3.453125 C 1.660156 -3.972656 1.734375 -4.441406 1.828125 -4.859375 C 1.859375 -4.992188 1.890625 -5.125 1.921875 -5.25 C 1.960938 -5.382812 1.988281 -5.503906 2 -5.609375 L 2.046875 -5.875 C 2.078125 -6.03125 2.101562 -6.171875 2.125 -6.296875 C 2.144531 -6.429688 2.171875 -6.578125 2.203125 -6.734375 L 2.4375 -7.71875 C 2.507812 -8.050781 2.585938 -8.375 2.671875 -8.6875 C 2.765625 -9 2.890625 -9.316406 3.046875 -9.640625 C 3.285156 -10.117188 3.640625 -10.535156 4.109375 -10.890625 C 4.578125 -11.253906 5.097656 -11.53125 5.671875 -11.71875 C 6.242188 -11.914062 6.785156 -12.015625 7.296875 -12.015625 C 7.671875 -12.015625 8.007812 -11.972656 8.3125 -11.890625 C 8.625 -11.816406 8.914062 -11.695312 9.1875 -11.53125 L 9.453125 -11.21875 C 9.660156 -10.976562 9.796875 -10.617188 9.859375 -10.140625 C 9.921875 -9.671875 9.914062 -9.265625 9.84375 -8.921875 L 9.15625 -5.8125 C 9.101562 -5.570312 9.050781 -5.320312 9 -5.0625 C 8.957031 -4.8125 8.90625 -4.554688 8.84375 -4.296875 C 8.800781 -4.046875 8.757812 -3.789062 8.71875 -3.53125 C 8.6875 -3.28125 8.640625 -3.019531 8.578125 -2.75 L 8.515625 -2.453125 L 8.15625 -0.90625 C 8.132812 -0.84375 8.113281 -0.765625 8.09375 -0.671875 C 8.070312 -0.585938 8.050781 -0.503906 8.03125 -0.421875 C 8.007812 -0.304688 7.976562 -0.171875 7.9375 -0.015625 C 7.894531 0.128906 7.859375 0.304688 7.828125 0.515625 C 7.804688 0.648438 7.78125 0.789062 7.75 0.9375 C 7.71875 1.09375 7.6875 1.253906 7.65625 1.421875 C 7.625 1.640625 7.582031 1.878906 7.53125 2.140625 C 7.488281 2.410156 7.429688 2.695312 7.359375 3 C 7.117188 4.164062 6.78125 5.054688 6.34375 5.671875 C 5.914062 6.285156 5.425781 6.703125 4.875 6.921875 C 4.320312 7.140625 3.738281 7.25 3.125 7.25 C 2.820312 7.25 2.488281 7.203125 2.125 7.109375 C 1.757812 7.023438 1.425781 6.890625 1.125 6.703125 C 0.820312 6.515625 0.601562 6.269531 0.46875 5.96875 C 0.351562 5.675781 0.273438 5.410156 0.234375 5.171875 C 0.203125 4.929688 0.207031 4.59375 0.25 4.15625 C 0.289062 3.726562 0.378906 3.101562 0.515625 2.28125 C 0.585938 2.0625 0.6875 1.882812 0.8125 1.75 C 0.945312 1.613281 1.140625 1.476562 1.390625 1.34375 C 1.753906 1.34375 1.992188 1.429688 2.109375 1.609375 C 2.234375 1.785156 2.285156 2.007812 2.265625 2.28125 C 2.253906 2.5625 2.210938 2.867188 2.140625 3.203125 C 2.078125 3.546875 2.035156 3.898438 2.015625 4.265625 C 2.003906 4.628906 2.101562 4.929688 2.3125 5.171875 C 2.53125 5.410156 2.9375 5.53125 3.53125 5.53125 C 3.757812 5.53125 3.984375 5.503906 4.203125 5.453125 C 4.429688 5.398438 4.613281 5.316406 4.75 5.203125 C 4.789062 5.160156 4.914062 4.945312 5.125 4.5625 C 5.34375 4.175781 5.519531 3.679688 5.65625 3.078125 C 5.6875 2.898438 5.722656 2.679688 5.765625 2.421875 C 5.804688 2.171875 5.851562 1.90625 5.90625 1.625 C 5.976562 1.257812 6.035156 0.941406 6.078125 0.671875 C 6.117188 0.398438 6.179688 0.078125 6.265625 -0.296875 C 5.972656 -0.128906 5.660156 0.0078125 5.328125 0.125 C 5.003906 0.238281 4.660156 0.296875 4.296875 0.296875 C 3.878906 0.296875 3.472656 0.207031 3.078125 0.03125 C 2.679688 -0.132812 2.375 -0.394531 2.15625 -0.75 Z M 4.09375 -6.890625 L 3.484375 -4.234375 C 3.398438 -3.890625 3.335938 -3.582031 3.296875 -3.3125 C 3.265625 -3.050781 3.257812 -2.847656 3.28125 -2.703125 C 3.34375 -2.429688 3.484375 -2.140625 3.703125 -1.828125 C 3.921875 -1.523438 4.234375 -1.375 4.640625 -1.375 C 4.984375 -1.375 5.3125 -1.476562 5.625 -1.6875 C 5.945312 -1.894531 6.21875 -2.164062 6.4375 -2.5 C 6.664062 -2.832031 6.816406 -3.1875 6.890625 -3.5625 C 6.921875 -3.632812 6.941406 -3.710938 6.953125 -3.796875 C 6.972656 -3.878906 7 -3.945312 7.03125 -4 C 7.050781 -4.09375 7.082031 -4.191406 7.125 -4.296875 C 7.164062 -4.398438 7.191406 -4.503906 7.203125 -4.609375 C 7.242188 -4.828125 7.289062 -5.039062 7.34375 -5.25 C 7.40625 -5.46875 7.460938 -5.691406 7.515625 -5.921875 L 7.90625 -7.65625 C 8.007812 -8.144531 8.078125 -8.59375 8.109375 -9 C 8.140625 -9.40625 8.066406 -9.726562 7.890625 -9.96875 C 7.710938 -10.207031 7.378906 -10.328125 6.890625 -10.328125 C 6.203125 -10.328125 5.65625 -10.160156 5.25 -9.828125 C 4.851562 -9.492188 4.597656 -9.070312 4.484375 -8.5625 L 4.34375 -7.828125 C 4.300781 -7.679688 4.253906 -7.53125 4.203125 -7.375 C 4.160156 -7.226562 4.125 -7.066406 4.09375 -6.890625 Z M 4.09375 -6.890625 "/></g></g></g><g fill="#110f0d" fill-opacity="1"><g transform="translate(199.978149, 330.463123)"><g/></g></g><g fill="#110f0d" fill-opacity="1"><g transform="translate(207.023749, 330.463123)"><g><path d="M 10.328125 -11.890625 L 9.953125 -11.75 L 9.890625 -11.75 C 9.566406 -11.75 9.363281 -11.851562 9.28125 -12.0625 C 9.195312 -12.28125 9.128906 -12.617188 9.078125 -13.078125 L 9.078125 -13.0625 C 9.015625 -13.34375 8.941406 -13.617188 8.859375 -13.890625 C 8.773438 -14.160156 8.628906 -14.378906 8.421875 -14.546875 C 8.210938 -14.722656 7.890625 -14.8125 7.453125 -14.8125 C 7.273438 -14.8125 7.046875 -14.757812 6.765625 -14.65625 C 6.484375 -14.5625 6.222656 -14.429688 5.984375 -14.265625 C 5.742188 -14.109375 5.566406 -13.910156 5.453125 -13.671875 L 5.453125 -13.71875 L 5.25 -13.109375 C 5.1875 -12.910156 5.128906 -12.707031 5.078125 -12.5 C 5.035156 -12.289062 4.992188 -12.101562 4.953125 -11.9375 C 4.890625 -11.59375 4.816406 -11.238281 4.734375 -10.875 C 4.648438 -10.507812 4.566406 -10.148438 4.484375 -9.796875 C 4.390625 -9.429688 4.300781 -9.066406 4.21875 -8.703125 C 4.132812 -8.347656 4.054688 -7.988281 3.984375 -7.625 C 3.710938 -6.425781 3.507812 -5.21875 3.375 -4 L 3.328125 -3.890625 C 3.328125 -3.878906 3.332031 -3.875 3.34375 -3.875 C 3.351562 -3.875 3.359375 -3.863281 3.359375 -3.84375 C 3.296875 -3.125 3.335938 -2.554688 3.484375 -2.140625 C 3.640625 -1.722656 4.015625 -1.515625 4.609375 -1.515625 C 4.960938 -1.515625 5.359375 -1.59375 5.796875 -1.75 C 6.242188 -1.90625 6.601562 -2.125 6.875 -2.40625 C 6.914062 -2.476562 6.957031 -2.570312 7 -2.6875 C 7.039062 -2.800781 7.078125 -2.910156 7.109375 -3.015625 C 7.203125 -3.316406 7.316406 -3.601562 7.453125 -3.875 C 7.585938 -4.15625 7.804688 -4.3125 8.109375 -4.34375 C 8.429688 -4.34375 8.648438 -4.28125 8.765625 -4.15625 C 8.878906 -4.03125 8.925781 -3.863281 8.90625 -3.65625 C 8.894531 -3.457031 8.867188 -3.253906 8.828125 -3.046875 C 8.628906 -2.078125 8.113281 -1.285156 7.28125 -0.671875 C 6.445312 -0.0546875 5.453125 0.25 4.296875 0.25 C 3.171875 0.25 2.382812 -0.164062 1.9375 -1 C 1.488281 -1.832031 1.398438 -2.890625 1.671875 -4.171875 C 1.742188 -4.523438 1.816406 -4.878906 1.890625 -5.234375 C 1.960938 -5.597656 2.023438 -5.96875 2.078125 -6.34375 L 2.609375 -9.328125 C 2.609375 -9.410156 2.625 -9.523438 2.65625 -9.671875 C 2.6875 -9.816406 2.707031 -9.941406 2.71875 -10.046875 C 2.8125 -10.429688 2.914062 -10.832031 3.03125 -11.25 C 3.144531 -11.675781 3.253906 -12.078125 3.359375 -12.453125 L 3.625 -13.359375 C 3.894531 -14.222656 4.351562 -14.941406 5 -15.515625 C 5.644531 -16.097656 6.492188 -16.4375 7.546875 -16.53125 L 7.859375 -16.53125 C 8.109375 -16.53125 8.34375 -16.515625 8.5625 -16.484375 C 8.78125 -16.453125 9.035156 -16.375 9.328125 -16.25 C 9.648438 -16.101562 9.945312 -15.84375 10.21875 -15.46875 C 10.488281 -15.09375 10.695312 -14.675781 10.84375 -14.21875 C 10.988281 -13.757812 11.015625 -13.335938 10.921875 -12.953125 C 10.847656 -12.597656 10.648438 -12.242188 10.328125 -11.890625 Z M 10.328125 -11.890625 "/></g></g></g><g fill="#110f0d" fill-opacity="1"><g transform="translate(217.085571, 330.463123)"><g><path d="M 8.125 -11.984375 C 8.976562 -11.984375 9.679688 -11.753906 10.234375 -11.296875 C 10.796875 -10.835938 11.21875 -10.257812 11.5 -9.5625 C 11.789062 -8.863281 11.953125 -8.140625 11.984375 -7.390625 L 12 -7.390625 C 12.0625 -6.910156 12.003906 -6.269531 11.828125 -5.46875 C 11.691406 -4.789062 11.476562 -4.109375 11.1875 -3.421875 C 10.90625 -2.742188 10.53125 -2.125 10.0625 -1.5625 C 9.59375 -1 9.015625 -0.546875 8.328125 -0.203125 C 7.648438 0.128906 6.84375 0.296875 5.90625 0.296875 L 5.5 0.296875 C 3.914062 0.0234375 2.804688 -0.582031 2.171875 -1.53125 C 1.535156 -2.488281 1.335938 -3.851562 1.578125 -5.625 L 1.71875 -6.265625 C 1.832031 -6.847656 2.09375 -7.46875 2.5 -8.125 C 2.90625 -8.789062 3.40625 -9.414062 4 -10 C 4.601562 -10.582031 5.257812 -11.054688 5.96875 -11.421875 C 6.675781 -11.796875 7.394531 -11.984375 8.125 -11.984375 Z M 8.078125 -1.953125 C 8.578125 -2.328125 8.976562 -2.804688 9.28125 -3.390625 C 9.59375 -3.984375 9.851562 -4.65625 10.0625 -5.40625 L 10.109375 -5.671875 C 10.234375 -6.242188 10.265625 -6.816406 10.203125 -7.390625 C 10.148438 -7.972656 10.003906 -8.5 9.765625 -8.96875 L 9.25 -9.59375 C 8.832031 -10.0625 8.335938 -10.296875 7.765625 -10.296875 C 7.171875 -10.296875 6.5625 -10.082031 5.9375 -9.65625 C 5.320312 -9.238281 4.742188 -8.660156 4.203125 -7.921875 L 4.234375 -7.953125 C 3.960938 -7.578125 3.75 -7.1875 3.59375 -6.78125 C 3.445312 -6.375 3.332031 -5.972656 3.25 -5.578125 C 3.050781 -4.617188 3.148438 -3.757812 3.546875 -3 C 3.941406 -2.25 4.703125 -1.765625 5.828125 -1.546875 L 5.8125 -1.546875 C 5.882812 -1.535156 5.953125 -1.53125 6.015625 -1.53125 C 6.085938 -1.53125 6.15625 -1.53125 6.21875 -1.53125 C 6.625 -1.53125 6.988281 -1.5625 7.3125 -1.625 C 7.632812 -1.6875 7.890625 -1.796875 8.078125 -1.953125 Z M 8.078125 -1.953125 "/></g></g></g><g fill="#110f0d" fill-opacity="1"><g transform="translate(229.128191, 330.463123)"><g><path d="M 10.0625 -10.09375 L 9.859375 -8.84375 C 9.710938 -8.050781 9.585938 -7.40625 9.484375 -6.90625 C 9.378906 -6.414062 9.296875 -6.019531 9.234375 -5.71875 C 9.179688 -5.414062 9.132812 -5.164062 9.09375 -4.96875 C 9.050781 -4.78125 9.007812 -4.585938 8.96875 -4.390625 C 8.875 -3.921875 8.738281 -3.394531 8.5625 -2.8125 C 8.394531 -2.226562 8.164062 -1.679688 7.875 -1.171875 C 7.59375 -0.660156 7.210938 -0.265625 6.734375 0.015625 C 6.128906 0.242188 5.535156 0.359375 4.953125 0.359375 C 4.453125 0.359375 3.9375 0.265625 3.40625 0.078125 C 2.875 -0.0976562 2.46875 -0.382812 2.1875 -0.78125 C 1.914062 -1.15625 1.785156 -1.5625 1.796875 -2 C 1.816406 -2.445312 1.863281 -2.925781 1.9375 -3.4375 L 2.03125 -4.03125 C 2.101562 -4.75 2.222656 -5.5 2.390625 -6.28125 L 2.484375 -6.734375 C 2.523438 -6.941406 2.5625 -7.140625 2.59375 -7.328125 C 2.632812 -7.523438 2.660156 -7.738281 2.671875 -7.96875 C 2.691406 -8.039062 2.703125 -8.109375 2.703125 -8.171875 C 2.710938 -8.242188 2.726562 -8.316406 2.75 -8.390625 C 2.757812 -8.515625 2.78125 -8.660156 2.8125 -8.828125 C 2.84375 -9.003906 2.863281 -9.15625 2.875 -9.28125 L 2.921875 -9.484375 C 2.984375 -9.722656 3.066406 -10.03125 3.171875 -10.40625 C 3.273438 -10.78125 3.425781 -11.117188 3.625 -11.421875 C 3.832031 -11.734375 4.09375 -11.890625 4.40625 -11.890625 C 4.644531 -11.890625 4.84375 -11.785156 5 -11.578125 C 5.164062 -11.378906 5.222656 -11.148438 5.171875 -10.890625 C 5.148438 -10.785156 5.125 -10.675781 5.09375 -10.5625 C 5.0625 -10.457031 5.03125 -10.351562 5 -10.25 L 4.859375 -9.609375 C 4.796875 -9.390625 4.742188 -9.171875 4.703125 -8.953125 C 4.660156 -8.742188 4.617188 -8.535156 4.578125 -8.328125 C 4.515625 -7.972656 4.445312 -7.644531 4.375 -7.34375 C 4.3125 -7.039062 4.25 -6.71875 4.1875 -6.375 L 4.140625 -6.1875 C 4.128906 -6.15625 4.125 -6.117188 4.125 -6.078125 C 4.132812 -6.046875 4.132812 -6.007812 4.125 -5.96875 L 4.03125 -5.5 C 4.007812 -5.445312 4 -5.394531 4 -5.34375 C 3.875 -4.582031 3.769531 -3.898438 3.6875 -3.296875 C 3.613281 -2.703125 3.675781 -2.234375 3.875 -1.890625 C 4.070312 -1.546875 4.484375 -1.375 5.109375 -1.375 C 5.585938 -1.375 5.972656 -1.550781 6.265625 -1.90625 C 6.554688 -2.269531 6.789062 -2.722656 6.96875 -3.265625 C 7.15625 -3.804688 7.300781 -4.335938 7.40625 -4.859375 C 7.476562 -5.265625 7.546875 -5.660156 7.609375 -6.046875 C 7.671875 -6.441406 7.734375 -6.847656 7.796875 -7.265625 C 7.804688 -7.316406 7.8125 -7.378906 7.8125 -7.453125 L 7.90625 -7.953125 C 7.988281 -8.785156 8.128906 -9.65625 8.328125 -10.5625 C 8.359375 -10.695312 8.40625 -10.863281 8.46875 -11.0625 C 8.539062 -11.269531 8.644531 -11.453125 8.78125 -11.609375 C 8.925781 -11.765625 9.128906 -11.84375 9.390625 -11.84375 C 9.671875 -11.84375 9.90625 -11.75 10.09375 -11.5625 C 10.28125 -11.375 10.335938 -11.113281 10.265625 -10.78125 C 10.253906 -10.695312 10.234375 -10.597656 10.203125 -10.484375 C 10.171875 -10.367188 10.140625 -10.273438 10.109375 -10.203125 C 10.109375 -10.179688 10.097656 -10.160156 10.078125 -10.140625 C 10.066406 -10.128906 10.0625 -10.113281 10.0625 -10.09375 Z M 10.0625 -10.09375 "/></g></g></g><g fill="#110f0d" fill-opacity="1"><g transform="translate(239.347588, 330.463123)"><g><path d="M 8.640625 -10.71875 L 8.640625 -10.453125 C 8.628906 -10.316406 8.597656 -10.222656 8.546875 -10.171875 C 8.503906 -10.117188 8.398438 -10.015625 8.234375 -9.859375 C 8.015625 -9.710938 7.828125 -9.640625 7.671875 -9.640625 C 7.515625 -9.640625 7.363281 -9.671875 7.21875 -9.734375 C 7.070312 -9.804688 6.957031 -9.863281 6.875 -9.90625 L 6.890625 -9.90625 L 6.75 -9.96875 C 6.632812 -10.03125 6.484375 -10.09375 6.296875 -10.15625 C 6.109375 -10.21875 5.929688 -10.25 5.765625 -10.25 C 5.628906 -10.25 5.476562 -10.21875 5.3125 -10.15625 C 5.164062 -10.125 5.046875 -10.003906 4.953125 -9.796875 C 4.859375 -9.585938 4.785156 -9.363281 4.734375 -9.125 L 4.484375 -8 C 4.421875 -7.644531 4.351562 -7.289062 4.28125 -6.9375 C 4.207031 -6.59375 4.128906 -6.25 4.046875 -5.90625 C 3.992188 -5.550781 3.9375 -5.207031 3.875 -4.875 C 3.8125 -4.539062 3.742188 -4.207031 3.671875 -3.875 C 3.566406 -3.34375 3.441406 -2.816406 3.296875 -2.296875 C 3.148438 -1.785156 2.988281 -1.289062 2.8125 -0.8125 C 2.613281 -0.300781 2.300781 -0.046875 1.875 -0.046875 C 1.789062 -0.046875 1.71875 -0.0625 1.65625 -0.09375 C 1.601562 -0.125 1.539062 -0.160156 1.46875 -0.203125 C 1.269531 -0.367188 1.164062 -0.53125 1.15625 -0.6875 C 1.144531 -0.84375 1.15625 -1.019531 1.1875 -1.21875 L 1.265625 -1.53125 C 1.335938 -1.90625 1.414062 -2.28125 1.5 -2.65625 C 1.582031 -3.03125 1.664062 -3.40625 1.75 -3.78125 L 2.296875 -6.03125 C 2.367188 -6.375 2.429688 -6.707031 2.484375 -7.03125 C 2.535156 -7.351562 2.59375 -7.679688 2.65625 -8.015625 L 2.703125 -8.234375 C 2.710938 -8.285156 2.71875 -8.328125 2.71875 -8.359375 C 2.71875 -8.398438 2.726562 -8.453125 2.75 -8.515625 C 2.75 -8.585938 2.765625 -8.6875 2.796875 -8.8125 C 2.828125 -8.9375 2.847656 -9.046875 2.859375 -9.140625 C 2.921875 -9.421875 2.992188 -9.6875 3.078125 -9.9375 C 3.171875 -10.1875 3.316406 -10.429688 3.515625 -10.671875 C 3.867188 -11.109375 4.304688 -11.441406 4.828125 -11.671875 C 5.347656 -11.898438 5.863281 -12.015625 6.375 -12.015625 C 6.625 -12.015625 6.882812 -11.96875 7.15625 -11.875 C 7.425781 -11.78125 7.660156 -11.65625 7.859375 -11.5 C 8.023438 -11.394531 8.171875 -11.28125 8.296875 -11.15625 C 8.421875 -11.03125 8.535156 -10.882812 8.640625 -10.71875 Z M 8.640625 -10.71875 "/></g></g></g><g fill="#110f0d" fill-opacity="1"><g transform="translate(246.573273, 330.463123)"><g><path d="M 6.5 -8.328125 L 6.46875 -8.390625 C 6.34375 -8.554688 6.300781 -8.785156 6.34375 -9.078125 L 6.421875 -9.359375 L 6.484375 -9.53125 C 6.523438 -9.738281 6.472656 -9.9375 6.328125 -10.125 C 6.179688 -10.3125 5.976562 -10.40625 5.71875 -10.40625 C 5.539062 -10.40625 5.328125 -10.375 5.078125 -10.3125 C 4.828125 -10.25 4.597656 -10.148438 4.390625 -10.015625 C 4.191406 -9.878906 4.0625 -9.691406 4 -9.453125 C 3.945312 -9.128906 4 -8.765625 4.15625 -8.359375 C 4.320312 -7.960938 4.550781 -7.578125 4.84375 -7.203125 C 5.144531 -6.828125 5.429688 -6.5 5.703125 -6.21875 C 5.941406 -5.945312 6.175781 -5.660156 6.40625 -5.359375 C 6.632812 -5.054688 6.804688 -4.710938 6.921875 -4.328125 C 7.035156 -3.953125 7.03125 -3.5 6.90625 -2.96875 C 6.789062 -2.425781 6.601562 -1.90625 6.34375 -1.40625 C 6.09375 -0.914062 5.738281 -0.507812 5.28125 -0.1875 C 4.832031 0.132812 4.265625 0.296875 3.578125 0.296875 C 2.960938 0.296875 2.429688 0.160156 1.984375 -0.109375 C 1.535156 -0.378906 1.210938 -0.753906 1.015625 -1.234375 C 0.816406 -1.710938 0.785156 -2.253906 0.921875 -2.859375 C 0.953125 -3.023438 1.015625 -3.21875 1.109375 -3.4375 C 1.210938 -3.65625 1.347656 -3.847656 1.515625 -4.015625 C 1.691406 -4.191406 1.898438 -4.28125 2.140625 -4.28125 C 2.410156 -4.28125 2.601562 -4.179688 2.71875 -3.984375 C 2.84375 -3.785156 2.875 -3.5625 2.8125 -3.3125 C 2.8125 -3.289062 2.800781 -3.273438 2.78125 -3.265625 C 2.769531 -3.253906 2.765625 -3.234375 2.765625 -3.203125 L 2.703125 -2.859375 C 2.609375 -2.441406 2.644531 -2.082031 2.8125 -1.78125 C 2.988281 -1.488281 3.296875 -1.34375 3.734375 -1.34375 C 4.035156 -1.34375 4.320312 -1.46875 4.59375 -1.71875 C 4.875 -1.96875 5.066406 -2.257812 5.171875 -2.59375 L 5.171875 -2.5625 C 5.296875 -3.132812 5.195312 -3.648438 4.875 -4.109375 C 4.5625 -4.566406 4.210938 -5.019531 3.828125 -5.46875 C 3.628906 -5.726562 3.429688 -5.972656 3.234375 -6.203125 C 3.046875 -6.429688 2.890625 -6.679688 2.765625 -6.953125 C 2.703125 -7.148438 2.648438 -7.304688 2.609375 -7.421875 C 2.566406 -7.546875 2.515625 -7.671875 2.453125 -7.796875 L 2.453125 -7.765625 C 2.347656 -8.003906 2.257812 -8.234375 2.1875 -8.453125 C 2.125 -8.679688 2.140625 -9 2.234375 -9.40625 C 2.273438 -9.664062 2.378906 -9.984375 2.546875 -10.359375 C 2.722656 -10.742188 3.019531 -11.066406 3.4375 -11.328125 C 3.8125 -11.535156 4.210938 -11.707031 4.640625 -11.84375 C 5.078125 -11.988281 5.488281 -12.0625 5.875 -12.0625 C 6.375 -12.0625 6.8125 -11.972656 7.1875 -11.796875 C 7.5625 -11.628906 7.820312 -11.328125 7.96875 -10.890625 L 7.953125 -10.890625 C 8.035156 -10.671875 8.101562 -10.414062 8.15625 -10.125 C 8.207031 -9.84375 8.195312 -9.566406 8.125 -9.296875 C 8.082031 -9.054688 7.96875 -8.789062 7.78125 -8.5 C 7.59375 -8.207031 7.347656 -8.0625 7.046875 -8.0625 C 6.953125 -8.0625 6.863281 -8.085938 6.78125 -8.140625 C 6.707031 -8.191406 6.613281 -8.253906 6.5 -8.328125 Z M 6.5 -8.328125 "/></g></g></g><g fill="#110f0d" fill-opacity="1"><g transform="translate(254.136594, 330.463123)"><g><path d="M 6.1875 -12.09375 C 7.039062 -12.09375 7.660156 -11.929688 8.046875 -11.609375 C 8.429688 -11.296875 8.632812 -10.742188 8.65625 -9.953125 C 8.675781 -9.160156 8.582031 -8.035156 8.375 -6.578125 L 8.3125 -6.390625 C 7.9375 -5.929688 7.492188 -5.703125 6.984375 -5.703125 C 6.859375 -5.703125 6.722656 -5.710938 6.578125 -5.734375 C 6.546875 -5.734375 6.519531 -5.738281 6.5 -5.75 C 6.476562 -5.757812 6.453125 -5.765625 6.421875 -5.765625 C 6.390625 -5.773438 6.335938 -5.78125 6.265625 -5.78125 L 6.109375 -5.8125 L 5.828125 -5.8125 C 5.273438 -5.8125 4.816406 -5.804688 4.453125 -5.796875 C 4.097656 -5.785156 3.785156 -5.765625 3.515625 -5.734375 L 3.421875 -5.3125 C 3.410156 -5.207031 3.390625 -5.109375 3.359375 -5.015625 C 3.335938 -4.929688 3.320312 -4.828125 3.3125 -4.703125 L 3.21875 -4.328125 C 3.207031 -4.265625 3.203125 -4.191406 3.203125 -4.109375 C 3.203125 -4.023438 3.1875 -3.945312 3.15625 -3.875 C 3 -3.09375 3.046875 -2.503906 3.296875 -2.109375 C 3.546875 -1.710938 4.09375 -1.515625 4.9375 -1.515625 C 5.09375 -1.515625 5.238281 -1.539062 5.375 -1.59375 C 5.507812 -1.644531 5.617188 -1.722656 5.703125 -1.828125 C 5.773438 -1.898438 5.8125 -1.988281 5.8125 -2.09375 C 5.84375 -2.164062 5.867188 -2.238281 5.890625 -2.3125 C 5.910156 -2.394531 5.9375 -2.453125 5.96875 -2.484375 L 5.96875 -2.453125 L 5.984375 -2.515625 C 6.316406 -3.054688 6.703125 -3.335938 7.140625 -3.359375 L 7.25 -3.328125 C 7.445312 -3.242188 7.566406 -3.117188 7.609375 -2.953125 C 7.648438 -2.785156 7.644531 -2.566406 7.59375 -2.296875 C 7.457031 -1.609375 7.226562 -1.085938 6.90625 -0.734375 C 6.582031 -0.378906 6.195312 -0.132812 5.75 0 C 5.3125 0.125 4.835938 0.207031 4.328125 0.25 L 4.203125 0.25 C 3.828125 0.25 3.445312 0.195312 3.0625 0.09375 C 2.6875 -0.0078125 2.351562 -0.1875 2.0625 -0.4375 C 1.769531 -0.695312 1.5625 -1.046875 1.4375 -1.484375 C 1.332031 -1.691406 1.285156 -2.015625 1.296875 -2.453125 C 1.304688 -2.898438 1.347656 -3.394531 1.421875 -3.9375 C 1.492188 -4.488281 1.582031 -5.039062 1.6875 -5.59375 C 1.789062 -6.144531 1.890625 -6.625 1.984375 -7.03125 C 2.265625 -8.320312 2.59375 -9.332031 2.96875 -10.0625 C 3.34375 -10.800781 3.796875 -11.320312 4.328125 -11.625 C 4.867188 -11.9375 5.488281 -12.09375 6.1875 -12.09375 Z M 6.875 -8.921875 C 6.957031 -9.640625 6.910156 -10.054688 6.734375 -10.171875 L 6.75 -10.171875 C 6.664062 -10.222656 6.554688 -10.265625 6.421875 -10.296875 C 6.285156 -10.335938 6.132812 -10.359375 5.96875 -10.359375 L 5.8125 -10.359375 C 5.601562 -10.328125 5.414062 -10.289062 5.25 -10.25 C 5.09375 -10.21875 4.976562 -10.148438 4.90625 -10.046875 C 4.632812 -9.753906 4.4375 -9.453125 4.3125 -9.140625 C 4.1875 -8.835938 4.082031 -8.515625 4 -8.171875 C 3.976562 -8.023438 3.953125 -7.894531 3.921875 -7.78125 C 3.898438 -7.675781 3.882812 -7.566406 3.875 -7.453125 L 4.203125 -7.453125 C 4.398438 -7.453125 4.609375 -7.453125 4.828125 -7.453125 C 5.054688 -7.453125 5.300781 -7.445312 5.5625 -7.4375 L 6.640625 -7.4375 C 6.703125 -7.78125 6.75 -8.066406 6.78125 -8.296875 C 6.820312 -8.523438 6.851562 -8.734375 6.875 -8.921875 Z M 6.875 -8.921875 "/></g></g></g><g fill="#ef3220" fill-opacity="1"><g transform="translate(123.471349, 304.820754)"><g><path d="M 43.609375 -19.5 C 43.972656 -15.15625 42.710938 -11.285156 39.828125 -7.890625 C 38.640625 -6.429688 37.472656 -5.40625 36.328125 -4.8125 C 27.210938 0.175781 18.535156 1.273438 10.296875 -1.515625 C 8.609375 -2.109375 6.894531 -3.132812 5.15625 -4.59375 C 3.644531 -5.832031 3.1875 -7.570312 3.78125 -9.8125 C 4.144531 -11.28125 4.347656 -12.816406 4.390625 -14.421875 C 4.441406 -17.253906 4.488281 -20.078125 4.53125 -22.890625 C 4.570312 -25.710938 4.617188 -28.519531 4.671875 -31.3125 C 4.710938 -33.550781 4.742188 -35.804688 4.765625 -38.078125 C 4.796875 -40.347656 4.832031 -42.601562 4.875 -44.84375 L 4.875 -45.125 C 4.914062 -45.625 4.878906 -46.160156 4.765625 -46.734375 C 4.648438 -47.304688 4.179688 -47.84375 3.359375 -48.34375 C 2.898438 -48.613281 2.628906 -49.003906 2.546875 -49.515625 C 2.492188 -50.109375 2.695312 -50.632812 3.15625 -51.09375 L 3.78125 -51.703125 C 4.550781 -52.441406 5.359375 -53.1875 6.203125 -53.9375 C 7.054688 -54.695312 7.941406 -55.191406 8.859375 -55.421875 C 14.171875 -56.796875 19.320312 -57.570312 24.3125 -57.75 C 24.582031 -57.800781 24.878906 -57.828125 25.203125 -57.828125 C 31.296875 -57.828125 35.625 -55.125 38.1875 -49.71875 C 40.519531 -44.863281 39.804688 -40.46875 36.046875 -36.53125 C 35.867188 -36.351562 35.664062 -36.171875 35.4375 -35.984375 C 35.207031 -35.796875 34.953125 -35.613281 34.671875 -35.4375 C 34.535156 -35.34375 34.398438 -35.238281 34.265625 -35.125 C 34.128906 -35.007812 33.992188 -34.90625 33.859375 -34.8125 L 33.03125 -34.203125 L 33.859375 -33.65625 C 34.128906 -33.425781 34.390625 -33.21875 34.640625 -33.03125 C 34.890625 -32.84375 35.128906 -32.660156 35.359375 -32.484375 C 35.816406 -32.117188 36.238281 -31.785156 36.625 -31.484375 C 37.019531 -31.191406 37.398438 -30.882812 37.765625 -30.5625 C 41.242188 -27.625 43.191406 -23.9375 43.609375 -19.5 Z M 14.625 -38.109375 L 14.625 -37.21875 L 15.515625 -37.421875 C 15.972656 -37.515625 16.394531 -37.617188 16.78125 -37.734375 C 17.175781 -37.847656 17.578125 -37.953125 17.984375 -38.046875 C 18.898438 -38.222656 19.789062 -38.425781 20.65625 -38.65625 C 21.53125 -38.882812 22.382812 -39.160156 23.21875 -39.484375 C 24.539062 -39.984375 25.5 -40.484375 26.09375 -40.984375 C 26.6875 -41.492188 27.144531 -41.929688 27.46875 -42.296875 L 27.8125 -42.78125 C 28.082031 -43.28125 28.34375 -43.847656 28.59375 -44.484375 C 28.851562 -45.128906 28.867188 -45.796875 28.640625 -46.484375 C 28.410156 -47.171875 27.882812 -47.722656 27.0625 -48.140625 C 26.1875 -48.546875 24.925781 -48.863281 23.28125 -49.09375 C 22.5 -49.144531 21.742188 -49.15625 21.015625 -49.125 C 20.285156 -49.101562 19.414062 -48.976562 18.40625 -48.75 C 17.394531 -48.519531 16.113281 -48.132812 14.5625 -47.59375 L 14.015625 -47.390625 L 14.015625 -46.828125 C 14.054688 -45.828125 14.109375 -44.992188 14.171875 -44.328125 C 14.242188 -43.660156 14.304688 -43.03125 14.359375 -42.4375 C 14.398438 -41.84375 14.441406 -41.222656 14.484375 -40.578125 C 14.535156 -39.941406 14.582031 -39.117188 14.625 -38.109375 Z M 33.09375 -17.984375 C 33.414062 -20.234375 32.570312 -22.296875 30.5625 -24.171875 C 29.28125 -25.410156 27.914062 -26.257812 26.46875 -26.71875 C 25.03125 -27.175781 23.578125 -27.40625 22.109375 -27.40625 C 20.648438 -27.40625 19.1875 -27.332031 17.71875 -27.1875 L 16.34375 -27.125 C 15.882812 -27.082031 15.515625 -26.785156 15.234375 -26.234375 C 14.960938 -25.679688 14.804688 -25.242188 14.765625 -24.921875 C 14.765625 -24.234375 14.765625 -23.535156 14.765625 -22.828125 C 14.765625 -22.117188 14.765625 -21.421875 14.765625 -20.734375 L 14.765625 -19.234375 L 14.828125 -18.46875 C 14.828125 -18.289062 14.828125 -18.128906 14.828125 -17.984375 C 14.828125 -17.847656 14.828125 -17.710938 14.828125 -17.578125 C 14.828125 -16.941406 14.828125 -16.3125 14.828125 -15.6875 C 14.828125 -15.070312 14.804688 -14.441406 14.765625 -13.796875 C 14.671875 -12.015625 15.539062 -11.03125 17.375 -10.84375 C 17.96875 -10.800781 18.539062 -10.78125 19.09375 -10.78125 C 22.519531 -10.78125 25.953125 -11.628906 29.390625 -13.328125 C 31.546875 -14.378906 32.78125 -15.929688 33.09375 -17.984375 Z M 33.09375 -17.984375 "/></g></g></g><g fill="#ef3220" fill-opacity="1"><g transform="translate(169.689887, 304.820754)"><g><path d="M 33.71875 -11.609375 C 34.082031 -10.046875 34.054688 -8.703125 33.640625 -7.578125 C 33.234375 -6.460938 32.484375 -5.675781 31.390625 -5.21875 C 29.097656 -4.300781 27.082031 -5.304688 25.34375 -8.234375 C 25.289062 -8.285156 25.242188 -8.34375 25.203125 -8.40625 C 25.160156 -8.476562 25.09375 -8.5625 25 -8.65625 C 24.125 -8.0625 23.285156 -7.460938 22.484375 -6.859375 C 21.679688 -6.265625 20.867188 -5.738281 20.046875 -5.28125 C 17.992188 -4.226562 15.945312 -3.75 13.90625 -3.84375 C 11.863281 -3.9375 10.03125 -4.554688 8.40625 -5.703125 C 6.78125 -6.847656 5.507812 -8.472656 4.59375 -10.578125 C 3.039062 -14.285156 2.367188 -17.976562 2.578125 -21.65625 C 2.785156 -25.34375 3.617188 -29.019531 5.078125 -32.6875 C 5.398438 -33.46875 5.878906 -34.109375 6.515625 -34.609375 C 7.160156 -35.109375 7.960938 -35.269531 8.921875 -35.09375 C 9.972656 -34.90625 10.679688 -34.457031 11.046875 -33.75 C 11.421875 -33.039062 11.628906 -32.207031 11.671875 -31.25 C 11.765625 -29.914062 11.820312 -28.5625 11.84375 -27.1875 C 11.863281 -25.820312 11.945312 -24.453125 12.09375 -23.078125 C 12.226562 -22.023438 12.394531 -20.957031 12.59375 -19.875 C 12.800781 -18.800781 13.066406 -17.738281 13.390625 -16.6875 C 13.753906 -15.5 14.269531 -14.847656 14.9375 -14.734375 C 15.601562 -14.617188 16.300781 -15.0625 17.03125 -16.0625 C 17.625 -16.894531 18.140625 -17.800781 18.578125 -18.78125 C 19.015625 -19.769531 19.367188 -20.742188 19.640625 -21.703125 C 20.191406 -23.578125 20.671875 -25.472656 21.078125 -27.390625 C 21.492188 -29.316406 21.929688 -31.21875 22.390625 -33.09375 C 22.753906 -34.375 23.414062 -35.347656 24.375 -36.015625 C 25.34375 -36.679688 26.421875 -36.945312 27.609375 -36.8125 C 28.835938 -36.625 29.828125 -36.09375 30.578125 -35.21875 C 31.335938 -34.351562 31.765625 -33.257812 31.859375 -31.9375 C 31.859375 -31.707031 31.859375 -31.476562 31.859375 -31.25 C 31.859375 -31.019531 31.835938 -30.789062 31.796875 -30.5625 C 31.335938 -27.3125 31.359375 -24.117188 31.859375 -20.984375 C 32.367188 -17.847656 32.988281 -14.722656 33.71875 -11.609375 Z M 33.71875 -11.609375 "/></g></g></g><g fill="#ef3220" fill-opacity="1"><g transform="translate(206.225194, 304.820754)"><g><path d="M 34.75 -50.0625 C 34.789062 -43.425781 34.820312 -36.765625 34.84375 -30.078125 C 34.875 -23.390625 34.863281 -16.707031 34.8125 -10.03125 C 34.8125 -7.507812 34.078125 -5.78125 32.609375 -4.84375 C 31.148438 -3.90625 29.226562 -3.820312 26.84375 -4.59375 C 26.476562 -4.738281 26.046875 -4.765625 25.546875 -4.671875 C 25.046875 -4.578125 24.609375 -4.460938 24.234375 -4.328125 C 22.546875 -3.597656 20.816406 -3.09375 19.046875 -2.8125 C 17.285156 -2.539062 15.515625 -2.609375 13.734375 -3.015625 C 11.117188 -3.617188 8.90625 -4.765625 7.09375 -6.453125 C 5.289062 -8.148438 4.007812 -10.222656 3.25 -12.671875 C 2.5 -15.117188 2.351562 -17.785156 2.8125 -20.671875 C 3 -21.953125 3.296875 -23.234375 3.703125 -24.515625 C 5.359375 -29.460938 7.867188 -32.757812 11.234375 -34.40625 C 14.597656 -36.050781 18.75 -36.03125 23.6875 -34.34375 C 23.914062 -34.25 24.164062 -34.164062 24.4375 -34.09375 C 24.71875 -34.03125 25.039062 -33.953125 25.40625 -33.859375 C 25.59375 -36.648438 25.773438 -39.40625 25.953125 -42.125 C 26.140625 -44.851562 26.320312 -47.566406 26.5 -50.265625 C 26.550781 -50.765625 26.578125 -51.289062 26.578125 -51.84375 C 26.578125 -52.394531 26.710938 -52.851562 26.984375 -53.21875 C 27.347656 -53.8125 27.816406 -54.394531 28.390625 -54.96875 C 28.960938 -55.539062 29.523438 -55.851562 30.078125 -55.90625 C 30.722656 -55.945312 31.398438 -55.75 32.109375 -55.3125 C 32.816406 -54.875 33.398438 -54.382812 33.859375 -53.84375 C 34.222656 -53.425781 34.460938 -52.863281 34.578125 -52.15625 C 34.691406 -51.445312 34.75 -50.75 34.75 -50.0625 Z M 23.765625 -16.140625 C 23.941406 -16.179688 24.097656 -16.335938 24.234375 -16.609375 C 24.378906 -16.890625 24.472656 -17.144531 24.515625 -17.375 C 24.554688 -18.425781 24.234375 -19.488281 23.546875 -20.5625 C 22.867188 -21.644531 21.988281 -22.539062 20.90625 -23.25 C 19.832031 -23.957031 18.769531 -24.285156 17.71875 -24.234375 C 17.445312 -24.191406 17.101562 -24.085938 16.6875 -23.921875 C 16.269531 -23.765625 16.019531 -23.597656 15.9375 -23.421875 C 15.5625 -22.316406 15.191406 -21.226562 14.828125 -20.15625 C 14.460938 -19.082031 14.210938 -17.972656 14.078125 -16.828125 C 13.984375 -16.003906 14.234375 -15.363281 14.828125 -14.90625 C 15.421875 -14.445312 16.175781 -14.191406 17.09375 -14.140625 C 18.195312 -14.460938 19.304688 -14.785156 20.421875 -15.109375 C 21.546875 -15.429688 22.660156 -15.773438 23.765625 -16.140625 Z M 23.765625 -16.140625 "/></g></g></g><g fill="#ef3220" fill-opacity="1"><g transform="translate(243.65328, 304.820754)"><g><path d="M 34.75 -50.0625 C 34.789062 -43.425781 34.820312 -36.765625 34.84375 -30.078125 C 34.875 -23.390625 34.863281 -16.707031 34.8125 -10.03125 C 34.8125 -7.507812 34.078125 -5.78125 32.609375 -4.84375 C 31.148438 -3.90625 29.226562 -3.820312 26.84375 -4.59375 C 26.476562 -4.738281 26.046875 -4.765625 25.546875 -4.671875 C 25.046875 -4.578125 24.609375 -4.460938 24.234375 -4.328125 C 22.546875 -3.597656 20.816406 -3.09375 19.046875 -2.8125 C 17.285156 -2.539062 15.515625 -2.609375 13.734375 -3.015625 C 11.117188 -3.617188 8.90625 -4.765625 7.09375 -6.453125 C 5.289062 -8.148438 4.007812 -10.222656 3.25 -12.671875 C 2.5 -15.117188 2.351562 -17.785156 2.8125 -20.671875 C 3 -21.953125 3.296875 -23.234375 3.703125 -24.515625 C 5.359375 -29.460938 7.867188 -32.757812 11.234375 -34.40625 C 14.597656 -36.050781 18.75 -36.03125 23.6875 -34.34375 C 23.914062 -34.25 24.164062 -34.164062 24.4375 -34.09375 C 24.71875 -34.03125 25.039062 -33.953125 25.40625 -33.859375 C 25.59375 -36.648438 25.773438 -39.40625 25.953125 -42.125 C 26.140625 -44.851562 26.320312 -47.566406 26.5 -50.265625 C 26.550781 -50.765625 26.578125 -51.289062 26.578125 -51.84375 C 26.578125 -52.394531 26.710938 -52.851562 26.984375 -53.21875 C 27.347656 -53.8125 27.816406 -54.394531 28.390625 -54.96875 C 28.960938 -55.539062 29.523438 -55.851562 30.078125 -55.90625 C 30.722656 -55.945312 31.398438 -55.75 32.109375 -55.3125 C 32.816406 -54.875 33.398438 -54.382812 33.859375 -53.84375 C 34.222656 -53.425781 34.460938 -52.863281 34.578125 -52.15625 C 34.691406 -51.445312 34.75 -50.75 34.75 -50.0625 Z M 23.765625 -16.140625 C 23.941406 -16.179688 24.097656 -16.335938 24.234375 -16.609375 C 24.378906 -16.890625 24.472656 -17.144531 24.515625 -17.375 C 24.554688 -18.425781 24.234375 -19.488281 23.546875 -20.5625 C 22.867188 -21.644531 21.988281 -22.539062 20.90625 -23.25 C 19.832031 -23.957031 18.769531 -24.285156 17.71875 -24.234375 C 17.445312 -24.191406 17.101562 -24.085938 16.6875 -23.921875 C 16.269531 -23.765625 16.019531 -23.597656 15.9375 -23.421875 C 15.5625 -22.316406 15.191406 -21.226562 14.828125 -20.15625 C 14.460938 -19.082031 14.210938 -17.972656 14.078125 -16.828125 C 13.984375 -16.003906 14.234375 -15.363281 14.828125 -14.90625 C 15.421875 -14.445312 16.175781 -14.191406 17.09375 -14.140625 C 18.195312 -14.460938 19.304688 -14.785156 20.421875 -15.109375 C 21.546875 -15.429688 22.660156 -15.773438 23.765625 -16.140625 Z M 23.765625 -16.140625 "/></g></g></g><g fill="#ef3220" fill-opacity="1"><g transform="translate(281.081367, 304.820754)"><g><path d="M 12.765625 -29.328125 C 12.765625 -28.546875 12.765625 -27.410156 12.765625 -25.921875 C 12.765625 -24.429688 12.753906 -22.835938 12.734375 -21.140625 C 12.710938 -19.453125 12.691406 -17.921875 12.671875 -16.546875 C 12.648438 -15.171875 12.640625 -14.210938 12.640625 -13.671875 C 12.585938 -12.984375 12.523438 -12.296875 12.453125 -11.609375 C 12.390625 -10.921875 12.289062 -10.234375 12.15625 -9.546875 C 11.832031 -7.710938 11.191406 -6.300781 10.234375 -5.3125 C 9.273438 -4.332031 8.175781 -3.890625 6.9375 -3.984375 C 5.695312 -4.078125 4.617188 -4.648438 3.703125 -5.703125 C 2.785156 -6.753906 2.421875 -8.171875 2.609375 -9.953125 C 2.878906 -13.347656 3.289062 -16.726562 3.84375 -20.09375 C 4.394531 -23.457031 4.96875 -26.832031 5.5625 -30.21875 C 5.75 -31.132812 6.195312 -31.863281 6.90625 -32.40625 C 7.613281 -32.957031 8.492188 -33.164062 9.546875 -33.03125 C 10.597656 -32.9375 11.382812 -32.535156 11.90625 -31.828125 C 12.4375 -31.117188 12.722656 -30.285156 12.765625 -29.328125 Z M 7.625 -38.9375 C 6.519531 -38.976562 5.585938 -39.421875 4.828125 -40.265625 C 4.078125 -41.117188 3.703125 -42.140625 3.703125 -43.328125 C 3.703125 -44.523438 4.113281 -45.546875 4.9375 -46.390625 C 5.769531 -47.234375 6.78125 -47.65625 7.96875 -47.65625 C 9.113281 -47.65625 10.085938 -47.253906 10.890625 -46.453125 C 11.691406 -45.648438 12.066406 -44.65625 12.015625 -43.46875 C 12.015625 -42.226562 11.566406 -41.148438 10.671875 -40.234375 C 9.785156 -39.328125 8.769531 -38.894531 7.625 -38.9375 Z M 7.625 -38.9375 "/></g></g></g><g fill="#ef3220" fill-opacity="1"><g transform="translate(296.464663, 304.820754)"><g><path d="M 29.59375 -33.234375 C 31.332031 -31.453125 32.335938 -29.519531 32.609375 -27.4375 C 32.890625 -25.351562 32.476562 -23.425781 31.375 -21.65625 C 30.28125 -19.894531 28.566406 -18.601562 26.234375 -17.78125 C 24.359375 -17.144531 22.398438 -16.695312 20.359375 -16.4375 C 18.328125 -16.1875 16.234375 -15.859375 14.078125 -15.453125 C 14.722656 -15.265625 15.34375 -15.066406 15.9375 -14.859375 C 16.53125 -14.660156 17.125 -14.515625 17.71875 -14.421875 C 18.90625 -14.191406 20.101562 -14.019531 21.3125 -13.90625 C 22.53125 -13.789062 23.710938 -13.550781 24.859375 -13.1875 C 26.503906 -12.632812 27.5 -11.707031 27.84375 -10.40625 C 28.1875 -9.101562 27.738281 -7.832031 26.5 -6.59375 C 25.863281 -5.90625 25.0625 -5.296875 24.09375 -4.765625 C 23.132812 -4.242188 22.195312 -3.9375 21.28125 -3.84375 C 17.070312 -3.4375 13.523438 -3.972656 10.640625 -5.453125 C 7.753906 -6.941406 5.625 -9.0625 4.25 -11.8125 C 2.882812 -14.5625 2.335938 -17.628906 2.609375 -21.015625 C 2.796875 -23.117188 3.160156 -25.144531 3.703125 -27.09375 C 4.253906 -29.039062 5.125 -30.90625 6.3125 -32.6875 C 7.820312 -35.019531 9.765625 -36.703125 12.140625 -37.734375 C 14.523438 -38.765625 17.09375 -39.003906 19.84375 -38.453125 C 23.738281 -37.765625 26.988281 -36.023438 29.59375 -33.234375 Z M 23.546875 -26.640625 C 23.640625 -26.640625 23.742188 -26.671875 23.859375 -26.734375 C 23.972656 -26.804688 24.125 -26.890625 24.3125 -26.984375 C 23.4375 -28.222656 22.347656 -29.101562 21.046875 -29.625 C 19.742188 -30.15625 18.519531 -30.257812 17.375 -29.9375 C 16.320312 -29.613281 15.539062 -29.070312 15.03125 -28.3125 C 14.53125 -27.5625 14.144531 -26.660156 13.875 -25.609375 C 15.5625 -25.796875 17.207031 -25.96875 18.8125 -26.125 C 20.414062 -26.289062 21.992188 -26.460938 23.546875 -26.640625 Z M 23.546875 -26.640625 "/></g></g></g><g fill="#ef3220" fill-opacity="1"><g transform="translate(331.763819, 304.820754)"><g><path d="M 26.15625 -19.921875 C 28.269531 -17.953125 29.507812 -15.851562 29.875 -13.625 C 30.238281 -11.40625 29.8125 -9.332031 28.59375 -7.40625 C 27.382812 -5.488281 25.429688 -4.023438 22.734375 -3.015625 C 21.453125 -2.515625 20.097656 -2.113281 18.671875 -1.8125 C 17.253906 -1.519531 15.882812 -1.421875 14.5625 -1.515625 C 13.320312 -1.597656 12.070312 -1.878906 10.8125 -2.359375 C 9.550781 -2.847656 8.375 -3.4375 7.28125 -4.125 C 6 -4.945312 5.1875 -6.03125 4.84375 -7.375 C 4.5 -8.726562 4.578125 -9.976562 5.078125 -11.125 C 5.585938 -12.21875 6.425781 -13.015625 7.59375 -13.515625 C 8.757812 -14.023438 10.117188 -14.191406 11.671875 -14.015625 C 12.773438 -13.867188 13.863281 -13.75 14.9375 -13.65625 C 16.007812 -13.570312 17.070312 -13.484375 18.125 -13.390625 C 18.175781 -13.523438 18.222656 -13.660156 18.265625 -13.796875 C 18.304688 -13.941406 18.351562 -14.101562 18.40625 -14.28125 C 17.582031 -14.5625 16.742188 -14.835938 15.890625 -15.109375 C 15.046875 -15.378906 14.234375 -15.695312 13.453125 -16.0625 C 12.085938 -16.75 10.71875 -17.410156 9.34375 -18.046875 C 7.96875 -18.691406 6.726562 -19.5 5.625 -20.46875 C 3.84375 -21.976562 2.835938 -23.757812 2.609375 -25.8125 C 2.378906 -27.875 2.789062 -29.9375 3.84375 -32 C 4.894531 -34.007812 6.425781 -35.675781 8.4375 -37 C 10.457031 -38.332031 12.644531 -39.226562 15 -39.6875 C 17.363281 -40.144531 19.617188 -40.03125 21.765625 -39.34375 C 23.410156 -38.84375 24.757812 -38.050781 25.8125 -36.96875 C 26.875 -35.894531 27.492188 -34.515625 27.671875 -32.828125 C 27.765625 -32.140625 27.6875 -31.40625 27.4375 -30.625 C 27.1875 -29.84375 26.832031 -29.179688 26.375 -28.640625 C 25.820312 -27.953125 25.15625 -27.695312 24.375 -27.875 C 23.601562 -28.0625 22.847656 -28.335938 22.109375 -28.703125 C 20.460938 -29.617188 18.984375 -29.960938 17.671875 -29.734375 C 16.367188 -29.503906 15.101562 -28.65625 13.875 -27.1875 C 14.46875 -26.914062 15.015625 -26.664062 15.515625 -26.4375 C 16.023438 -26.207031 16.507812 -25.957031 16.96875 -25.6875 C 18.519531 -24.769531 20.117188 -23.875 21.765625 -23 C 23.410156 -22.132812 24.875 -21.109375 26.15625 -19.921875 Z M 26.15625 -19.921875 "/></g></g></g></svg>