<svg xmlns="http://www.w3.org/2000/svg" xmlns:xlink="http://www.w3.org/1999/xlink" width="500" zoomAndPan="magnify" viewBox="0 0 375 374.999991" height="500" preserveAspectRatio="xMidYMid meet" version="1.0"><defs><g/><clipPath id="71c2d993e5"><path d="M 50 153 L 107.214844 153 L 107.214844 185 L 50 185 Z M 50 153 " clip-rule="nonzero"/></clipPath><clipPath id="37c5666e71"><path d="M 273.117188 153 L 330 153 L 330 185 L 273.117188 185 Z M 273.117188 153 " clip-rule="nonzero"/></clipPath><clipPath id="f31278e7ad"><path d="M 273.117188 175 L 281 175 L 281 183 L 273.117188 183 Z M 273.117188 175 " clip-rule="nonzero"/></clipPath></defs><rect x="-37.5" width="450" fill="#ffffff" y="-37.499999" height="449.999989" fill-opacity="1"/><rect x="-37.5" width="450" fill="#fdf8f5" y="-37.499999" height="449.999989" fill-opacity="1"/><g fill="#474545" fill-opacity="1"><g transform="translate(88.128952, 194.54663)"><g><path d="M 3.5625 2.890625 C 2.625 2.890625 1.78125 2.710938 1.03125 2.359375 C 0.289062 2.015625 -0.328125 1.523438 -0.828125 0.890625 C -1.328125 0.265625 -1.671875 -0.457031 -1.859375 -1.28125 C -2.054688 -2.113281 -2.070312 -3.007812 -1.90625 -3.96875 C -1.6875 -5.132812 -1.25 -6.429688 -0.59375 -7.859375 C 0.0507812 -9.296875 0.882812 -10.796875 1.90625 -12.359375 C 2.925781 -13.921875 4.09375 -15.5 5.40625 -17.09375 C 6.726562 -18.6875 8.160156 -20.234375 9.703125 -21.734375 C 11.242188 -23.234375 12.863281 -24.632812 14.5625 -25.9375 C 16.257812 -27.238281 17.988281 -28.378906 19.75 -29.359375 C 21.519531 -30.347656 23.296875 -31.117188 25.078125 -31.671875 C 26.859375 -32.234375 28.597656 -32.515625 30.296875 -32.515625 C 31.609375 -32.515625 32.71875 -32.304688 33.625 -31.890625 C 34.53125 -31.472656 35.191406 -30.890625 35.609375 -30.140625 C 36.035156 -29.390625 36.160156 -28.507812 35.984375 -27.5 C 35.796875 -26.425781 35.410156 -25.347656 34.828125 -24.265625 C 34.242188 -23.191406 33.519531 -22.140625 32.65625 -21.109375 C 31.789062 -20.085938 30.832031 -19.101562 29.78125 -18.15625 C 28.738281 -17.21875 27.648438 -16.34375 26.515625 -15.53125 C 25.378906 -14.71875 24.265625 -14.003906 23.171875 -13.390625 C 23.054688 -13.316406 22.925781 -13.28125 22.78125 -13.28125 C 22.570312 -13.28125 22.394531 -13.351562 22.25 -13.5 C 22.101562 -13.644531 22.03125 -13.828125 22.03125 -14.046875 C 22.03125 -14.335938 22.160156 -14.5625 22.421875 -14.71875 C 24.046875 -15.632812 25.550781 -16.632812 26.9375 -17.71875 C 28.320312 -18.800781 29.546875 -19.921875 30.609375 -21.078125 C 31.679688 -22.234375 32.550781 -23.375 33.21875 -24.5 C 33.894531 -25.632812 34.320312 -26.71875 34.5 -27.75 C 34.664062 -28.757812 34.378906 -29.550781 33.640625 -30.125 C 32.910156 -30.707031 31.796875 -31 30.296875 -31 C 28.679688 -31 27.03125 -30.734375 25.34375 -30.203125 C 23.65625 -29.679688 21.960938 -28.945312 20.265625 -28 C 18.578125 -27.050781 16.925781 -25.953125 15.3125 -24.703125 C 13.707031 -23.460938 12.164062 -22.125 10.6875 -20.6875 C 9.21875 -19.257812 7.851562 -17.78125 6.59375 -16.25 C 5.332031 -14.71875 4.210938 -13.207031 3.234375 -11.71875 C 2.265625 -10.226562 1.460938 -8.800781 0.828125 -7.4375 C 0.191406 -6.070312 -0.222656 -4.832031 -0.421875 -3.71875 C -0.585938 -2.75 -0.519531 -1.878906 -0.21875 -1.109375 C 0.0703125 -0.335938 0.539062 0.265625 1.1875 0.703125 C 1.84375 1.148438 2.632812 1.375 3.5625 1.375 C 5.351562 1.375 7.195312 1.210938 9.09375 0.890625 C 11 0.578125 12.90625 0.15625 14.8125 -0.375 C 16.71875 -0.914062 18.578125 -1.519531 20.390625 -2.1875 C 22.210938 -2.863281 23.9375 -3.566406 25.5625 -4.296875 C 27.1875 -5.035156 28.664062 -5.765625 30 -6.484375 C 31.34375 -7.203125 32.492188 -7.859375 33.453125 -8.453125 C 33.554688 -8.535156 33.6875 -8.578125 33.84375 -8.578125 C 34.0625 -8.578125 34.242188 -8.5 34.390625 -8.34375 C 34.535156 -8.195312 34.609375 -8.019531 34.609375 -7.8125 C 34.609375 -7.539062 34.488281 -7.320312 34.25 -7.15625 C 33.289062 -6.550781 32.125 -5.882812 30.75 -5.15625 C 29.382812 -4.4375 27.863281 -3.695312 26.1875 -2.9375 C 24.519531 -2.1875 22.753906 -1.460938 20.890625 -0.765625 C 19.023438 -0.0664062 17.113281 0.550781 15.15625 1.09375 C 13.195312 1.644531 11.234375 2.082031 9.265625 2.40625 C 7.304688 2.726562 5.40625 2.890625 3.5625 2.890625 Z M 3.5625 2.890625 "/></g></g></g><g fill="#474545" fill-opacity="1"><g transform="translate(119.802248, 194.54663)"><g><path d="M 1.21875 10.515625 C 0.320312 10.515625 -0.363281 10.273438 -0.84375 9.796875 C -1.320312 9.328125 -1.5625 8.664062 -1.5625 7.8125 C -1.5625 7.15625 -1.367188 6.421875 -0.984375 5.609375 C -0.609375 4.804688 -0.09375 3.96875 0.5625 3.09375 C 1.226562 2.21875 1.984375 1.3125 2.828125 0.375 C 3.671875 -0.5625 4.5625 -1.503906 5.5 -2.453125 C 6.445312 -3.410156 7.394531 -4.351562 8.34375 -5.28125 C 9.382812 -6.289062 10.375 -7.269531 11.3125 -8.21875 C 12.25 -9.175781 13.078125 -10.066406 13.796875 -10.890625 C 14.523438 -11.710938 15.097656 -12.445312 15.515625 -13.09375 C 15.941406 -13.75 16.15625 -14.296875 16.15625 -14.734375 C 16.15625 -15.015625 15.972656 -15.332031 15.609375 -15.6875 C 15.253906 -16.039062 14.640625 -16.503906 13.765625 -17.078125 C 12.597656 -15.867188 11.367188 -14.660156 10.078125 -13.453125 C 8.796875 -12.242188 7.515625 -11.097656 6.234375 -10.015625 C 4.953125 -8.941406 3.734375 -7.992188 2.578125 -7.171875 C 2.460938 -7.078125 2.3125 -7.03125 2.125 -7.03125 C 1.914062 -7.03125 1.738281 -7.101562 1.59375 -7.25 C 1.445312 -7.394531 1.375 -7.578125 1.375 -7.796875 C 1.375 -8.054688 1.484375 -8.265625 1.703125 -8.421875 C 2.972656 -9.304688 4.234375 -10.273438 5.484375 -11.328125 C 6.742188 -12.378906 7.96875 -13.460938 9.15625 -14.578125 C 10.34375 -15.703125 11.460938 -16.8125 12.515625 -17.90625 C 11.546875 -18.550781 10.875 -19.070312 10.5 -19.46875 C 10.132812 -19.875 9.953125 -20.28125 9.953125 -20.6875 C 9.953125 -21.101562 10.117188 -21.570312 10.453125 -22.09375 C 10.785156 -22.613281 11.234375 -23.15625 11.796875 -23.71875 C 12.367188 -24.289062 13 -24.847656 13.6875 -25.390625 C 14.382812 -25.929688 15.101562 -26.414062 15.84375 -26.84375 C 16.582031 -27.28125 17.289062 -27.628906 17.96875 -27.890625 C 18.65625 -28.148438 19.253906 -28.28125 19.765625 -28.28125 C 20.171875 -28.28125 20.488281 -28.160156 20.71875 -27.921875 C 20.957031 -27.679688 21.078125 -27.347656 21.078125 -26.921875 C 21.078125 -26.484375 20.828125 -25.84375 20.328125 -25 C 19.835938 -24.164062 19.125 -23.171875 18.1875 -22.015625 C 17.25 -20.867188 16.128906 -19.59375 14.828125 -18.1875 C 14.984375 -18.03125 15.144531 -17.875 15.3125 -17.71875 C 15.476562 -17.570312 15.640625 -17.4375 15.796875 -17.3125 C 16.328125 -16.832031 16.769531 -16.394531 17.125 -16 C 17.488281 -15.613281 17.671875 -15.191406 17.671875 -14.734375 C 17.671875 -14.128906 17.4375 -13.429688 16.96875 -12.640625 C 16.507812 -11.859375 15.882812 -11.007812 15.09375 -10.09375 C 14.3125 -9.175781 13.429688 -8.21875 12.453125 -7.21875 C 11.472656 -6.21875 10.460938 -5.210938 9.421875 -4.203125 C 8.253906 -3.046875 7.101562 -1.894531 5.96875 -0.75 C 4.84375 0.382812 3.828125 1.472656 2.921875 2.515625 C 2.015625 3.566406 1.289062 4.539062 0.75 5.4375 C 0.21875 6.34375 -0.046875 7.132812 -0.046875 7.8125 C -0.046875 8.25 0.0390625 8.554688 0.21875 8.734375 C 0.40625 8.910156 0.738281 9 1.21875 9 C 2 9 2.972656 8.800781 4.140625 8.40625 C 5.304688 8.007812 6.617188 7.457031 8.078125 6.75 C 9.546875 6.050781 11.101562 5.234375 12.75 4.296875 C 14.394531 3.367188 16.082031 2.375 17.8125 1.3125 C 19.550781 0.25 21.28125 -0.84375 23 -1.96875 C 24.71875 -3.09375 26.367188 -4.203125 27.953125 -5.296875 C 29.546875 -6.398438 31.023438 -7.441406 32.390625 -8.421875 C 32.503906 -8.523438 32.648438 -8.578125 32.828125 -8.578125 C 33.046875 -8.578125 33.226562 -8.5 33.375 -8.34375 C 33.519531 -8.195312 33.59375 -8.019531 33.59375 -7.8125 C 33.59375 -7.539062 33.488281 -7.335938 33.28125 -7.203125 C 31.914062 -6.210938 30.425781 -5.160156 28.8125 -4.046875 C 27.195312 -2.941406 25.515625 -1.8125 23.765625 -0.65625 C 22.023438 0.488281 20.269531 1.601562 18.5 2.6875 C 16.726562 3.769531 14.992188 4.78125 13.296875 5.71875 C 11.597656 6.664062 9.988281 7.5 8.46875 8.21875 C 6.945312 8.9375 5.566406 9.5 4.328125 9.90625 C 3.085938 10.3125 2.050781 10.515625 1.21875 10.515625 Z M 13.5625 -19.03125 C 14.0625 -19.5625 14.613281 -20.171875 15.21875 -20.859375 C 15.832031 -21.546875 16.429688 -22.242188 17.015625 -22.953125 C 17.597656 -23.671875 18.101562 -24.328125 18.53125 -24.921875 C 18.957031 -25.523438 19.242188 -25.992188 19.390625 -26.328125 C 19.429688 -26.453125 19.414062 -26.539062 19.34375 -26.59375 C 19.269531 -26.65625 19.164062 -26.675781 19.03125 -26.65625 C 18.664062 -26.582031 18.222656 -26.414062 17.703125 -26.15625 C 17.191406 -25.894531 16.65625 -25.578125 16.09375 -25.203125 C 15.53125 -24.828125 14.972656 -24.425781 14.421875 -24 C 13.867188 -23.582031 13.367188 -23.160156 12.921875 -22.734375 C 12.484375 -22.316406 12.128906 -21.925781 11.859375 -21.5625 C 11.597656 -21.207031 11.46875 -20.914062 11.46875 -20.6875 C 11.46875 -20.519531 12.164062 -19.96875 13.5625 -19.03125 Z M 13.5625 -19.03125 "/></g></g></g><g fill="#474545" fill-opacity="1"><g transform="translate(150.462019, 194.54663)"><g><path d="M 30.0625 -8.578125 C 30.257812 -8.578125 30.4375 -8.5 30.59375 -8.34375 C 30.75 -8.1875 30.828125 -8.007812 30.828125 -7.8125 C 30.828125 -7.539062 30.710938 -7.328125 30.484375 -7.171875 C 29.421875 -6.421875 28.238281 -5.675781 26.9375 -4.9375 C 25.644531 -4.207031 24.320312 -3.53125 22.96875 -2.90625 C 21.625 -2.28125 20.304688 -1.726562 19.015625 -1.25 C 17.722656 -0.769531 16.550781 -0.394531 15.5 -0.125 C 14.445312 0.144531 13.570312 0.28125 12.875 0.28125 C 11.695312 0.28125 10.796875 0.0195312 10.171875 -0.5 C 9.546875 -1.019531 9.234375 -1.773438 9.234375 -2.765625 C 9.234375 -3.566406 9.414062 -4.382812 9.78125 -5.21875 C 10.15625 -6.050781 10.582031 -6.847656 11.0625 -7.609375 C 11.175781 -7.785156 11.203125 -7.898438 11.140625 -7.953125 C 11.078125 -8.015625 10.960938 -7.984375 10.796875 -7.859375 C 10.648438 -7.753906 10.503906 -7.648438 10.359375 -7.546875 C 10.222656 -7.441406 10.078125 -7.332031 9.921875 -7.21875 C 9.117188 -6.644531 8.25 -6.019531 7.3125 -5.34375 C 6.375 -4.675781 5.421875 -4.019531 4.453125 -3.375 C 3.492188 -2.738281 2.554688 -2.15625 1.640625 -1.625 C 0.734375 -1.101562 -0.109375 -0.679688 -0.890625 -0.359375 C -1.671875 -0.046875 -2.335938 0.109375 -2.890625 0.109375 C -3.472656 0.109375 -3.9375 -0.046875 -4.28125 -0.359375 C -4.632812 -0.671875 -4.8125 -1.085938 -4.8125 -1.609375 C -4.8125 -2.171875 -4.59375 -2.773438 -4.15625 -3.421875 C -3.71875 -4.066406 -3.132812 -4.71875 -2.40625 -5.375 C -1.6875 -6.039062 -0.882812 -6.675781 0 -7.28125 C 0.882812 -7.882812 1.78125 -8.425781 2.6875 -8.90625 C 3.59375 -9.382812 4.453125 -9.757812 5.265625 -10.03125 C 6.078125 -10.3125 6.757812 -10.453125 7.3125 -10.453125 C 7.976562 -10.453125 8.519531 -10.347656 8.9375 -10.140625 C 9.351562 -9.941406 9.703125 -9.609375 9.984375 -9.140625 C 10.785156 -9.722656 11.414062 -10.171875 11.875 -10.484375 C 12.332031 -10.796875 12.6875 -11.007812 12.9375 -11.125 C 13.195312 -11.25 13.40625 -11.3125 13.5625 -11.3125 C 13.8125 -11.3125 14.023438 -11.226562 14.203125 -11.0625 C 14.378906 -10.894531 14.46875 -10.6875 14.46875 -10.4375 C 14.46875 -10.195312 14.367188 -9.910156 14.171875 -9.578125 C 13.972656 -9.242188 13.703125 -8.832031 13.359375 -8.34375 C 12.992188 -7.800781 12.609375 -7.207031 12.203125 -6.5625 C 11.796875 -5.925781 11.453125 -5.28125 11.171875 -4.625 C 10.890625 -3.976562 10.75 -3.359375 10.75 -2.765625 C 10.75 -2.234375 10.910156 -1.847656 11.234375 -1.609375 C 11.566406 -1.367188 12.113281 -1.25 12.875 -1.25 C 13.46875 -1.25 14.25 -1.367188 15.21875 -1.609375 C 16.195312 -1.847656 17.289062 -2.179688 18.5 -2.609375 C 19.707031 -3.046875 20.960938 -3.5625 22.265625 -4.15625 C 23.566406 -4.757812 24.847656 -5.421875 26.109375 -6.140625 C 27.378906 -6.859375 28.550781 -7.617188 29.625 -8.421875 C 29.738281 -8.523438 29.882812 -8.578125 30.0625 -8.578125 Z M 8.734375 -8.25 C 8.585938 -8.53125 8.421875 -8.710938 8.234375 -8.796875 C 8.046875 -8.890625 7.738281 -8.9375 7.3125 -8.9375 C 6.789062 -8.9375 6.164062 -8.804688 5.4375 -8.546875 C 4.707031 -8.285156 3.945312 -7.9375 3.15625 -7.5 C 2.363281 -7.070312 1.585938 -6.597656 0.828125 -6.078125 C 0.0664062 -5.554688 -0.617188 -5.03125 -1.234375 -4.5 C -1.859375 -3.96875 -2.359375 -3.460938 -2.734375 -2.984375 C -3.109375 -2.503906 -3.296875 -2.101562 -3.296875 -1.78125 C -3.296875 -1.539062 -3.160156 -1.421875 -2.890625 -1.421875 C -2.210938 -1.421875 -1.300781 -1.722656 -0.15625 -2.328125 C 0.988281 -2.929688 2.316406 -3.75 3.828125 -4.78125 C 5.347656 -5.8125 6.984375 -6.96875 8.734375 -8.25 Z M 8.734375 -8.25 "/></g></g></g><g fill="#474545" fill-opacity="1"><g transform="translate(178.37677, 194.54663)"><g><path d="M 18.4375 -8.578125 C 18.644531 -8.578125 18.820312 -8.5 18.96875 -8.34375 C 19.113281 -8.195312 19.1875 -8.019531 19.1875 -7.8125 C 19.1875 -7.539062 19.078125 -7.328125 18.859375 -7.171875 C 17.253906 -6.046875 15.671875 -5.132812 14.109375 -4.4375 C 12.546875 -3.75 11.007812 -3.21875 9.5 -2.84375 C 8 -2.476562 6.519531 -2.234375 5.0625 -2.109375 C 3.601562 -1.984375 2.175781 -1.921875 0.78125 -1.921875 C 0.507812 -1.921875 0.207031 -1.929688 -0.125 -1.953125 C -0.46875 -1.972656 -0.820312 -2 -1.1875 -2.03125 C -3.050781 0.476562 -4.882812 2.976562 -6.6875 5.46875 C -8.488281 7.957031 -10.207031 10.382812 -11.84375 12.75 C -13.488281 15.113281 -15.007812 17.359375 -16.40625 19.484375 C -17.8125 21.609375 -19.050781 23.5625 -20.125 25.34375 C -19.96875 25.519531 -19.984375 25.78125 -20.171875 26.125 C -21.015625 27.738281 -21.722656 28.546875 -22.296875 28.546875 C -22.640625 28.546875 -22.875 28.441406 -23 28.234375 C -23.125 28.023438 -23.128906 27.742188 -23.015625 27.390625 C -22.984375 27.273438 -22.9375 27.15625 -22.875 27.03125 C -22.8125 26.914062 -22.742188 26.796875 -22.671875 26.671875 C -21.671875 24.953125 -20.46875 22.992188 -19.0625 20.796875 C -17.65625 18.597656 -16.085938 16.242188 -14.359375 13.734375 C -12.640625 11.222656 -10.804688 8.613281 -8.859375 5.90625 C -6.921875 3.207031 -4.929688 0.5 -2.890625 -2.21875 C -3.929688 -2.375 -5.0625 -2.59375 -6.28125 -2.875 C -7.507812 -3.164062 -8.742188 -3.53125 -9.984375 -3.96875 C -10.335938 -4.082031 -10.515625 -4.320312 -10.515625 -4.6875 C -10.515625 -4.894531 -10.441406 -5.070312 -10.296875 -5.21875 C -10.148438 -5.375 -9.96875 -5.453125 -9.75 -5.453125 C -9.695312 -5.453125 -9.648438 -5.445312 -9.609375 -5.4375 C -9.566406 -5.425781 -9.523438 -5.414062 -9.484375 -5.40625 C -8.097656 -4.925781 -6.75 -4.539062 -5.4375 -4.25 C -4.125 -3.96875 -2.929688 -3.757812 -1.859375 -3.625 C -1.265625 -4.414062 -0.664062 -5.203125 -0.0625 -5.984375 C 0.53125 -6.765625 1.128906 -7.535156 1.734375 -8.296875 C 1.734375 -8.398438 1.78125 -8.472656 1.875 -8.515625 L 1.90625 -8.53125 C 5.207031 -12.8125 8.265625 -16.632812 11.078125 -20 C 13.898438 -23.375 16.421875 -26.238281 18.640625 -28.59375 C 20.867188 -30.957031 22.75 -32.753906 24.28125 -33.984375 C 25.8125 -35.210938 26.957031 -35.828125 27.71875 -35.828125 C 28.21875 -35.828125 28.625 -35.6875 28.9375 -35.40625 C 29.257812 -35.125 29.421875 -34.765625 29.421875 -34.328125 C 29.421875 -33.898438 29.203125 -33.269531 28.765625 -32.4375 C 28.328125 -31.613281 27.707031 -30.648438 26.90625 -29.546875 C 26.101562 -28.441406 25.160156 -27.242188 24.078125 -25.953125 C 22.992188 -24.671875 21.800781 -23.335938 20.5 -21.953125 C 19.195312 -20.566406 17.816406 -19.175781 16.359375 -17.78125 C 14.898438 -16.394531 13.40625 -15.054688 11.875 -13.765625 C 10.351562 -12.472656 8.820312 -11.273438 7.28125 -10.171875 C 5.75 -9.066406 4.25 -8.101562 2.78125 -7.28125 L -0.109375 -3.46875 C 0.0546875 -3.46875 0.210938 -3.460938 0.359375 -3.453125 C 0.515625 -3.441406 0.65625 -3.4375 0.78125 -3.4375 C 2.15625 -3.4375 3.535156 -3.492188 4.921875 -3.609375 C 6.316406 -3.734375 7.726562 -3.96875 9.15625 -4.3125 C 10.582031 -4.65625 12.03125 -5.160156 13.5 -5.828125 C 14.96875 -6.492188 16.460938 -7.359375 17.984375 -8.421875 C 18.097656 -8.523438 18.25 -8.578125 18.4375 -8.578125 Z M 5.546875 -10.8125 C 6.984375 -11.800781 8.445312 -12.929688 9.9375 -14.203125 C 11.4375 -15.472656 12.914062 -16.8125 14.375 -18.21875 C 15.832031 -19.625 17.226562 -21.035156 18.5625 -22.453125 C 19.894531 -23.878906 21.125 -25.25 22.25 -26.5625 C 23.382812 -27.875 24.375 -29.0625 25.21875 -30.125 C 26.0625 -31.1875 26.710938 -32.066406 27.171875 -32.765625 C 27.640625 -33.472656 27.875 -33.925781 27.875 -34.125 C 27.875 -34.238281 27.820312 -34.296875 27.71875 -34.296875 C 27.332031 -34.296875 26.75 -34.015625 25.96875 -33.453125 C 25.195312 -32.890625 24.289062 -32.109375 23.25 -31.109375 C 22.207031 -30.117188 21.082031 -28.976562 19.875 -27.6875 C 18.675781 -26.40625 17.429688 -25.03125 16.140625 -23.5625 C 14.859375 -22.101562 13.582031 -20.617188 12.3125 -19.109375 C 11.039062 -17.597656 9.828125 -16.132812 8.671875 -14.71875 C 7.523438 -13.3125 6.484375 -12.007812 5.546875 -10.8125 Z M 5.546875 -10.8125 "/></g></g></g><g fill="#474545" fill-opacity="1"><g transform="translate(194.656849, 194.54663)"><g><path d="M 38.875 -22.296875 C 39.082031 -22.285156 39.253906 -22.203125 39.390625 -22.046875 C 39.535156 -21.898438 39.609375 -21.726562 39.609375 -21.53125 C 39.609375 -21.320312 39.535156 -21.144531 39.390625 -21 C 39.242188 -20.851562 39.066406 -20.78125 38.859375 -20.78125 L 38.8125 -20.78125 C 34.84375 -20.9375 30.765625 -21.015625 26.578125 -21.015625 C 22.398438 -21.015625 18.207031 -20.921875 14 -20.734375 C 10.070312 -16.128906 6.203125 -11.4375 2.390625 -6.65625 C -1.410156 -1.882812 -5.0625 2.90625 -8.5625 7.71875 C -12.070312 12.539062 -15.347656 17.320312 -18.390625 22.0625 C -18.265625 22.257812 -18.296875 22.53125 -18.484375 22.875 C -19.128906 23.957031 -19.703125 24.5 -20.203125 24.5 C -20.546875 24.5 -20.78125 24.394531 -20.90625 24.1875 C -21.03125 23.976562 -21.035156 23.703125 -20.921875 23.359375 L -20.921875 23.328125 C -20.835938 23.085938 -20.707031 22.835938 -20.53125 22.578125 C -17.5 17.785156 -14.226562 12.960938 -10.71875 8.109375 C -7.21875 3.253906 -3.554688 -1.582031 0.265625 -6.40625 C 4.085938 -11.238281 7.976562 -15.988281 11.9375 -20.65625 C 7.9375 -20.46875 4.015625 -20.210938 0.171875 -19.890625 C -3.660156 -19.566406 -7.320312 -19.179688 -10.8125 -18.734375 L -10.921875 -18.734375 C -11.128906 -18.734375 -11.304688 -18.804688 -11.453125 -18.953125 C -11.597656 -19.097656 -11.671875 -19.273438 -11.671875 -19.484375 C -11.671875 -19.679688 -11.601562 -19.851562 -11.46875 -20 C -11.34375 -20.15625 -11.1875 -20.238281 -11 -20.25 C -7.257812 -20.726562 -3.34375 -21.128906 0.75 -21.453125 C 4.851562 -21.785156 9.023438 -22.046875 13.265625 -22.234375 C 15.828125 -25.222656 18.453125 -28.226562 21.140625 -31.25 C 23.828125 -34.28125 26.585938 -37.320312 29.421875 -40.375 C 29.546875 -40.539062 29.726562 -40.625 29.96875 -40.625 C 30.175781 -40.625 30.351562 -40.550781 30.5 -40.40625 C 30.644531 -40.257812 30.71875 -40.082031 30.71875 -39.875 C 30.71875 -39.65625 30.648438 -39.484375 30.515625 -39.359375 C 28.023438 -36.640625 25.507812 -33.851562 22.96875 -31 C 20.425781 -28.15625 17.878906 -25.257812 15.328125 -22.3125 C 19.242188 -22.457031 23.179688 -22.53125 27.140625 -22.53125 C 31.109375 -22.53125 35.019531 -22.453125 38.875 -22.296875 Z M 38.875 -22.296875 "/></g></g></g><g fill="#474545" fill-opacity="1"><g transform="translate(208.930965, 194.54663)"><g><path d="M 22.828125 -8.578125 C 23.023438 -8.578125 23.203125 -8.5 23.359375 -8.34375 C 23.515625 -8.1875 23.59375 -8.007812 23.59375 -7.8125 C 23.59375 -7.519531 23.457031 -7.296875 23.1875 -7.140625 C 21.9375 -6.421875 20.554688 -5.90625 19.046875 -5.59375 C 17.535156 -5.28125 15.976562 -5.171875 14.375 -5.265625 C 12.769531 -5.359375 11.179688 -5.644531 9.609375 -6.125 C 8.035156 -6.601562 6.535156 -7.269531 5.109375 -8.125 C 5.210938 -7.34375 5.179688 -6.523438 5.015625 -5.671875 C 4.847656 -4.816406 4.578125 -3.988281 4.203125 -3.1875 C 3.835938 -2.394531 3.394531 -1.679688 2.875 -1.046875 C 2.363281 -0.421875 1.8125 0.078125 1.21875 0.453125 C 0.632812 0.828125 0.03125 1.015625 -0.59375 1.015625 C -1.195312 1.015625 -1.6875 0.789062 -2.0625 0.34375 C -2.4375 -0.09375 -2.625 -0.679688 -2.625 -1.421875 C -2.625 -2.304688 -2.375 -3.234375 -1.875 -4.203125 C -1.375 -5.171875 -0.679688 -6.113281 0.203125 -7.03125 C 1.097656 -7.945312 2.117188 -8.75 3.265625 -9.4375 C 3.316406 -9.476562 3.351562 -9.519531 3.375 -9.5625 C 3.445312 -9.820312 3.601562 -10.015625 3.84375 -10.140625 C 4.082031 -10.265625 4.328125 -10.289062 4.578125 -10.21875 C 4.648438 -10.207031 4.707031 -10.207031 4.75 -10.21875 C 4.957031 -10.332031 5.175781 -10.429688 5.40625 -10.515625 C 5.644531 -10.597656 5.882812 -10.679688 6.125 -10.765625 C 6.238281 -10.796875 6.320312 -10.8125 6.375 -10.8125 C 6.570312 -10.8125 6.75 -10.734375 6.90625 -10.578125 C 7.0625 -10.421875 7.140625 -10.242188 7.140625 -10.046875 C 7.140625 -9.671875 6.960938 -9.425781 6.609375 -9.3125 C 6.566406 -9.300781 6.523438 -9.289062 6.484375 -9.28125 C 6.441406 -9.269531 6.398438 -9.253906 6.359375 -9.234375 C 6.335938 -9.234375 6.320312 -9.226562 6.3125 -9.21875 C 6.3125 -9.207031 6.3125 -9.203125 6.3125 -9.203125 C 7.59375 -8.472656 8.941406 -7.90625 10.359375 -7.5 C 11.773438 -7.09375 13.195312 -6.851562 14.625 -6.78125 C 16.0625 -6.707031 17.445312 -6.804688 18.78125 -7.078125 C 20.113281 -7.359375 21.335938 -7.816406 22.453125 -8.453125 C 22.554688 -8.535156 22.679688 -8.578125 22.828125 -8.578125 Z M -0.59375 -0.5 C -0.1875 -0.5 0.226562 -0.65625 0.65625 -0.96875 C 1.09375 -1.28125 1.5 -1.695312 1.875 -2.21875 C 2.257812 -2.738281 2.59375 -3.320312 2.875 -3.96875 C 3.15625 -4.613281 3.363281 -5.273438 3.5 -5.953125 C 3.644531 -6.628906 3.679688 -7.269531 3.609375 -7.875 C 2.679688 -7.269531 1.863281 -6.59375 1.15625 -5.84375 C 0.457031 -5.101562 -0.0859375 -4.347656 -0.484375 -3.578125 C -0.890625 -2.804688 -1.09375 -2.085938 -1.09375 -1.421875 C -1.09375 -0.804688 -0.925781 -0.5 -0.59375 -0.5 Z M -0.59375 -0.5 "/></g></g></g><g fill="#474545" fill-opacity="1"><g transform="translate(229.603069, 194.54663)"><g><path d="M 1.21875 10.515625 C 0.320312 10.515625 -0.363281 10.273438 -0.84375 9.796875 C -1.320312 9.328125 -1.5625 8.664062 -1.5625 7.8125 C -1.5625 7.15625 -1.367188 6.421875 -0.984375 5.609375 C -0.609375 4.804688 -0.09375 3.96875 0.5625 3.09375 C 1.226562 2.21875 1.984375 1.3125 2.828125 0.375 C 3.671875 -0.5625 4.5625 -1.503906 5.5 -2.453125 C 6.445312 -3.410156 7.394531 -4.351562 8.34375 -5.28125 C 9.382812 -6.289062 10.375 -7.269531 11.3125 -8.21875 C 12.25 -9.175781 13.078125 -10.066406 13.796875 -10.890625 C 14.523438 -11.710938 15.097656 -12.445312 15.515625 -13.09375 C 15.941406 -13.75 16.15625 -14.296875 16.15625 -14.734375 C 16.15625 -15.015625 15.972656 -15.332031 15.609375 -15.6875 C 15.253906 -16.039062 14.640625 -16.503906 13.765625 -17.078125 C 12.597656 -15.867188 11.367188 -14.660156 10.078125 -13.453125 C 8.796875 -12.242188 7.515625 -11.097656 6.234375 -10.015625 C 4.953125 -8.941406 3.734375 -7.992188 2.578125 -7.171875 C 2.460938 -7.078125 2.3125 -7.03125 2.125 -7.03125 C 1.914062 -7.03125 1.738281 -7.101562 1.59375 -7.25 C 1.445312 -7.394531 1.375 -7.578125 1.375 -7.796875 C 1.375 -8.054688 1.484375 -8.265625 1.703125 -8.421875 C 2.972656 -9.304688 4.234375 -10.273438 5.484375 -11.328125 C 6.742188 -12.378906 7.96875 -13.460938 9.15625 -14.578125 C 10.34375 -15.703125 11.460938 -16.8125 12.515625 -17.90625 C 11.546875 -18.550781 10.875 -19.070312 10.5 -19.46875 C 10.132812 -19.875 9.953125 -20.28125 9.953125 -20.6875 C 9.953125 -21.101562 10.117188 -21.570312 10.453125 -22.09375 C 10.785156 -22.613281 11.234375 -23.15625 11.796875 -23.71875 C 12.367188 -24.289062 13 -24.847656 13.6875 -25.390625 C 14.382812 -25.929688 15.101562 -26.414062 15.84375 -26.84375 C 16.582031 -27.28125 17.289062 -27.628906 17.96875 -27.890625 C 18.65625 -28.148438 19.253906 -28.28125 19.765625 -28.28125 C 20.171875 -28.28125 20.488281 -28.160156 20.71875 -27.921875 C 20.957031 -27.679688 21.078125 -27.347656 21.078125 -26.921875 C 21.078125 -26.484375 20.828125 -25.84375 20.328125 -25 C 19.835938 -24.164062 19.125 -23.171875 18.1875 -22.015625 C 17.25 -20.867188 16.128906 -19.59375 14.828125 -18.1875 C 14.984375 -18.03125 15.144531 -17.875 15.3125 -17.71875 C 15.476562 -17.570312 15.640625 -17.4375 15.796875 -17.3125 C 16.328125 -16.832031 16.769531 -16.394531 17.125 -16 C 17.488281 -15.613281 17.671875 -15.191406 17.671875 -14.734375 C 17.671875 -14.128906 17.4375 -13.429688 16.96875 -12.640625 C 16.507812 -11.859375 15.882812 -11.007812 15.09375 -10.09375 C 14.3125 -9.175781 13.429688 -8.21875 12.453125 -7.21875 C 11.472656 -6.21875 10.460938 -5.210938 9.421875 -4.203125 C 8.253906 -3.046875 7.101562 -1.894531 5.96875 -0.75 C 4.84375 0.382812 3.828125 1.472656 2.921875 2.515625 C 2.015625 3.566406 1.289062 4.539062 0.75 5.4375 C 0.21875 6.34375 -0.046875 7.132812 -0.046875 7.8125 C -0.046875 8.25 0.0390625 8.554688 0.21875 8.734375 C 0.40625 8.910156 0.738281 9 1.21875 9 C 2 9 2.972656 8.800781 4.140625 8.40625 C 5.304688 8.007812 6.617188 7.457031 8.078125 6.75 C 9.546875 6.050781 11.101562 5.234375 12.75 4.296875 C 14.394531 3.367188 16.082031 2.375 17.8125 1.3125 C 19.550781 0.25 21.28125 -0.84375 23 -1.96875 C 24.71875 -3.09375 26.367188 -4.203125 27.953125 -5.296875 C 29.546875 -6.398438 31.023438 -7.441406 32.390625 -8.421875 C 32.503906 -8.523438 32.648438 -8.578125 32.828125 -8.578125 C 33.046875 -8.578125 33.226562 -8.5 33.375 -8.34375 C 33.519531 -8.195312 33.59375 -8.019531 33.59375 -7.8125 C 33.59375 -7.539062 33.488281 -7.335938 33.28125 -7.203125 C 31.914062 -6.210938 30.425781 -5.160156 28.8125 -4.046875 C 27.195312 -2.941406 25.515625 -1.8125 23.765625 -0.65625 C 22.023438 0.488281 20.269531 1.601562 18.5 2.6875 C 16.726562 3.769531 14.992188 4.78125 13.296875 5.71875 C 11.597656 6.664062 9.988281 7.5 8.46875 8.21875 C 6.945312 8.9375 5.566406 9.5 4.328125 9.90625 C 3.085938 10.3125 2.050781 10.515625 1.21875 10.515625 Z M 13.5625 -19.03125 C 14.0625 -19.5625 14.613281 -20.171875 15.21875 -20.859375 C 15.832031 -21.546875 16.429688 -22.242188 17.015625 -22.953125 C 17.597656 -23.671875 18.101562 -24.328125 18.53125 -24.921875 C 18.957031 -25.523438 19.242188 -25.992188 19.390625 -26.328125 C 19.429688 -26.453125 19.414062 -26.539062 19.34375 -26.59375 C 19.269531 -26.65625 19.164062 -26.675781 19.03125 -26.65625 C 18.664062 -26.582031 18.222656 -26.414062 17.703125 -26.15625 C 17.191406 -25.894531 16.65625 -25.578125 16.09375 -25.203125 C 15.53125 -24.828125 14.972656 -24.425781 14.421875 -24 C 13.867188 -23.582031 13.367188 -23.160156 12.921875 -22.734375 C 12.484375 -22.316406 12.128906 -21.925781 11.859375 -21.5625 C 11.597656 -21.207031 11.46875 -20.914062 11.46875 -20.6875 C 11.46875 -20.519531 12.164062 -19.96875 13.5625 -19.03125 Z M 13.5625 -19.03125 "/></g></g></g><g fill="#474545" fill-opacity="1"><g transform="translate(260.262839, 194.54663)"><g><path d="M 28.609375 -8.46875 C 28.804688 -8.46875 28.984375 -8.390625 29.140625 -8.234375 C 29.296875 -8.078125 29.375 -7.898438 29.375 -7.703125 C 29.375 -7.441406 29.273438 -7.242188 29.078125 -7.109375 C 28.035156 -6.421875 26.789062 -5.59375 25.34375 -4.625 C 23.894531 -3.664062 22.28125 -2.609375 20.5 -1.453125 C 18.71875 -0.296875 16.804688 0.914062 14.765625 2.1875 C 12.722656 3.457031 10.585938 4.753906 8.359375 6.078125 C 7.742188 6.910156 7.085938 7.742188 6.390625 8.578125 C 5.703125 9.421875 4.992188 10.234375 4.265625 11.015625 C 2.503906 12.960938 0.648438 14.910156 -1.296875 16.859375 C -3.242188 18.804688 -5.234375 20.707031 -7.265625 22.5625 C -9.296875 24.425781 -11.3125 26.191406 -13.3125 27.859375 C -15.320312 29.523438 -17.269531 31.050781 -19.15625 32.4375 C -21.050781 33.832031 -22.832031 35.039062 -24.5 36.0625 C -26.164062 37.082031 -27.675781 37.875 -29.03125 38.4375 C -30.382812 39 -31.523438 39.28125 -32.453125 39.28125 C -33.203125 39.28125 -33.804688 39.0625 -34.265625 38.625 C -34.734375 38.195312 -34.96875 37.632812 -34.96875 36.9375 C -34.96875 35.832031 -34.445312 34.566406 -33.40625 33.140625 C -32.363281 31.722656 -30.757812 30.097656 -28.59375 28.265625 C -26.425781 26.429688 -23.648438 24.347656 -20.265625 22.015625 C -16.878906 19.679688 -12.832031 17.070312 -8.125 14.1875 C -5.664062 12.6875 -3.179688 11.1875 -0.671875 9.6875 C 1.828125 8.1875 4.28125 6.722656 6.6875 5.296875 L 7.34375 4.90625 C 7.945312 4.101562 8.601562 3.1875 9.3125 2.15625 C 10.019531 1.125 10.71875 0.0546875 11.40625 -1.046875 C 12.101562 -2.148438 12.75 -3.226562 13.34375 -4.28125 C 13.945312 -5.34375 14.457031 -6.304688 14.875 -7.171875 C 15.289062 -8.046875 15.566406 -8.757812 15.703125 -9.3125 C 15.734375 -9.46875 15.707031 -9.550781 15.625 -9.5625 C 15.539062 -9.582031 15.445312 -9.5625 15.34375 -9.5 C 15.09375 -9.363281 14.628906 -9.039062 13.953125 -8.53125 C 13.273438 -8.019531 12.285156 -7.265625 10.984375 -6.265625 C 10.160156 -5.660156 9.304688 -5.03125 8.421875 -4.375 C 7.546875 -3.726562 6.664062 -3.097656 5.78125 -2.484375 C 4.894531 -1.867188 4.035156 -1.3125 3.203125 -0.8125 C 2.378906 -0.320312 1.617188 0.0625 0.921875 0.34375 C 0.222656 0.632812 -0.367188 0.78125 -0.859375 0.78125 C -1.441406 0.78125 -1.90625 0.617188 -2.25 0.296875 C -2.601562 -0.0234375 -2.78125 -0.445312 -2.78125 -0.96875 C -2.78125 -1.320312 -2.65625 -1.769531 -2.40625 -2.3125 C -2.164062 -2.863281 -1.832031 -3.46875 -1.40625 -4.125 C -0.988281 -4.789062 -0.519531 -5.472656 0 -6.171875 C 0.519531 -6.867188 1.0625 -7.546875 1.625 -8.203125 C 2.1875 -8.867188 2.734375 -9.476562 3.265625 -10.03125 C 3.804688 -10.582031 4.285156 -11.039062 4.703125 -11.40625 C 4.847656 -11.519531 5.007812 -11.578125 5.1875 -11.578125 C 5.382812 -11.578125 5.5625 -11.5 5.71875 -11.34375 C 5.875 -11.1875 5.953125 -11.007812 5.953125 -10.8125 C 5.953125 -10.601562 5.867188 -10.410156 5.703125 -10.234375 C 5.140625 -9.773438 4.539062 -9.203125 3.90625 -8.515625 C 3.269531 -7.835938 2.648438 -7.117188 2.046875 -6.359375 C 1.441406 -5.609375 0.890625 -4.878906 0.390625 -4.171875 C -0.109375 -3.460938 -0.507812 -2.835938 -0.8125 -2.296875 C -1.113281 -1.753906 -1.265625 -1.351562 -1.265625 -1.09375 C -1.265625 -0.851562 -1.128906 -0.734375 -0.859375 -0.734375 C -0.472656 -0.734375 0.0195312 -0.867188 0.625 -1.140625 C 1.238281 -1.410156 1.921875 -1.769531 2.671875 -2.21875 C 3.421875 -2.675781 4.210938 -3.195312 5.046875 -3.78125 C 5.878906 -4.375 6.71875 -4.988281 7.5625 -5.625 C 8.414062 -6.269531 9.242188 -6.894531 10.046875 -7.5 C 11.078125 -8.269531 11.929688 -8.90625 12.609375 -9.40625 C 13.296875 -9.90625 13.859375 -10.289062 14.296875 -10.5625 C 14.734375 -10.84375 15.082031 -11.035156 15.34375 -11.140625 C 15.601562 -11.253906 15.820312 -11.3125 16 -11.3125 C 16.414062 -11.3125 16.734375 -11.179688 16.953125 -10.921875 C 17.179688 -10.660156 17.296875 -10.304688 17.296875 -9.859375 C 17.296875 -9.484375 17.140625 -8.882812 16.828125 -8.0625 C 16.515625 -7.25 16.066406 -6.269531 15.484375 -5.125 C 14.898438 -3.976562 14.195312 -2.710938 13.375 -1.328125 C 12.5625 0.046875 11.644531 1.472656 10.625 2.953125 C 14.394531 0.734375 17.722656 -1.3125 20.609375 -3.1875 C 23.492188 -5.070312 26.003906 -6.773438 28.140625 -8.296875 C 28.296875 -8.410156 28.453125 -8.46875 28.609375 -8.46875 Z M 3.171875 10.015625 C 3.421875 9.734375 3.671875 9.441406 3.921875 9.140625 C 4.179688 8.847656 4.429688 8.5625 4.671875 8.28125 C 2.679688 9.457031 0.675781 10.644531 -1.34375 11.84375 C -3.363281 13.050781 -5.359375 14.269531 -7.328125 15.5 C -16.171875 20.914062 -22.734375 25.382812 -27.015625 28.90625 C -31.304688 32.4375 -33.453125 35.113281 -33.453125 36.9375 C -33.453125 37.476562 -33.117188 37.75 -32.453125 37.75 C -31.660156 37.75 -30.660156 37.492188 -29.453125 36.984375 C -28.242188 36.484375 -26.867188 35.757812 -25.328125 34.8125 C -23.785156 33.875 -22.113281 32.742188 -20.3125 31.421875 C -18.519531 30.109375 -16.644531 28.648438 -14.6875 27.046875 C -12.738281 25.441406 -10.753906 23.71875 -8.734375 21.875 C -6.710938 20.039062 -4.695312 18.125 -2.6875 16.125 C -0.6875 14.132812 1.265625 12.097656 3.171875 10.015625 Z M 3.171875 10.015625 "/></g></g></g><path fill="#474545" d="M 8.382812 217.339844 C 8.28125 217.339844 8.179688 217.300781 8.101562 217.226562 C 7.9375 217.070312 7.933594 216.808594 8.089844 216.648438 C 10.835938 213.792969 13.496094 210.78125 15.988281 207.695312 C 16.980469 206.464844 17.894531 205.164062 18.695312 203.824219 C 26.039062 191.570312 32.386719 181.699219 38.671875 172.757812 C 42 168.019531 45.398438 163.570312 50.359375 161.140625 C 57.464844 157.664062 66.195312 159.414062 72.570312 160.695312 C 76.691406 161.519531 81.816406 162.550781 85.191406 166.035156 C 87.222656 168.128906 88.386719 170.886719 89.511719 173.550781 C 90.816406 176.636719 92.046875 179.554688 94.503906 181.527344 C 94.6875 181.675781 94.882812 181.820312 95.085938 181.976562 C 96.367188 182.960938 97.816406 184.070312 97.679688 185.765625 C 97.523438 187.675781 95.292969 188.710938 93.230469 188.613281 C 91.066406 188.507812 88.898438 187.675781 86.753906 186.136719 C 87.71875 187.410156 88.148438 189.257812 87.316406 190.761719 C 86.6875 191.898438 85.507812 192.578125 84.558594 193.128906 C 79.4375 196.085938 74.136719 199.148438 68.222656 200.515625 C 67.03125 200.792969 65.789062 201.007812 64.589844 201.214844 C 61.132812 201.808594 57.558594 202.425781 54.875 204.585938 C 53.691406 205.539062 52.757812 206.71875 51.773438 207.96875 C 51.148438 208.761719 50.5 209.582031 49.785156 210.332031 C 45.773438 214.542969 39.53125 216.363281 33.882812 214.972656 C 33.664062 214.917969 33.53125 214.695312 33.585938 214.476562 C 33.636719 214.257812 33.859375 214.121094 34.078125 214.175781 C 39.449219 215.496094 45.378906 213.769531 49.195312 209.765625 C 49.882812 209.046875 50.515625 208.242188 51.132812 207.460938 C 52.101562 206.230469 53.105469 204.957031 54.363281 203.945312 C 57.210938 201.652344 60.890625 201.019531 64.449219 200.40625 C 65.640625 200.199219 66.867188 199.988281 68.039062 199.714844 C 73.835938 198.375 79.078125 195.347656 84.152344 192.417969 C 85.054688 191.894531 86.082031 191.300781 86.601562 190.363281 C 87.410156 188.90625 86.695312 187.015625 85.539062 186.027344 C 84.113281 184.8125 82.152344 184.597656 80.761719 184.640625 C 77.578125 184.726562 74.519531 186.03125 71.5625 187.289062 C 70.984375 187.539062 70.386719 187.792969 69.796875 188.035156 C 67.636719 188.921875 65.855469 189.464844 64.1875 189.746094 C 62.230469 190.082031 60.296875 189.472656 58.882812 188.078125 C 57.480469 186.6875 56.851562 184.769531 57.160156 182.820312 C 57.410156 181.242188 57.910156 179.558594 58.730469 177.523438 C 59.695312 175.136719 60.875 172.726562 62.992188 171.269531 C 64.660156 170.121094 66.761719 169.691406 69.0625 170.023438 C 71.109375 170.320312 73.203125 171.210938 74.960938 172.527344 C 77.347656 174.320312 79.214844 176.6875 81.023438 178.980469 C 81.75 179.898438 82.5 180.851562 83.269531 181.746094 C 86.578125 185.597656 89.945312 187.632812 93.269531 187.792969 C 94.910156 187.871094 96.746094 187.09375 96.863281 185.699219 C 96.964844 184.449219 95.753906 183.523438 94.585938 182.625 C 94.386719 182.472656 94.183594 182.316406 93.992188 182.164062 C 91.371094 180.0625 90.042969 176.910156 88.753906 173.867188 C 87.660156 171.269531 86.527344 168.585938 84.601562 166.601562 C 81.644531 163.546875 77.328125 162.480469 72.410156 161.492188 C 66.148438 160.238281 57.574219 158.515625 50.714844 161.875 C 45.933594 164.214844 42.605469 168.578125 39.339844 173.222656 C 33.066406 182.152344 26.730469 192.003906 19.398438 204.238281 C 18.574219 205.613281 17.640625 206.945312 16.621094 208.207031 C 14.113281 211.308594 11.441406 214.339844 8.675781 217.210938 C 8.597656 217.296875 8.488281 217.335938 8.382812 217.335938 Z M 67.5625 170.738281 C 66.113281 170.738281 64.695312 171.09375 63.457031 171.945312 C 61.523438 173.277344 60.40625 175.5625 59.492188 177.832031 C 58.707031 179.777344 58.210938 181.453125 57.972656 182.949219 C 57.703125 184.636719 58.246094 186.292969 59.460938 187.496094 C 60.683594 188.703125 62.355469 189.230469 64.054688 188.941406 C 65.660156 188.667969 67.386719 188.140625 69.492188 187.277344 C 70.074219 187.039062 70.671875 186.785156 71.246094 186.539062 C 74.273438 185.25 77.402344 183.917969 80.746094 183.824219 C 81.941406 183.792969 83.523438 183.929688 84.933594 184.648438 C 84.167969 183.953125 83.410156 183.164062 82.652344 182.285156 C 81.871094 181.375 81.117188 180.417969 80.386719 179.488281 C 78.609375 177.238281 76.773438 174.910156 74.476562 173.1875 C 72.609375 171.785156 70.042969 170.738281 67.5625 170.738281 Z M 67.5625 170.738281 " fill-opacity="1" fill-rule="nonzero"/><g clip-path="url(#71c2d993e5)"><path fill="#474545" d="M 103.699219 184.597656 C 103.621094 184.597656 103.542969 184.597656 103.464844 184.59375 C 98.902344 184.460938 93.113281 182.601562 90.546875 177.777344 C 90.4375 177.578125 90.515625 177.328125 90.714844 177.226562 C 90.914062 177.117188 91.164062 177.195312 91.269531 177.394531 C 93.667969 181.90625 99.152344 183.652344 103.484375 183.777344 C 104.449219 183.804688 105.6875 183.660156 106.113281 182.808594 C 106.683594 181.667969 105.324219 180.316406 104.460938 179.613281 C 100.695312 176.535156 96.421875 173.046875 93.136719 168.820312 C 92.488281 167.988281 91.867188 167.109375 91.265625 166.257812 C 89.792969 164.179688 88.269531 162.027344 86.28125 160.429688 C 84.0625 158.640625 81.074219 157.386719 77.148438 156.601562 C 75.515625 156.273438 73.832031 156.039062 72.203125 155.8125 C 70.519531 155.574219 68.777344 155.332031 67.078125 154.984375 C 66.832031 154.9375 66.582031 154.882812 66.332031 154.832031 C 64.472656 154.4375 62.550781 154.03125 60.78125 154.523438 C 58.644531 155.117188 56.988281 156.683594 55.234375 158.339844 C 53.914062 159.589844 52.550781 160.882812 50.925781 161.777344 C 50.726562 161.886719 50.476562 161.816406 50.367188 161.617188 C 50.261719 161.417969 50.332031 161.171875 50.53125 161.0625 C 52.0625 160.21875 53.390625 158.960938 54.671875 157.75 C 56.417969 156.09375 58.226562 154.382812 60.5625 153.734375 C 62.527344 153.191406 64.546875 153.617188 66.5 154.03125 C 66.75 154.085938 66.996094 154.136719 67.242188 154.1875 C 68.917969 154.527344 70.644531 154.769531 72.316406 155.003906 C 73.957031 155.230469 75.652344 155.46875 77.308594 155.800781 C 81.367188 156.613281 84.472656 157.917969 86.796875 159.789062 C 88.871094 161.460938 90.425781 163.660156 91.933594 165.785156 C 92.53125 166.628906 93.144531 167.496094 93.785156 168.316406 C 97.011719 172.46875 101.242188 175.929688 104.980469 178.980469 C 106.820312 180.480469 107.464844 181.933594 106.84375 183.175781 C 106.378906 184.109375 105.292969 184.597656 103.699219 184.597656 Z M 103.699219 184.597656 " fill-opacity="1" fill-rule="nonzero"/></g><path fill="#474545" d="M 101.3125 175.167969 C 100.265625 175.167969 99.257812 174.765625 98.414062 174.429688 C 98.203125 174.347656 98.101562 174.109375 98.183594 173.898438 C 98.269531 173.6875 98.503906 173.585938 98.714844 173.671875 C 99.667969 174.050781 100.855469 174.523438 101.9375 174.285156 C 102.484375 174.164062 103.019531 173.742188 103.269531 173.238281 C 103.394531 172.988281 103.503906 172.613281 103.324219 172.226562 C 103.085938 171.707031 102.464844 171.410156 101.867188 171.117188 L 101.796875 171.082031 C 97 168.753906 93.386719 164.707031 89.890625 160.789062 C 87.988281 158.65625 86.019531 156.449219 83.882812 154.550781 C 82.53125 153.347656 80.707031 151.914062 78.589844 151.523438 C 76.136719 151.066406 73.636719 152.011719 71.21875 152.921875 L 70.980469 153.011719 C 67.820312 154.203125 63.832031 154.296875 62.683594 154.296875 C 62.457031 154.296875 62.273438 154.113281 62.273438 153.886719 C 62.273438 153.660156 62.457031 153.476562 62.683594 153.476562 C 64.976562 153.476562 68.285156 153.15625 70.691406 152.246094 L 70.929688 152.15625 C 73.453125 151.207031 76.0625 150.21875 78.738281 150.71875 C 81.058594 151.148438 82.996094 152.664062 84.429688 153.9375 C 86.601562 155.871094 88.585938 158.09375 90.503906 160.246094 C 93.945312 164.101562 97.503906 168.089844 102.15625 170.347656 L 102.222656 170.382812 C 102.917969 170.71875 103.707031 171.101562 104.070312 171.882812 C 104.316406 172.414062 104.289062 173.027344 104.003906 173.601562 C 103.644531 174.328125 102.902344 174.910156 102.117188 175.085938 C 101.847656 175.144531 101.578125 175.171875 101.3125 175.171875 Z M 101.3125 175.167969 " fill-opacity="1" fill-rule="nonzero"/><path fill="#474545" d="M 35.507812 225.621094 C 35.488281 225.621094 35.464844 225.617188 35.445312 225.613281 C 35.222656 225.582031 35.066406 225.371094 35.101562 225.148438 C 35.707031 221.199219 37.542969 217.410156 40.261719 214.480469 C 40.417969 214.316406 40.675781 214.308594 40.839844 214.460938 C 41.007812 214.613281 41.015625 214.875 40.863281 215.039062 C 38.25 217.847656 36.492188 221.480469 35.910156 225.269531 C 35.878906 225.472656 35.703125 225.617188 35.507812 225.617188 Z M 35.507812 225.621094 " fill-opacity="1" fill-rule="nonzero"/><path fill="#474545" d="M 79.308594 193.941406 C 78.5 193.941406 77.816406 193.757812 77.25 193.386719 C 76.164062 192.671875 75.574219 191.207031 75.820312 189.820312 C 76.035156 188.601562 76.832031 187.460938 78 186.6875 C 78.945312 186.058594 80.105469 185.660156 81.542969 185.472656 C 82.898438 185.289062 84.03125 185.371094 84.996094 185.714844 C 86.242188 186.15625 87.199219 187.074219 87.554688 188.171875 C 87.976562 189.460938 87.484375 190.914062 86.40625 191.550781 C 85.039062 192.359375 83.429688 193.027344 81.488281 193.589844 C 80.675781 193.824219 79.953125 193.941406 79.308594 193.941406 Z M 82.871094 186.195312 C 82.488281 186.195312 82.082031 186.226562 81.648438 186.285156 C 80.335938 186.457031 79.292969 186.8125 78.453125 187.371094 C 77.46875 188.019531 76.804688 188.964844 76.628906 189.964844 C 76.4375 191.039062 76.878906 192.164062 77.699219 192.703125 C 78.507812 193.230469 79.675781 193.265625 81.261719 192.804688 C 83.136719 192.261719 84.683594 191.621094 85.992188 190.847656 C 86.734375 190.410156 87.078125 189.34375 86.78125 188.425781 C 86.5 187.570312 85.730469 186.84375 84.722656 186.488281 C 84.179688 186.292969 83.566406 186.195312 82.871094 186.195312 Z M 82.871094 186.195312 " fill-opacity="1" fill-rule="nonzero"/><path fill="#474545" d="M 96.542969 186.234375 C 96.394531 186.234375 96.234375 186.210938 96.054688 186.167969 C 94.402344 185.75 92.855469 184.851562 91.582031 183.570312 C 90.730469 182.710938 90.363281 181.90625 90.453125 181.105469 C 90.53125 180.429688 90.988281 179.882812 91.566406 179.773438 C 92.238281 179.648438 92.808594 180.109375 93.113281 180.359375 C 94.242188 181.273438 95.355469 182.238281 96.429688 183.171875 L 96.441406 183.183594 C 97.015625 183.683594 97.226562 184.300781 97.398438 184.800781 C 97.558594 185.261719 97.523438 185.628906 97.304688 185.902344 C 97.128906 186.121094 96.871094 186.234375 96.542969 186.234375 Z M 91.792969 180.570312 C 91.769531 180.570312 91.742188 180.574219 91.71875 180.578125 C 91.464844 180.625 91.296875 180.933594 91.265625 181.199219 C 91.203125 181.734375 91.5 182.320312 92.164062 182.992188 C 93.332031 184.171875 94.746094 184.996094 96.253906 185.375 C 96.546875 185.445312 96.652344 185.40625 96.667969 185.390625 C 96.675781 185.378906 96.699219 185.285156 96.625 185.070312 C 96.472656 184.621094 96.3125 184.15625 95.902344 183.804688 L 95.890625 183.792969 C 94.820312 182.863281 93.710938 181.902344 92.59375 180.996094 C 92.320312 180.773438 92.039062 180.574219 91.792969 180.574219 Z M 91.792969 180.570312 " fill-opacity="1" fill-rule="nonzero"/><path fill="#474545" d="M 104.941406 182.011719 C 104.535156 182.011719 104.125 181.917969 103.691406 181.691406 C 102.578125 181.109375 101.554688 180.371094 100.65625 179.492188 C 100.199219 179.050781 99.71875 178.503906 99.5625 177.796875 C 99.40625 177.058594 99.738281 176.097656 100.550781 175.835938 C 100.675781 175.796875 100.8125 175.816406 100.917969 175.894531 C 103.046875 177.460938 104.824219 178.824219 106.714844 180.960938 C 106.800781 181.058594 106.835938 181.191406 106.804688 181.320312 C 106.777344 181.449219 106.6875 181.554688 106.566406 181.609375 C 106 181.851562 105.472656 182.011719 104.941406 182.011719 Z M 100.636719 176.703125 C 100.394531 176.898438 100.296875 177.304688 100.363281 177.625 C 100.46875 178.121094 100.859375 178.550781 101.226562 178.90625 C 102.070312 179.730469 103.027344 180.421875 104.070312 180.96875 C 104.628906 181.257812 105.117188 181.25 105.703125 181.0625 C 104.070312 179.296875 102.484375 178.066406 100.636719 176.703125 Z M 100.636719 176.703125 " fill-opacity="1" fill-rule="nonzero"/><path fill="#474545" d="M 103.035156 172.890625 C 101.921875 172.890625 100.742188 172.371094 99.527344 171.339844 C 99.257812 171.113281 98.960938 170.835938 98.835938 170.433594 C 98.6875 169.957031 98.886719 169.324219 99.417969 169.148438 C 99.515625 169.117188 99.621094 169.125 99.714844 169.167969 C 100.964844 169.734375 102.234375 170.53125 103.460938 171.300781 C 103.605469 171.390625 103.800781 171.511719 103.933594 171.722656 C 104.125 172.023438 104.097656 172.414062 103.867188 172.648438 C 103.691406 172.832031 103.464844 172.867188 103.285156 172.882812 C 103.203125 172.886719 103.121094 172.890625 103.035156 172.890625 Z M 99.617188 170.023438 C 99.605469 170.074219 99.601562 170.132812 99.621094 170.191406 C 99.679688 170.382812 99.878906 170.5625 100.058594 170.714844 C 101.164062 171.652344 102.199219 172.109375 103.140625 172.070312 C 103.105469 172.042969 103.0625 172.019531 103.027344 171.992188 C 101.902344 171.289062 100.742188 170.5625 99.617188 170.023438 Z M 103.316406 172.054688 Z M 103.316406 172.054688 " fill-opacity="1" fill-rule="nonzero"/><path fill="#474545" d="M 371.832031 217.339844 C 371.933594 217.339844 372.035156 217.300781 372.117188 217.226562 C 372.277344 217.070312 372.285156 216.808594 372.128906 216.648438 C 369.378906 213.792969 366.722656 210.78125 364.226562 207.695312 C 363.234375 206.464844 362.324219 205.164062 361.519531 203.824219 C 354.175781 191.570312 347.828125 181.699219 341.542969 172.757812 C 338.214844 168.019531 334.816406 163.570312 329.859375 161.140625 C 322.75 157.664062 314.019531 159.414062 307.644531 160.695312 C 303.527344 161.519531 298.398438 162.550781 295.023438 166.035156 C 292.992188 168.128906 291.828125 170.886719 290.703125 173.550781 C 289.402344 176.636719 288.167969 179.554688 285.710938 181.527344 C 285.527344 181.675781 285.335938 181.820312 285.132812 181.976562 C 283.851562 182.960938 282.398438 184.070312 282.539062 185.765625 C 282.695312 187.675781 284.921875 188.710938 286.984375 188.613281 C 289.152344 188.507812 291.316406 187.675781 293.460938 186.136719 C 292.496094 187.410156 292.066406 189.257812 292.898438 190.761719 C 293.527344 191.898438 294.707031 192.578125 295.65625 193.128906 C 300.78125 196.085938 306.078125 199.148438 311.996094 200.515625 C 313.1875 200.792969 314.429688 201.007812 315.628906 201.214844 C 319.082031 201.808594 322.65625 202.425781 325.339844 204.585938 C 326.527344 205.539062 327.457031 206.71875 328.441406 207.96875 C 329.066406 208.761719 329.714844 209.582031 330.429688 210.332031 C 334.441406 214.542969 340.6875 216.363281 346.332031 214.972656 C 346.550781 214.917969 346.683594 214.695312 346.632812 214.476562 C 346.578125 214.257812 346.355469 214.121094 346.136719 214.175781 C 340.769531 215.496094 334.835938 213.769531 331.023438 209.765625 C 330.335938 209.046875 329.699219 208.242188 329.085938 207.460938 C 328.113281 206.230469 327.109375 204.957031 325.851562 203.945312 C 323.003906 201.652344 319.324219 201.019531 315.765625 200.40625 C 314.578125 200.199219 313.347656 199.988281 312.175781 199.714844 C 306.382812 198.375 301.136719 195.347656 296.066406 192.417969 C 295.160156 191.894531 294.132812 191.300781 293.613281 190.363281 C 292.808594 188.90625 293.519531 187.015625 294.675781 186.027344 C 296.101562 184.8125 298.0625 184.597656 299.453125 184.640625 C 302.640625 184.726562 305.695312 186.03125 308.652344 187.289062 C 309.230469 187.539062 309.828125 187.792969 310.417969 188.035156 C 312.578125 188.921875 314.363281 189.464844 316.027344 189.746094 C 317.988281 190.082031 319.921875 189.472656 321.332031 188.078125 C 322.738281 186.6875 323.363281 184.769531 323.054688 182.820312 C 322.804688 181.242188 322.304688 179.558594 321.484375 177.523438 C 320.523438 175.136719 319.339844 172.726562 317.226562 171.269531 C 315.554688 170.121094 313.457031 169.691406 311.152344 170.023438 C 309.105469 170.320312 307.011719 171.210938 305.253906 172.527344 C 302.871094 174.320312 301 176.6875 299.191406 178.980469 C 298.46875 179.898438 297.71875 180.851562 296.949219 181.746094 C 293.636719 185.597656 290.273438 187.632812 286.945312 187.792969 C 285.308594 187.871094 283.46875 187.09375 283.355469 185.699219 C 283.25 184.449219 284.460938 183.523438 285.628906 182.625 C 285.828125 182.472656 286.035156 182.316406 286.226562 182.164062 C 288.84375 180.0625 290.175781 176.910156 291.460938 173.867188 C 292.558594 171.269531 293.691406 168.585938 295.613281 166.601562 C 298.570312 163.546875 302.886719 162.480469 307.808594 161.492188 C 314.066406 160.238281 322.640625 158.515625 329.5 161.875 C 334.285156 164.214844 337.609375 168.578125 340.875 173.222656 C 347.148438 182.152344 353.488281 192.003906 360.820312 204.238281 C 361.640625 205.613281 362.574219 206.945312 363.59375 208.207031 C 366.101562 211.308594 368.773438 214.339844 371.539062 217.210938 C 371.621094 217.296875 371.726562 217.335938 371.832031 217.335938 Z M 312.65625 170.738281 C 314.101562 170.738281 315.523438 171.09375 316.757812 171.945312 C 318.691406 173.277344 319.808594 175.5625 320.722656 177.832031 C 321.507812 179.777344 322.003906 181.453125 322.242188 182.949219 C 322.511719 184.636719 321.96875 186.292969 320.753906 187.496094 C 319.535156 188.703125 317.859375 189.230469 316.160156 188.941406 C 314.558594 188.667969 312.828125 188.140625 310.726562 187.277344 C 310.140625 187.039062 309.546875 186.785156 308.96875 186.539062 C 305.945312 185.25 302.8125 183.917969 299.472656 183.824219 C 298.273438 183.792969 296.691406 183.929688 295.28125 184.648438 C 296.046875 183.953125 296.808594 183.164062 297.5625 182.285156 C 298.34375 181.375 299.101562 180.417969 299.832031 179.488281 C 301.605469 177.238281 303.441406 174.910156 305.742188 173.1875 C 307.605469 171.785156 310.171875 170.738281 312.652344 170.738281 Z M 312.65625 170.738281 " fill-opacity="1" fill-rule="nonzero"/><g clip-path="url(#37c5666e71)"><path fill="#474545" d="M 276.515625 184.597656 C 276.59375 184.597656 276.671875 184.597656 276.753906 184.59375 C 281.3125 184.460938 287.105469 182.601562 289.671875 177.777344 C 289.777344 177.578125 289.699219 177.328125 289.5 177.226562 C 289.300781 177.117188 289.054688 177.195312 288.949219 177.394531 C 286.546875 181.90625 281.0625 183.652344 276.730469 183.777344 C 275.765625 183.804688 274.527344 183.660156 274.101562 182.808594 C 273.53125 181.667969 274.890625 180.316406 275.753906 179.613281 C 279.523438 176.535156 283.792969 173.046875 287.078125 168.820312 C 287.726562 167.988281 288.347656 167.109375 288.949219 166.257812 C 290.421875 164.179688 291.949219 162.027344 293.933594 160.429688 C 296.152344 158.640625 299.140625 157.386719 303.070312 156.601562 C 304.699219 156.273438 306.386719 156.039062 308.011719 155.8125 C 309.695312 155.574219 311.4375 155.332031 313.136719 154.984375 C 313.382812 154.9375 313.632812 154.882812 313.882812 154.832031 C 315.742188 154.4375 317.664062 154.03125 319.433594 154.523438 C 321.574219 155.117188 323.226562 156.683594 324.980469 158.339844 C 326.300781 159.589844 327.664062 160.882812 329.292969 161.777344 C 329.488281 161.886719 329.738281 161.816406 329.847656 161.617188 C 329.957031 161.417969 329.882812 161.171875 329.6875 161.0625 C 328.152344 160.21875 326.824219 158.960938 325.542969 157.75 C 323.796875 156.09375 321.988281 154.382812 319.65625 153.734375 C 317.691406 153.191406 315.667969 153.617188 313.714844 154.03125 C 313.46875 154.085938 313.21875 154.136719 312.976562 154.1875 C 311.300781 154.527344 309.570312 154.769531 307.898438 155.003906 C 306.257812 155.230469 304.5625 155.46875 302.90625 155.800781 C 298.847656 156.613281 295.746094 157.917969 293.421875 159.789062 C 291.34375 161.460938 289.789062 163.660156 288.28125 165.785156 C 287.6875 166.628906 287.070312 167.496094 286.433594 168.316406 C 283.207031 172.46875 278.972656 175.929688 275.238281 178.980469 C 273.394531 180.480469 272.75 181.933594 273.371094 183.175781 C 273.839844 184.109375 274.925781 184.597656 276.519531 184.597656 Z M 276.515625 184.597656 " fill-opacity="1" fill-rule="nonzero"/></g><path fill="#474545" d="M 278.902344 175.167969 C 279.949219 175.167969 280.960938 174.765625 281.804688 174.429688 C 282.011719 174.347656 282.113281 174.109375 282.03125 173.898438 C 281.949219 173.6875 281.710938 173.585938 281.5 173.671875 C 280.546875 174.050781 279.359375 174.523438 278.277344 174.285156 C 277.730469 174.164062 277.195312 173.742188 276.945312 173.238281 C 276.820312 172.988281 276.710938 172.613281 276.890625 172.226562 C 277.128906 171.707031 277.75 171.410156 278.347656 171.117188 L 278.417969 171.082031 C 283.214844 168.753906 286.828125 164.707031 290.324219 160.789062 C 292.226562 158.65625 294.195312 156.449219 296.332031 154.550781 C 297.683594 153.347656 299.507812 151.914062 301.625 151.523438 C 304.078125 151.066406 306.582031 152.011719 309 152.921875 L 309.238281 153.011719 C 312.398438 154.203125 316.386719 154.296875 317.53125 154.296875 C 317.757812 154.296875 317.941406 154.113281 317.941406 153.886719 C 317.941406 153.660156 317.757812 153.476562 317.53125 153.476562 C 315.242188 153.476562 311.933594 153.15625 309.527344 152.246094 L 309.289062 152.15625 C 306.761719 151.207031 304.15625 150.21875 301.476562 150.71875 C 299.160156 151.148438 297.21875 152.664062 295.785156 153.9375 C 293.613281 155.871094 291.628906 158.09375 289.710938 160.246094 C 286.269531 164.101562 282.710938 168.089844 278.058594 170.347656 L 277.992188 170.382812 C 277.296875 170.71875 276.507812 171.101562 276.148438 171.882812 C 275.902344 172.414062 275.925781 173.027344 276.210938 173.601562 C 276.570312 174.328125 277.3125 174.910156 278.101562 175.085938 C 278.367188 175.144531 278.636719 175.171875 278.902344 175.171875 Z M 278.902344 175.167969 " fill-opacity="1" fill-rule="nonzero"/><path fill="#474545" d="M 344.710938 225.621094 C 344.730469 225.621094 344.75 225.617188 344.773438 225.613281 C 344.996094 225.582031 345.148438 225.371094 345.113281 225.148438 C 344.507812 221.199219 342.675781 217.410156 339.953125 214.480469 C 339.796875 214.316406 339.539062 214.308594 339.375 214.460938 C 339.210938 214.613281 339.199219 214.875 339.351562 215.039062 C 341.964844 217.847656 343.722656 221.480469 344.304688 225.269531 C 344.335938 225.472656 344.511719 225.617188 344.710938 225.617188 Z M 344.710938 225.621094 " fill-opacity="1" fill-rule="nonzero"/><path fill="#474545" d="M 300.90625 193.941406 C 301.714844 193.941406 302.398438 193.757812 302.964844 193.386719 C 304.054688 192.671875 304.640625 191.207031 304.394531 189.820312 C 304.179688 188.601562 303.386719 187.460938 302.214844 186.6875 C 301.269531 186.058594 300.113281 185.660156 298.675781 185.472656 C 297.316406 185.289062 296.183594 185.371094 295.21875 185.714844 C 293.976562 186.15625 293.019531 187.074219 292.660156 188.171875 C 292.238281 189.460938 292.730469 190.914062 293.808594 191.550781 C 295.175781 192.359375 296.785156 193.027344 298.726562 193.589844 C 299.539062 193.824219 300.265625 193.941406 300.910156 193.941406 Z M 297.34375 186.195312 C 297.726562 186.195312 298.132812 186.226562 298.566406 186.285156 C 299.878906 186.457031 300.925781 186.8125 301.761719 187.371094 C 302.746094 188.019531 303.410156 188.964844 303.589844 189.964844 C 303.78125 191.039062 303.339844 192.164062 302.515625 192.703125 C 301.707031 193.230469 300.542969 193.265625 298.953125 192.804688 C 297.078125 192.261719 295.53125 191.621094 294.222656 190.847656 C 293.480469 190.410156 293.136719 189.34375 293.4375 188.425781 C 293.714844 187.570312 294.484375 186.84375 295.492188 186.488281 C 296.035156 186.292969 296.648438 186.195312 297.34375 186.195312 Z M 297.34375 186.195312 " fill-opacity="1" fill-rule="nonzero"/><path fill="#474545" d="M 283.671875 186.234375 C 283.820312 186.234375 283.984375 186.210938 284.160156 186.167969 C 285.8125 185.75 287.359375 184.851562 288.632812 183.570312 C 289.484375 182.710938 289.855469 181.90625 289.761719 181.105469 C 289.6875 180.429688 289.226562 179.882812 288.648438 179.773438 C 287.980469 179.648438 287.410156 180.109375 287.101562 180.359375 C 285.976562 181.273438 284.863281 182.238281 283.785156 183.171875 L 283.773438 183.183594 C 283.199219 183.683594 282.988281 184.300781 282.816406 184.800781 C 282.660156 185.261719 282.691406 185.628906 282.910156 185.902344 C 283.089844 186.121094 283.34375 186.234375 283.671875 186.234375 Z M 288.421875 180.570312 C 288.449219 180.570312 288.472656 180.574219 288.5 180.578125 C 288.75 180.625 288.921875 180.933594 288.949219 181.199219 C 289.011719 181.734375 288.71875 182.320312 288.054688 182.992188 C 286.886719 184.171875 285.472656 184.996094 283.964844 185.375 C 283.667969 185.445312 283.5625 185.40625 283.550781 185.390625 C 283.539062 185.378906 283.515625 185.285156 283.59375 185.070312 C 283.746094 184.621094 283.90625 184.15625 284.3125 183.804688 L 284.324219 183.792969 C 285.394531 182.863281 286.503906 181.902344 287.621094 180.996094 C 287.894531 180.773438 288.175781 180.574219 288.421875 180.574219 Z M 288.421875 180.570312 " fill-opacity="1" fill-rule="nonzero"/><g clip-path="url(#f31278e7ad)"><path fill="#474545" d="M 275.277344 182.011719 C 275.683594 182.011719 276.089844 181.917969 276.523438 181.691406 C 277.636719 181.109375 278.660156 180.371094 279.5625 179.492188 C 280.015625 179.050781 280.5 178.503906 280.652344 177.796875 C 280.8125 177.058594 280.480469 176.097656 279.664062 175.835938 C 279.539062 175.796875 279.402344 175.816406 279.296875 175.894531 C 277.171875 177.460938 275.390625 178.824219 273.503906 180.960938 C 273.414062 181.058594 273.382812 181.191406 273.410156 181.320312 C 273.4375 181.449219 273.527344 181.554688 273.648438 181.609375 C 274.21875 181.851562 274.746094 182.011719 275.277344 182.011719 Z M 279.578125 176.703125 C 279.824219 176.898438 279.921875 177.304688 279.851562 177.625 C 279.746094 178.121094 279.355469 178.550781 278.992188 178.90625 C 278.144531 179.730469 277.1875 180.421875 276.144531 180.96875 C 275.585938 181.257812 275.101562 181.25 274.511719 181.0625 C 276.148438 179.296875 277.730469 178.066406 279.578125 176.703125 Z M 279.578125 176.703125 " fill-opacity="1" fill-rule="nonzero"/></g><path fill="#474545" d="M 277.179688 172.890625 C 278.292969 172.890625 279.472656 172.371094 280.6875 171.339844 C 280.957031 171.113281 281.253906 170.835938 281.378906 170.433594 C 281.527344 169.957031 281.332031 169.324219 280.800781 169.148438 C 280.703125 169.117188 280.59375 169.125 280.5 169.167969 C 279.25 169.734375 277.980469 170.53125 276.753906 171.300781 C 276.613281 171.390625 276.417969 171.511719 276.285156 171.722656 C 276.09375 172.023438 276.121094 172.414062 276.347656 172.648438 C 276.523438 172.832031 276.75 172.867188 276.929688 172.882812 C 277.011719 172.886719 277.09375 172.890625 277.179688 172.890625 Z M 280.597656 170.023438 C 280.613281 170.074219 280.613281 170.132812 280.597656 170.191406 C 280.535156 170.382812 280.339844 170.5625 280.15625 170.714844 C 279.054688 171.652344 278.019531 172.109375 277.074219 172.070312 C 277.113281 172.042969 277.152344 172.019531 277.1875 171.992188 C 278.3125 171.289062 279.472656 170.5625 280.597656 170.023438 Z M 276.898438 172.054688 Z M 276.898438 172.054688 " fill-opacity="1" fill-rule="nonzero"/></svg>