<svg xmlns="http://www.w3.org/2000/svg" xmlns:xlink="http://www.w3.org/1999/xlink" width="500" zoomAndPan="magnify" viewBox="0 0 375 374.999991" height="500" preserveAspectRatio="xMidYMid meet" version="1.0"><defs><g/><clipPath id="0b2c85a5c6"><path d="M 58.933594 186 L 316.183594 186 L 316.183594 206.691406 L 58.933594 206.691406 Z M 58.933594 186 " clip-rule="nonzero"/></clipPath></defs><rect x="-37.5" width="450" fill="#ffffff" y="-37.499999" height="449.999989" fill-opacity="1"/><rect x="-37.5" width="450" fill="#ffb601" y="-37.499999" height="449.999989" fill-opacity="1"/><path fill="#3d1109" d="M 187.484375 92.417969 C 192.046875 92.417969 195.746094 89.410156 195.746094 85.699219 C 195.746094 81.992188 192.046875 78.984375 187.484375 78.984375 C 182.921875 78.984375 179.21875 81.992188 179.21875 85.699219 C 179.21875 89.410156 182.921875 92.417969 187.484375 92.417969 " fill-opacity="1" fill-rule="nonzero"/><g clip-path="url(#0b2c85a5c6)"><path fill="#3d1109" d="M 305.949219 186.308594 L 69.019531 186.308594 C 63.441406 186.308594 58.917969 190.828125 58.917969 196.40625 C 58.917969 201.984375 63.441406 206.507812 69.019531 206.507812 L 305.949219 206.507812 C 311.527344 206.507812 316.046875 201.984375 316.046875 196.40625 C 316.046875 190.828125 311.527344 186.308594 305.949219 186.308594 " fill-opacity="1" fill-rule="nonzero"/></g><path fill="#fff1e8" d="M 110.613281 151.730469 C 113.035156 139.765625 120.554688 126.691406 132.304688 121.625 C 134.496094 120.683594 136.398438 123.90625 134.195312 124.855469 C 123.242188 129.578125 116.476562 141.582031 114.222656 152.726562 C 113.742188 155.089844 110.136719 154.085938 110.613281 151.730469 Z M 287.464844 181.4375 C 287.5 180.507812 287.527344 179.570312 287.527344 178.632812 C 287.527344 133.707031 242.734375 97.289062 187.484375 97.289062 C 132.226562 97.289062 87.4375 133.707031 87.4375 178.632812 C 87.4375 179.570312 87.464844 180.507812 87.5 181.4375 L 287.464844 181.4375 " fill-opacity="1" fill-rule="nonzero"/><path fill="#fff1e8" d="M 96.15625 23.660156 C 96.308594 23.898438 96.457031 24.136719 96.609375 24.378906 C 96.617188 24.386719 97.003906 25.03125 97.046875 25.101562 C 97.800781 26.371094 98.511719 27.667969 99.179688 28.992188 C 99.84375 30.3125 100.457031 31.660156 101.007812 33.035156 C 101.292969 33.746094 101.5625 34.464844 101.808594 35.195312 C 101.898438 35.457031 101.984375 35.71875 102.070312 35.984375 C 102.132812 36.1875 102.191406 36.386719 102.253906 36.585938 C 102.269531 36.65625 102.296875 36.75 102.328125 36.871094 C 102.652344 38.210938 102.933594 39.550781 103.105469 40.917969 C 103.191406 41.597656 103.253906 42.277344 103.289062 42.964844 C 103.292969 43.019531 103.308594 43.746094 103.316406 43.78125 C 103.308594 44.15625 103.296875 44.53125 103.269531 44.90625 C 103.1875 46.3125 102.980469 47.710938 102.667969 49.089844 C 102.632812 49.222656 102.542969 49.574219 102.515625 49.667969 C 102.417969 49.996094 102.3125 50.320312 102.203125 50.644531 C 101.96875 51.339844 101.710938 52.027344 101.4375 52.714844 C 99.359375 57.964844 96.628906 62.902344 95.417969 68.46875 C 94.117188 74.46875 95.5625 80.429688 99.117188 85.382812 C 102.894531 90.644531 108.5 94.382812 113.816406 97.914062 C 115.683594 99.15625 118.457031 99.042969 119.820312 97.058594 C 121.070312 95.234375 120.957031 92.382812 118.964844 91.054688 C 116.589844 89.480469 114.222656 87.894531 111.976562 86.144531 C 110.960938 85.359375 109.972656 84.539062 109.027344 83.675781 C 108.964844 83.617188 108.398438 83.0625 108.488281 83.160156 C 108.390625 83.058594 108.289062 82.960938 108.191406 82.859375 C 107.683594 82.328125 107.1875 81.777344 106.722656 81.203125 C 106.300781 80.691406 105.902344 80.15625 105.527344 79.605469 C 105.433594 79.46875 105.34375 79.324219 105.25 79.183594 C 105.195312 79.074219 104.953125 78.660156 104.914062 78.574219 C 104.640625 78.050781 104.398438 77.515625 104.183594 76.964844 C 104.097656 76.746094 104.03125 76.519531 103.941406 76.300781 C 103.921875 76.230469 103.902344 76.175781 103.886719 76.128906 C 103.851562 75.980469 103.8125 75.832031 103.78125 75.679688 C 103.65625 75.089844 103.566406 74.488281 103.515625 73.882812 C 103.492188 73.609375 103.476562 73.335938 103.464844 73.0625 C 103.46875 73.015625 103.472656 72.964844 103.480469 72.902344 C 103.582031 71.585938 103.761719 70.324219 104.046875 69.03125 C 104.058594 68.984375 104.066406 68.9375 104.074219 68.902344 C 104.09375 68.851562 104.113281 68.792969 104.140625 68.714844 C 104.234375 68.421875 104.316406 68.132812 104.410156 67.84375 C 104.621094 67.203125 104.851562 66.566406 105.089844 65.9375 C 105.582031 64.65625 106.125 63.398438 106.683594 62.144531 C 107.746094 59.75 108.867188 57.378906 109.777344 54.921875 C 112.019531 48.855469 112.457031 42.355469 110.917969 36.0625 C 109.152344 28.824219 105.59375 22.351562 101.484375 16.199219 C 100.234375 14.328125 97.109375 14.070312 95.457031 15.5 C 93.585938 17.125 93.425781 19.527344 94.765625 21.527344 C 95.234375 22.230469 95.703125 22.9375 96.15625 23.660156 " fill-opacity="1" fill-rule="nonzero"/><path fill="#fff1e8" d="M 119.972656 16.3125 C 120.128906 16.550781 120.277344 16.789062 120.429688 17.03125 C 120.433594 17.042969 120.824219 17.6875 120.867188 17.753906 C 121.617188 19.027344 122.332031 20.324219 122.996094 21.644531 C 123.660156 22.96875 124.277344 24.3125 124.828125 25.6875 C 125.113281 26.402344 125.382812 27.121094 125.628906 27.847656 C 125.71875 28.109375 125.804688 28.378906 125.886719 28.640625 C 125.953125 28.839844 126.011719 29.042969 126.070312 29.246094 C 126.089844 29.3125 126.113281 29.40625 126.148438 29.527344 C 126.472656 30.863281 126.753906 32.207031 126.925781 33.570312 C 127.011719 34.253906 127.074219 34.933594 127.109375 35.617188 C 127.113281 35.675781 127.125 36.402344 127.132812 36.4375 C 127.125 36.8125 127.113281 37.1875 127.089844 37.5625 C 127.003906 38.96875 126.800781 40.367188 126.488281 41.746094 C 126.453125 41.875 126.363281 42.230469 126.335938 42.324219 C 126.238281 42.648438 126.132812 42.972656 126.023438 43.296875 C 125.785156 43.996094 125.527344 44.683594 125.257812 45.367188 C 123.179688 50.621094 120.445312 55.558594 119.238281 61.121094 C 117.9375 67.125 119.382812 73.089844 122.9375 78.039062 C 126.710938 83.296875 132.320312 87.039062 137.632812 90.570312 C 139.503906 91.8125 142.277344 91.699219 143.636719 89.714844 C 144.890625 87.886719 144.777344 85.039062 142.78125 83.710938 C 140.410156 82.136719 138.042969 80.550781 135.792969 78.800781 C 134.78125 78.015625 133.792969 77.195312 132.84375 76.328125 C 132.785156 76.273438 132.214844 75.714844 132.304688 75.8125 C 132.207031 75.714844 132.109375 75.613281 132.011719 75.511719 C 131.5 74.984375 131.007812 74.429688 130.539062 73.859375 C 130.121094 73.34375 129.722656 72.8125 129.347656 72.265625 C 129.25 72.121094 129.160156 71.980469 129.070312 71.839844 C 129.015625 71.730469 128.773438 71.3125 128.730469 71.230469 C 128.460938 70.707031 128.214844 70.171875 128.003906 69.621094 C 127.917969 69.402344 127.847656 69.175781 127.761719 68.957031 C 127.738281 68.886719 127.722656 68.832031 127.707031 68.785156 C 127.671875 68.632812 127.632812 68.484375 127.601562 68.335938 C 127.476562 67.742188 127.386719 67.144531 127.332031 66.539062 C 127.308594 66.265625 127.296875 65.992188 127.285156 65.714844 C 127.289062 65.667969 127.292969 65.617188 127.296875 65.554688 C 127.402344 64.238281 127.578125 62.976562 127.867188 61.6875 C 127.878906 61.636719 127.886719 61.597656 127.894531 61.558594 C 127.910156 61.507812 127.933594 61.445312 127.960938 61.367188 C 128.054688 61.078125 128.136719 60.785156 128.230469 60.5 C 128.441406 59.855469 128.667969 59.222656 128.910156 58.589844 C 129.402344 57.3125 129.945312 56.054688 130.5 54.800781 C 131.566406 52.40625 132.6875 50.035156 133.597656 47.574219 C 135.839844 41.507812 136.277344 35.011719 134.738281 28.71875 C 132.96875 21.484375 129.414062 15.003906 125.304688 8.847656 C 124.054688 6.980469 120.925781 6.722656 119.277344 8.160156 C 117.40625 9.78125 117.246094 12.179688 118.582031 14.179688 C 119.054688 14.886719 119.519531 15.597656 119.972656 16.3125 " fill-opacity="1" fill-rule="nonzero"/><path fill="#fff1e8" d="M 142.582031 13.089844 C 142.734375 13.328125 142.882812 13.566406 143.035156 13.808594 C 143.042969 13.820312 143.429688 14.460938 143.472656 14.53125 C 144.222656 15.800781 144.9375 17.097656 145.605469 18.421875 C 146.269531 19.742188 146.882812 21.089844 147.433594 22.464844 C 147.71875 23.175781 147.988281 23.894531 148.234375 24.625 C 148.324219 24.886719 148.410156 25.148438 148.496094 25.414062 C 148.558594 25.617188 148.617188 25.820312 148.679688 26.015625 C 148.695312 26.085938 148.722656 26.179688 148.753906 26.300781 C 149.078125 27.640625 149.359375 28.980469 149.53125 30.347656 C 149.617188 31.027344 149.679688 31.707031 149.714844 32.394531 C 149.71875 32.449219 149.730469 33.175781 149.738281 33.210938 C 149.734375 33.585938 149.71875 33.960938 149.695312 34.335938 C 149.613281 35.742188 149.40625 37.140625 149.09375 38.519531 C 149.058594 38.648438 148.96875 39.003906 148.941406 39.097656 C 148.84375 39.425781 148.738281 39.75 148.628906 40.074219 C 148.394531 40.769531 148.136719 41.460938 147.863281 42.144531 C 145.785156 47.394531 143.054688 52.332031 141.84375 57.898438 C 140.542969 63.898438 141.988281 69.859375 145.542969 74.8125 C 149.320312 80.074219 154.925781 83.8125 160.242188 87.347656 C 162.109375 88.585938 164.882812 88.472656 166.246094 86.488281 C 167.496094 84.664062 167.382812 81.8125 165.386719 80.484375 C 163.015625 78.910156 160.648438 77.324219 158.402344 75.574219 C 157.386719 74.789062 156.398438 73.96875 155.453125 73.105469 C 155.390625 73.046875 154.824219 72.492188 154.914062 72.589844 C 154.8125 72.488281 154.714844 72.390625 154.617188 72.289062 C 154.105469 71.757812 153.613281 71.207031 153.148438 70.632812 C 152.726562 70.121094 152.328125 69.585938 151.953125 69.039062 C 151.859375 68.898438 151.769531 68.753906 151.675781 68.613281 C 151.621094 68.503906 151.378906 68.089844 151.335938 68.003906 C 151.066406 67.480469 150.824219 66.945312 150.609375 66.394531 C 150.523438 66.175781 150.453125 65.949219 150.367188 65.730469 C 150.347656 65.664062 150.328125 65.605469 150.3125 65.558594 C 150.277344 65.410156 150.238281 65.261719 150.207031 65.109375 C 150.082031 64.519531 149.992188 63.917969 149.941406 63.3125 C 149.917969 63.039062 149.902344 62.765625 149.890625 62.488281 C 149.894531 62.445312 149.898438 62.394531 149.902344 62.332031 C 150.007812 61.015625 150.1875 59.753906 150.472656 58.460938 C 150.484375 58.414062 150.492188 58.367188 150.5 58.332031 C 150.519531 58.28125 150.539062 58.222656 150.566406 58.144531 C 150.660156 57.851562 150.742188 57.5625 150.835938 57.273438 C 151.046875 56.632812 151.273438 55.996094 151.515625 55.371094 C 152.007812 54.085938 152.550781 52.828125 153.109375 51.574219 C 154.171875 49.179688 155.292969 46.808594 156.203125 44.347656 C 158.445312 38.285156 158.882812 31.785156 157.34375 25.492188 C 155.578125 18.253906 152.019531 11.78125 147.910156 5.628906 C 146.660156 3.757812 143.535156 3.5 141.882812 4.929688 C 140.011719 6.554688 139.851562 8.957031 141.1875 10.957031 C 141.660156 11.660156 142.125 12.371094 142.582031 13.089844 " fill-opacity="1" fill-rule="nonzero"/><g fill="#3d1109" fill-opacity="1"><g transform="translate(103.076948, 269.055524)"><g><path d="M 16.390625 -42.109375 C 21.097656 -42.109375 24.628906 -41.492188 26.984375 -40.265625 C 29.335938 -39.035156 30.9375 -36.988281 31.78125 -34.125 C 32.394531 -32.28125 32.539062 -30.75 32.21875 -29.53125 C 31.925781 -28.300781 31.164062 -27.546875 29.9375 -27.265625 C 28.71875 -26.984375 27.734375 -27.078125 26.984375 -27.546875 C 26.234375 -28.109375 25.523438 -29.078125 24.859375 -30.453125 C 24.253906 -31.816406 23.710938 -32.734375 23.234375 -33.203125 C 22.765625 -33.671875 22.128906 -33.976562 21.328125 -34.125 C 17.285156 -34.96875 14.132812 -34.726562 11.875 -33.40625 C 10.175781 -32.375 9.65625 -31.363281 10.3125 -30.375 C 10.96875 -29.382812 13.695312 -27.675781 18.5 -25.25 C 23.3125 -22.820312 26.703125 -20.851562 28.671875 -19.34375 C 30.648438 -17.84375 31.921875 -16.363281 32.484375 -14.90625 C 33.054688 -13.445312 33.25 -11.75 33.0625 -9.8125 C 32.875 -7.882812 32.378906 -6.191406 31.578125 -4.734375 C 27.484375 2.515625 20.019531 3.476562 9.1875 -1.84375 C 4.050781 -4.332031 2.566406 -6.78125 4.734375 -9.1875 C 5.535156 -10.125 6.5 -10.546875 7.625 -10.453125 C 8.757812 -10.359375 10.46875 -9.742188 12.75 -8.609375 C 15.03125 -7.484375 17.160156 -6.828125 19.140625 -6.640625 C 21.117188 -6.453125 22.367188 -6.453125 22.890625 -6.640625 C 23.410156 -6.828125 23.953125 -7.25 24.515625 -7.90625 C 25.265625 -8.988281 25.640625 -9.953125 25.640625 -10.796875 C 25.640625 -11.648438 24.863281 -12.6875 23.3125 -13.90625 C 21.757812 -15.132812 18.875 -16.675781 14.65625 -18.53125 C 10.4375 -20.394531 7.289062 -22.222656 5.21875 -24.015625 C 3.15625 -25.804688 2.125 -28.046875 2.125 -30.734375 C 2.125 -34.265625 3.984375 -37.320312 7.703125 -39.90625 C 9.160156 -40.988281 10.3125 -41.625 11.15625 -41.8125 C 12.007812 -42.007812 13.753906 -42.109375 16.390625 -42.109375 Z M 16.390625 -42.109375 "/></g></g></g><g fill="#3d1109" fill-opacity="1"><g transform="translate(140.940259, 269.055524)"><g><path d="M 3.390625 -18.21875 C 2.546875 -24.4375 2.125 -28.25 2.125 -29.65625 C 2.125 -31.070312 2.546875 -32.34375 3.390625 -33.46875 C 4.234375 -34.601562 5.175781 -35.195312 6.21875 -35.25 C 7.25 -35.195312 8.023438 -34.984375 8.546875 -34.609375 C 9.066406 -34.234375 9.679688 -33.484375 10.390625 -32.359375 C 11.660156 -30.234375 13.707031 -27.851562 16.53125 -25.21875 C 18.789062 -23.007812 21.992188 -20.253906 26.140625 -16.953125 C 30.285156 -13.660156 32.640625 -11.988281 33.203125 -11.9375 C 33.628906 -11.9375 33.742188 -12.691406 33.546875 -14.203125 C 33.265625 -19.234375 33.03125 -23.914062 32.84375 -28.25 C 32.613281 -32.582031 32.546875 -35.410156 32.640625 -36.734375 C 32.734375 -38.054688 33.0625 -39.019531 33.625 -39.625 C 34.1875 -40.238281 35.125 -40.59375 36.4375 -40.6875 C 37.757812 -40.78125 38.632812 -40.566406 39.0625 -40.046875 C 39.488281 -39.535156 39.84375 -37.582031 40.125 -34.1875 C 40.40625 -30.800781 40.707031 -25.289062 41.03125 -17.65625 C 41.363281 -10.03125 41.484375 -5.789062 41.390625 -4.9375 C 41.296875 -4.09375 40.847656 -3.390625 40.046875 -2.828125 C 38.210938 -1.410156 35.929688 -1.359375 33.203125 -2.671875 C 30.472656 -3.992188 26.1875 -6.960938 20.34375 -11.578125 C 14.5 -16.296875 11.503906 -18.582031 11.359375 -18.4375 C 11.222656 -18.289062 11.484375 -16.265625 12.140625 -12.359375 C 12.804688 -8.453125 13.140625 -6.023438 13.140625 -5.078125 C 13.140625 -4.140625 12.878906 -3.316406 12.359375 -2.609375 C 11.367188 -1.054688 10.097656 -0.5625 8.546875 -1.125 C 6.992188 -1.695312 5.957031 -3.132812 5.4375 -5.4375 C 4.914062 -7.75 4.234375 -12.007812 3.390625 -18.21875 Z M 3.390625 -18.21875 "/></g></g></g><g fill="#3d1109" fill-opacity="1"><g transform="translate(187.068512, 269.055524)"><g><path d="M 29.953125 -16.953125 C 29.859375 -17.703125 28.46875 -21.492188 25.78125 -28.328125 C 22.625 -22.390625 21 -19.019531 20.90625 -18.21875 C 21 -18.03125 22.503906 -17.75 25.421875 -17.375 C 28.347656 -17 29.859375 -16.859375 29.953125 -16.953125 Z M 3.53125 1.125 C 2.59375 0.1875 2.125 -0.5625 2.125 -1.125 C 2.125 -1.695312 2.921875 -3.160156 4.515625 -5.515625 C 6.117188 -7.867188 9.507812 -14.035156 14.6875 -24.015625 C 19.875 -34.003906 22.816406 -39.539062 23.515625 -40.625 C 24.035156 -41.320312 24.953125 -41.578125 26.265625 -41.390625 C 27.585938 -41.203125 28.648438 -40.632812 29.453125 -39.6875 C 30.253906 -38.75 30.984375 -37.195312 31.640625 -35.03125 C 32.304688 -32.863281 33.957031 -28.296875 36.59375 -21.328125 C 39.226562 -14.359375 41.0625 -9.648438 42.09375 -7.203125 C 43.132812 -4.753906 43.75 -2.988281 43.9375 -1.90625 C 44.125 -0.820312 43.984375 0 43.515625 0.5625 C 43.046875 1.125 42.175781 1.503906 40.90625 1.703125 C 39.675781 1.890625 38.613281 1.535156 37.71875 0.640625 C 36.820312 -0.253906 36.046875 -1.503906 35.390625 -3.109375 C 34.679688 -4.710938 34.1875 -5.796875 33.90625 -6.359375 C 33.625 -6.921875 33.25 -7.367188 32.78125 -7.703125 C 32.3125 -7.929688 31.882812 -8.09375 31.5 -8.1875 C 31.125 -8.28125 30.507812 -8.421875 29.65625 -8.609375 C 28.8125 -8.804688 27.566406 -9.140625 25.921875 -9.609375 C 24.273438 -10.078125 21.238281 -10.429688 16.8125 -10.671875 L 13.0625 -4.734375 C 11.28125 -1.816406 9.914062 0.113281 8.96875 1.0625 C 7.976562 2.050781 7.054688 2.546875 6.203125 2.546875 C 5.359375 2.546875 4.46875 2.070312 3.53125 1.125 Z M 3.53125 1.125 "/></g></g></g><g fill="#3d1109" fill-opacity="1"><g transform="translate(235.810468, 269.055524)"><g><path d="M 9.953125 -40.1875 C 9.953125 -28.414062 10.144531 -22.109375 10.53125 -21.265625 C 11.425781 -20.648438 14.109375 -21 18.578125 -22.3125 C 23.054688 -23.632812 25.597656 -24.816406 26.203125 -25.859375 C 26.816406 -26.753906 26.132812 -28.660156 24.15625 -31.578125 C 22.175781 -34.492188 20.242188 -36.515625 18.359375 -37.640625 C 16.484375 -38.773438 13.679688 -39.625 9.953125 -40.1875 Z M 5.71875 -47.328125 L 11.71875 -47.328125 C 15.113281 -47.140625 18.035156 -46.476562 20.484375 -45.34375 C 22.929688 -44.21875 25.425781 -42.191406 27.96875 -39.265625 C 30.507812 -36.347656 32.300781 -33.335938 33.34375 -30.234375 C 34.28125 -27.171875 34.226562 -24.578125 33.1875 -22.453125 C 32.15625 -20.335938 29.847656 -18.457031 26.265625 -16.8125 C 22.691406 -15.164062 18.765625 -14.109375 14.484375 -13.640625 L 10.390625 -13.140625 L 10.734375 -7.484375 C 10.921875 -5.035156 10.96875 -3.382812 10.875 -2.53125 C 10.78125 -1.6875 10.425781 -0.960938 9.8125 -0.359375 C 8.820312 0.816406 7.757812 1.3125 6.625 1.125 C 5.5 0.9375 4.539062 0.0195312 3.75 -1.625 C 3.226562 -2.5625 2.78125 -9.71875 2.40625 -23.09375 C 2.03125 -36.46875 2.078125 -43.742188 2.546875 -44.921875 C 2.640625 -45.203125 2.78125 -45.4375 2.96875 -45.625 C 3.15625 -45.820312 3.34375 -46.035156 3.53125 -46.265625 C 3.71875 -46.503906 3.953125 -46.671875 4.234375 -46.765625 C 4.515625 -46.859375 4.726562 -46.953125 4.875 -47.046875 C 5.0625 -47.234375 5.34375 -47.328125 5.71875 -47.328125 Z M 5.71875 -47.328125 "/></g></g></g><g fill="#3d1109" fill-opacity="1"><g transform="translate(108.193814, 321.163454)"><g><path d="M 12.28125 -35.59375 C 11.71875 -35.40625 11.4375 -34.9375 11.4375 -34.1875 C 11.4375 -33.4375 11.132812 -30.304688 10.53125 -24.796875 C 16.550781 -25.222656 20.644531 -25.578125 22.8125 -25.859375 C 24.976562 -26.140625 26.34375 -26.1875 26.90625 -26 C 27.476562 -25.8125 28.234375 -25.289062 29.171875 -24.4375 C 30.023438 -23.59375 30.453125 -22.882812 30.453125 -22.3125 C 30.453125 -21.75 30.050781 -21.019531 29.25 -20.125 C 28.394531 -19.332031 27.398438 -18.789062 26.265625 -18.5 C 25.140625 -18.21875 22.742188 -17.984375 19.078125 -17.796875 L 10.734375 -17.3125 C 10.597656 -14.4375 10.8125 -11.820312 11.375 -9.46875 C 11.9375 -7.113281 12.898438 -5.75 14.265625 -5.375 C 15.773438 -4.988281 23.851562 -4.539062 38.5 -4.03125 L 39.421875 -2.125 C 39.835938 -1.269531 40.046875 -0.65625 40.046875 -0.28125 C 40.046875 0.09375 39.832031 0.585938 39.40625 1.203125 C 38.988281 1.816406 38.6875 2.21875 38.5 2.40625 C 38.3125 2.59375 37.769531 2.753906 36.875 2.890625 C 35.976562 3.035156 34.941406 3.109375 33.765625 3.109375 C 32.585938 3.109375 30.5625 3.128906 27.6875 3.171875 C 19.914062 3.171875 14.472656 2.65625 11.359375 1.625 C 8.253906 0.59375 6.046875 -1.40625 4.734375 -4.375 C 4.078125 -6.03125 3.414062 -9.445312 2.75 -14.625 C 2.09375 -19.800781 1.953125 -22.71875 2.328125 -23.375 C 2.703125 -24.082031 3.03125 -26.082031 3.3125 -29.375 C 3.601562 -32.675781 3.796875 -34.890625 3.890625 -36.015625 C 3.984375 -37.148438 4.265625 -38.210938 4.734375 -39.203125 C 5.203125 -40.191406 5.695312 -40.921875 6.21875 -41.390625 C 6.738281 -41.867188 7.609375 -42.296875 8.828125 -42.671875 C 10.097656 -43.046875 11.390625 -43.328125 12.703125 -43.515625 C 14.023438 -43.703125 16.757812 -43.984375 20.90625 -44.359375 C 25.050781 -44.734375 27.710938 -45.113281 28.890625 -45.5 C 31.953125 -46.4375 34.164062 -46.289062 35.53125 -45.0625 C 36.28125 -44.40625 36.65625 -43.554688 36.65625 -42.515625 C 36.65625 -41.484375 36.28125 -40.59375 35.53125 -39.84375 C 34.820312 -39.09375 32.816406 -38.382812 29.515625 -37.71875 C 26.222656 -37.0625 22.671875 -36.59375 18.859375 -36.3125 C 15.046875 -36.03125 12.851562 -35.789062 12.28125 -35.59375 Z M 12.28125 -35.59375 "/></g></g></g><g fill="#3d1109" fill-opacity="1"><g transform="translate(150.366189, 321.163454)"><g><path d="M 29.953125 -16.953125 C 29.859375 -17.703125 28.46875 -21.492188 25.78125 -28.328125 C 22.625 -22.390625 21 -19.019531 20.90625 -18.21875 C 21 -18.03125 22.503906 -17.75 25.421875 -17.375 C 28.347656 -17 29.859375 -16.859375 29.953125 -16.953125 Z M 3.53125 1.125 C 2.59375 0.1875 2.125 -0.5625 2.125 -1.125 C 2.125 -1.695312 2.921875 -3.160156 4.515625 -5.515625 C 6.117188 -7.867188 9.507812 -14.035156 14.6875 -24.015625 C 19.875 -34.003906 22.816406 -39.539062 23.515625 -40.625 C 24.035156 -41.320312 24.953125 -41.578125 26.265625 -41.390625 C 27.585938 -41.203125 28.648438 -40.632812 29.453125 -39.6875 C 30.253906 -38.75 30.984375 -37.195312 31.640625 -35.03125 C 32.304688 -32.863281 33.957031 -28.296875 36.59375 -21.328125 C 39.226562 -14.359375 41.0625 -9.648438 42.09375 -7.203125 C 43.132812 -4.753906 43.75 -2.988281 43.9375 -1.90625 C 44.125 -0.820312 43.984375 0 43.515625 0.5625 C 43.046875 1.125 42.175781 1.503906 40.90625 1.703125 C 39.675781 1.890625 38.613281 1.535156 37.71875 0.640625 C 36.820312 -0.253906 36.046875 -1.503906 35.390625 -3.109375 C 34.679688 -4.710938 34.1875 -5.796875 33.90625 -6.359375 C 33.625 -6.921875 33.25 -7.367188 32.78125 -7.703125 C 32.3125 -7.929688 31.882812 -8.09375 31.5 -8.1875 C 31.125 -8.28125 30.507812 -8.421875 29.65625 -8.609375 C 28.8125 -8.804688 27.566406 -9.140625 25.921875 -9.609375 C 24.273438 -10.078125 21.238281 -10.429688 16.8125 -10.671875 L 13.0625 -4.734375 C 11.28125 -1.816406 9.914062 0.113281 8.96875 1.0625 C 7.976562 2.050781 7.054688 2.546875 6.203125 2.546875 C 5.359375 2.546875 4.46875 2.070312 3.53125 1.125 Z M 3.53125 1.125 "/></g></g></g><g fill="#3d1109" fill-opacity="1"><g transform="translate(196.494438, 321.163454)"><g><path d="M 22.609375 -33.90625 C 22.085938 -33.90625 21.96875 -33.503906 22.25 -32.703125 C 22.53125 -31.335938 22.800781 -26.273438 23.0625 -17.515625 C 23.320312 -8.753906 23.40625 -3.429688 23.3125 -1.546875 C 23.21875 0.328125 22.863281 1.546875 22.25 2.109375 C 21.632812 2.679688 20.804688 3.015625 19.765625 3.109375 C 18.734375 3.203125 17.863281 2.960938 17.15625 2.390625 C 16.457031 1.828125 15.96875 0.0390625 15.6875 -2.96875 C 15.40625 -5.976562 15.117188 -12.171875 14.828125 -21.546875 L 14.40625 -34.1875 L 9.25 -34.546875 C 6.570312 -34.773438 4.710938 -35.171875 3.671875 -35.734375 C 2.640625 -36.304688 2.125 -37.390625 2.125 -38.984375 C 2.125 -40.585938 2.96875 -41.625 4.65625 -42.09375 C 6.351562 -42.570312 9.132812 -42.597656 13 -42.171875 C 16.863281 -41.742188 19.3125 -41.578125 20.34375 -41.671875 C 21.382812 -41.765625 22.84375 -42.144531 24.71875 -42.8125 C 26.601562 -43.5625 27.96875 -43.984375 28.8125 -44.078125 C 29.664062 -44.171875 30.609375 -43.984375 31.640625 -43.515625 C 32.398438 -43.046875 32.828125 -42.148438 32.921875 -40.828125 C 33.015625 -39.515625 32.726562 -38.523438 32.0625 -37.859375 C 31.40625 -37.203125 29.84375 -36.378906 27.375 -35.390625 C 24.90625 -34.398438 23.316406 -33.90625 22.609375 -33.90625 Z M 22.609375 -33.90625 "/></g></g></g><g fill="#3d1109" fill-opacity="1"><g transform="translate(231.532121, 321.163454)"><g><path d="M 16.390625 -42.109375 C 21.097656 -42.109375 24.628906 -41.492188 26.984375 -40.265625 C 29.335938 -39.035156 30.9375 -36.988281 31.78125 -34.125 C 32.394531 -32.28125 32.539062 -30.75 32.21875 -29.53125 C 31.925781 -28.300781 31.164062 -27.546875 29.9375 -27.265625 C 28.71875 -26.984375 27.734375 -27.078125 26.984375 -27.546875 C 26.234375 -28.109375 25.523438 -29.078125 24.859375 -30.453125 C 24.253906 -31.816406 23.710938 -32.734375 23.234375 -33.203125 C 22.765625 -33.671875 22.128906 -33.976562 21.328125 -34.125 C 17.285156 -34.96875 14.132812 -34.726562 11.875 -33.40625 C 10.175781 -32.375 9.65625 -31.363281 10.3125 -30.375 C 10.96875 -29.382812 13.695312 -27.675781 18.5 -25.25 C 23.3125 -22.820312 26.703125 -20.851562 28.671875 -19.34375 C 30.648438 -17.84375 31.921875 -16.363281 32.484375 -14.90625 C 33.054688 -13.445312 33.25 -11.75 33.0625 -9.8125 C 32.875 -7.882812 32.378906 -6.191406 31.578125 -4.734375 C 27.484375 2.515625 20.019531 3.476562 9.1875 -1.84375 C 4.050781 -4.332031 2.566406 -6.78125 4.734375 -9.1875 C 5.535156 -10.125 6.5 -10.546875 7.625 -10.453125 C 8.757812 -10.359375 10.46875 -9.742188 12.75 -8.609375 C 15.03125 -7.484375 17.160156 -6.828125 19.140625 -6.640625 C 21.117188 -6.453125 22.367188 -6.453125 22.890625 -6.640625 C 23.410156 -6.828125 23.953125 -7.25 24.515625 -7.90625 C 25.265625 -8.988281 25.640625 -9.953125 25.640625 -10.796875 C 25.640625 -11.648438 24.863281 -12.6875 23.3125 -13.90625 C 21.757812 -15.132812 18.875 -16.675781 14.65625 -18.53125 C 10.4375 -20.394531 7.289062 -22.222656 5.21875 -24.015625 C 3.15625 -25.804688 2.125 -28.046875 2.125 -30.734375 C 2.125 -34.265625 3.984375 -37.320312 7.703125 -39.90625 C 9.160156 -40.988281 10.3125 -41.625 11.15625 -41.8125 C 12.007812 -42.007812 13.753906 -42.109375 16.390625 -42.109375 Z M 16.390625 -42.109375 "/></g></g></g><g fill="#000000" fill-opacity="1"><g transform="translate(81.19905, 354.781408)"><g><path d="M 9.296875 -9.15625 C 9.015625 -5.863281 7.832031 -3.382812 5.75 -1.71875 C 4.789062 -0.957031 3.484375 -0.578125 1.828125 -0.578125 C 1.378906 -0.578125 0.976562 -0.765625 0.625 -1.140625 C 0.269531 -1.523438 0.09375 -1.957031 0.09375 -2.4375 C 0.1875 -5.894531 0.234375 -7.640625 0.234375 -7.671875 C 0.234375 -11.691406 0.21875 -14.101562 0.1875 -14.90625 C 0.15625 -15.550781 0.335938 -16.039062 0.734375 -16.375 C 1.140625 -16.707031 1.597656 -16.875 2.109375 -16.875 C 3.671875 -16.8125 5.082031 -16.320312 6.34375 -15.40625 C 7.613281 -14.5 8.488281 -13.265625 8.96875 -11.703125 C 9.0625 -11.316406 9.140625 -10.8125 9.203125 -10.1875 C 9.265625 -9.5625 9.296875 -9.21875 9.296875 -9.15625 Z M 2.390625 -2.96875 C 2.460938 -2.96875 2.519531 -2.957031 2.5625 -2.9375 C 2.613281 -2.925781 2.65625 -2.921875 2.6875 -2.921875 C 4 -3.046875 5.050781 -3.796875 5.84375 -5.171875 C 6.675781 -6.484375 7.0625 -8.019531 7 -9.78125 C 6.96875 -10.988281 6.550781 -12.023438 5.75 -12.890625 C 4.945312 -13.753906 3.957031 -14.300781 2.78125 -14.53125 C 2.71875 -14.53125 2.625 -14.492188 2.5 -14.421875 C 2.5 -13.148438 2.476562 -11.242188 2.4375 -8.703125 C 2.40625 -6.160156 2.390625 -4.25 2.390625 -2.96875 Z M 2.390625 -2.96875 "/></g></g></g><g fill="#000000" fill-opacity="1"><g transform="translate(94.717276, 354.781408)"><g><path d="M 2.4375 -3.78125 C 2.476562 -3.207031 2.71875 -2.648438 3.15625 -2.109375 C 3.507812 -1.753906 3.910156 -1.675781 4.359375 -1.875 C 4.867188 -2.09375 5.269531 -2.441406 5.5625 -2.921875 C 5.625 -3.078125 5.75 -3.316406 5.9375 -3.640625 C 6.257812 -4.117188 6.660156 -4.25 7.140625 -4.03125 C 7.648438 -3.738281 7.828125 -3.351562 7.671875 -2.875 C 7.035156 -0.957031 5.820312 0.0625 4.03125 0.1875 C 3.257812 0.28125 2.601562 0.0546875 2.0625 -0.484375 C 1.351562 -1.148438 0.890625 -1.867188 0.671875 -2.640625 C 0.160156 -4.296875 0.03125 -5.703125 0.28125 -6.859375 C 0.632812 -8.546875 1.675781 -9.566406 3.40625 -9.921875 C 3.820312 -10.015625 4.300781 -9.96875 4.84375 -9.78125 C 5.539062 -9.519531 6.113281 -9.019531 6.5625 -8.28125 C 7.007812 -7.550781 7.1875 -6.804688 7.09375 -6.046875 C 7 -5.015625 6.457031 -4.375 5.46875 -4.125 C 5.175781 -4.0625 4.679688 -4 3.984375 -3.9375 C 3.691406 -3.90625 3.273438 -3.890625 2.734375 -3.890625 C 2.703125 -3.847656 2.65625 -3.828125 2.59375 -3.828125 C 2.53125 -3.828125 2.476562 -3.8125 2.4375 -3.78125 Z M 2.15625 -5.796875 C 2.445312 -5.828125 2.867188 -5.859375 3.421875 -5.890625 C 3.984375 -5.921875 4.410156 -5.9375 4.703125 -5.9375 C 5.015625 -6.007812 5.15625 -6.203125 5.125 -6.515625 C 5.09375 -6.710938 5.015625 -6.96875 4.890625 -7.28125 C 4.503906 -7.957031 3.945312 -8.132812 3.21875 -7.8125 C 2.507812 -7.488281 2.15625 -6.816406 2.15625 -5.796875 Z M 2.15625 -5.796875 "/></g></g></g><g fill="#000000" fill-opacity="1"><g transform="translate(106.605641, 354.781408)"><g><path d="M 0.1875 -8.4375 C 0.1875 -9.207031 0.175781 -10.328125 0.15625 -11.796875 C 0.144531 -13.265625 0.140625 -14.378906 0.140625 -15.140625 C 0.140625 -15.398438 0.15625 -15.59375 0.1875 -15.71875 C 0.28125 -16.363281 0.648438 -16.6875 1.296875 -16.6875 C 1.867188 -16.6875 2.203125 -16.394531 2.296875 -15.8125 C 2.359375 -15.625 2.390625 -15.367188 2.390625 -15.046875 L 2.390625 -1.046875 C 2.328125 -0.347656 1.945312 0 1.25 0 C 0.601562 -0.0625 0.25 -0.460938 0.1875 -1.203125 Z M 0.1875 -8.4375 "/></g></g></g><g fill="#000000" fill-opacity="1"><g transform="translate(113.508568, 354.781408)"><g><path d="M 2.828125 -1.15625 C 2.859375 -0.832031 2.785156 -0.550781 2.609375 -0.3125 C 2.429688 -0.0703125 2.1875 0.0625 1.875 0.09375 C 1.257812 0.15625 0.84375 -0.128906 0.625 -0.765625 C 0.5625 -1.085938 0.53125 -1.3125 0.53125 -1.4375 C 0.269531 -3.507812 0.203125 -6.019531 0.328125 -8.96875 C 0.328125 -9.09375 0.363281 -9.285156 0.4375 -9.546875 C 0.65625 -10.023438 1.050781 -10.226562 1.625 -10.15625 C 2.164062 -10.09375 2.472656 -9.789062 2.546875 -9.25 L 2.546875 -6.515625 C 2.515625 -6.515625 2.535156 -5.851562 2.609375 -4.53125 C 2.691406 -3.207031 2.765625 -2.082031 2.828125 -1.15625 Z M 0.140625 -12.609375 C 0.140625 -12.960938 0.265625 -13.273438 0.515625 -13.546875 C 0.773438 -13.816406 1.066406 -13.9375 1.390625 -13.90625 C 1.679688 -13.90625 1.925781 -13.804688 2.125 -13.609375 C 2.332031 -13.421875 2.4375 -13.179688 2.4375 -12.890625 C 2.476562 -12.578125 2.367188 -12.273438 2.109375 -11.984375 C 1.847656 -11.691406 1.578125 -11.546875 1.296875 -11.546875 C 0.972656 -11.515625 0.695312 -11.609375 0.46875 -11.828125 C 0.25 -12.054688 0.140625 -12.316406 0.140625 -12.609375 Z M 0.140625 -12.609375 "/></g></g></g><g fill="#000000" fill-opacity="1"><g transform="translate(120.699123, 354.781408)"><g><path d="M 0.140625 -4.890625 C 0.203125 -6.960938 0.96875 -8.59375 2.4375 -9.78125 C 3.050781 -10.226562 3.707031 -10.453125 4.40625 -10.453125 C 5.113281 -10.453125 5.753906 -10.195312 6.328125 -9.6875 C 6.710938 -9.394531 7.0625 -8.976562 7.375 -8.4375 C 7.789062 -7.769531 7.695312 -7.242188 7.09375 -6.859375 C 6.488281 -6.472656 5.960938 -6.597656 5.515625 -7.234375 L 5.078125 -7.8125 C 4.691406 -8.289062 4.242188 -8.335938 3.734375 -7.953125 C 3.160156 -7.503906 2.78125 -6.929688 2.59375 -6.234375 C 2.394531 -5.460938 2.394531 -4.660156 2.59375 -3.828125 C 2.75 -3.066406 3.179688 -2.625 3.890625 -2.5 C 4.648438 -2.300781 5.300781 -2.488281 5.84375 -3.0625 C 5.90625 -3.164062 6 -3.3125 6.125 -3.5 C 6.257812 -3.6875 6.34375 -3.816406 6.375 -3.890625 C 6.820312 -4.429688 7.300781 -4.539062 7.8125 -4.21875 C 8.320312 -3.925781 8.484375 -3.445312 8.296875 -2.78125 C 8.035156 -2.070312 7.519531 -1.460938 6.75 -0.953125 C 5.988281 -0.441406 5.207031 -0.1875 4.40625 -0.1875 C 3.476562 -0.21875 2.660156 -0.472656 1.953125 -0.953125 C 1.253906 -1.429688 0.796875 -2.070312 0.578125 -2.875 Z M 0.140625 -4.890625 "/></g></g></g><g fill="#000000" fill-opacity="1"><g transform="translate(133.306554, 354.781408)"><g><path d="M 2.828125 -1.15625 C 2.859375 -0.832031 2.785156 -0.550781 2.609375 -0.3125 C 2.429688 -0.0703125 2.1875 0.0625 1.875 0.09375 C 1.257812 0.15625 0.84375 -0.128906 0.625 -0.765625 C 0.5625 -1.085938 0.53125 -1.3125 0.53125 -1.4375 C 0.269531 -3.507812 0.203125 -6.019531 0.328125 -8.96875 C 0.328125 -9.09375 0.363281 -9.285156 0.4375 -9.546875 C 0.65625 -10.023438 1.050781 -10.226562 1.625 -10.15625 C 2.164062 -10.09375 2.472656 -9.789062 2.546875 -9.25 L 2.546875 -6.515625 C 2.515625 -6.515625 2.535156 -5.851562 2.609375 -4.53125 C 2.691406 -3.207031 2.765625 -2.082031 2.828125 -1.15625 Z M 0.140625 -12.609375 C 0.140625 -12.960938 0.265625 -13.273438 0.515625 -13.546875 C 0.773438 -13.816406 1.066406 -13.9375 1.390625 -13.90625 C 1.679688 -13.90625 1.925781 -13.804688 2.125 -13.609375 C 2.332031 -13.421875 2.4375 -13.179688 2.4375 -12.890625 C 2.476562 -12.578125 2.367188 -12.273438 2.109375 -11.984375 C 1.847656 -11.691406 1.578125 -11.546875 1.296875 -11.546875 C 0.972656 -11.515625 0.695312 -11.609375 0.46875 -11.828125 C 0.25 -12.054688 0.140625 -12.316406 0.140625 -12.609375 Z M 0.140625 -12.609375 "/></g></g></g><g fill="#000000" fill-opacity="1"><g transform="translate(140.497111, 354.781408)"><g><path d="M 0.4375 -3.21875 C 0.0820312 -4.90625 0.160156 -6.375 0.671875 -7.625 C 1.148438 -8.90625 2.03125 -9.734375 3.3125 -10.109375 C 3.695312 -10.242188 4.09375 -10.257812 4.5 -10.15625 C 5.8125 -9.8125 6.644531 -8.984375 7 -7.671875 C 7.570312 -5.367188 7.378906 -3.273438 6.421875 -1.390625 C 5.910156 -0.398438 5.132812 0.140625 4.09375 0.234375 C 3.0625 0.335938 2.191406 -0.0546875 1.484375 -0.953125 C 1.035156 -1.535156 0.6875 -2.289062 0.4375 -3.21875 Z M 4.984375 -6.859375 C 4.984375 -6.890625 4.96875 -6.957031 4.9375 -7.0625 C 4.90625 -7.175781 4.875 -7.265625 4.84375 -7.328125 C 4.519531 -8.003906 4.070312 -8.164062 3.5 -7.8125 C 3.113281 -7.519531 2.84375 -7.1875 2.6875 -6.8125 C 2.144531 -5.46875 2.238281 -4.078125 2.96875 -2.640625 C 3 -2.503906 3.097656 -2.359375 3.265625 -2.203125 C 3.679688 -1.722656 4.078125 -1.753906 4.453125 -2.296875 C 4.554688 -2.460938 4.640625 -2.625 4.703125 -2.78125 C 5.179688 -4.0625 5.273438 -5.421875 4.984375 -6.859375 Z M 4.984375 -6.859375 "/></g></g></g><g fill="#000000" fill-opacity="1"><g transform="translate(152.049921, 354.781408)"><g><path d="M 0.28125 -7.234375 L 0.28125 -9.15625 C 0.382812 -9.851562 0.738281 -10.171875 1.34375 -10.109375 C 1.914062 -10.109375 2.234375 -9.773438 2.296875 -9.109375 C 2.296875 -8.847656 2.300781 -8.46875 2.3125 -7.96875 C 2.332031 -7.476562 2.359375 -7.109375 2.390625 -6.859375 C 2.460938 -5.160156 2.65625 -3.847656 2.96875 -2.921875 C 3.226562 -2.253906 3.515625 -1.90625 3.828125 -1.875 C 4.304688 -1.8125 4.675781 -2.097656 4.9375 -2.734375 C 5.351562 -3.691406 5.640625 -4.519531 5.796875 -5.21875 C 5.859375 -5.476562 5.972656 -6.28125 6.140625 -7.625 L 6.28125 -8.921875 C 6.4375 -9.648438 6.800781 -9.984375 7.375 -9.921875 C 8.050781 -9.828125 8.359375 -9.410156 8.296875 -8.671875 C 8.265625 -8.097656 8.179688 -7.238281 8.046875 -6.09375 C 7.828125 -4.625 7.507812 -3.34375 7.09375 -2.25 C 6.707031 -1.445312 6.273438 -0.84375 5.796875 -0.4375 C 4.960938 0.269531 4.125 0.519531 3.28125 0.3125 C 2.4375 0.101562 1.773438 -0.492188 1.296875 -1.484375 C 0.785156 -2.597656 0.484375 -3.972656 0.390625 -5.609375 Z M 0.28125 -7.234375 "/></g></g></g><g fill="#000000" fill-opacity="1"><g transform="translate(164.753228, 354.781408)"><g><path d="M 3.21875 0.390625 C 1.289062 0.390625 0.234375 -0.472656 0.046875 -2.203125 C 0.046875 -2.554688 0.09375 -2.875 0.1875 -3.15625 C 0.28125 -3.644531 0.632812 -3.890625 1.25 -3.890625 C 1.820312 -3.816406 2.15625 -3.523438 2.25 -3.015625 L 2.25 -2.546875 C 2.3125 -2.066406 2.503906 -1.789062 2.828125 -1.71875 C 3.367188 -1.625 3.785156 -1.738281 4.078125 -2.0625 C 4.390625 -2.476562 4.488281 -2.941406 4.375 -3.453125 C 4.269531 -3.960938 3.992188 -4.3125 3.546875 -4.5 C 2.742188 -4.851562 2.101562 -5.207031 1.625 -5.5625 C 0.726562 -6.332031 0.3125 -7.140625 0.375 -7.984375 C 0.445312 -8.828125 0.816406 -9.519531 1.484375 -10.0625 C 1.898438 -10.414062 2.46875 -10.59375 3.1875 -10.59375 C 3.90625 -10.59375 4.488281 -10.445312 4.9375 -10.15625 C 5.601562 -9.78125 6.082031 -9.222656 6.375 -8.484375 C 6.601562 -7.847656 6.425781 -7.414062 5.84375 -7.1875 C 5.269531 -6.90625 4.773438 -7.035156 4.359375 -7.578125 C 4.328125 -7.640625 4.269531 -7.738281 4.1875 -7.875 C 4.113281 -8.019531 4.046875 -8.128906 3.984375 -8.203125 C 3.816406 -8.359375 3.617188 -8.453125 3.390625 -8.484375 C 3.171875 -8.515625 2.984375 -8.46875 2.828125 -8.34375 C 2.671875 -8.21875 2.59375 -8.039062 2.59375 -7.8125 C 2.59375 -7.59375 2.703125 -7.414062 2.921875 -7.28125 C 3.335938 -7 3.863281 -6.679688 4.5 -6.328125 C 6.289062 -5.460938 6.992188 -4.132812 6.609375 -2.34375 C 6.421875 -1.476562 6.019531 -0.796875 5.40625 -0.296875 C 4.800781 0.191406 4.070312 0.421875 3.21875 0.390625 Z M 3.21875 0.390625 "/></g></g></g><g fill="#000000" fill-opacity="1"><g transform="translate(175.778746, 354.781408)"><g/></g></g><g fill="#000000" fill-opacity="1"><g transform="translate(182.585798, 354.781408)"><g><path d="M 2.4375 -9.96875 C 2.914062 -9.96875 3.648438 -9.953125 4.640625 -9.921875 C 5.640625 -9.890625 6.378906 -9.875 6.859375 -9.875 C 6.859375 -10.132812 6.890625 -10.453125 6.953125 -10.828125 C 6.953125 -11.273438 6.957031 -11.976562 6.96875 -12.9375 C 6.988281 -13.894531 7 -14.597656 7 -15.046875 C 7 -15.109375 7.003906 -15.21875 7.015625 -15.375 C 7.035156 -15.539062 7.0625 -15.671875 7.09375 -15.765625 C 7.1875 -16.316406 7.539062 -16.59375 8.15625 -16.59375 C 8.726562 -16.59375 9.078125 -16.300781 9.203125 -15.71875 C 9.234375 -15.5625 9.25 -15.304688 9.25 -14.953125 C 9.21875 -14.253906 9.1875 -13.203125 9.15625 -11.796875 C 9.125 -10.390625 9.09375 -9.332031 9.0625 -8.625 C 9.0625 -7.925781 9.066406 -6.875 9.078125 -5.46875 C 9.097656 -4.0625 9.109375 -3.003906 9.109375 -2.296875 L 9.109375 -1.71875 C 9.046875 -1.050781 8.707031 -0.6875 8.09375 -0.625 C 7.425781 -0.5625 7.03125 -0.894531 6.90625 -1.625 L 6.90625 -2.390625 C 6.875 -2.972656 6.847656 -3.835938 6.828125 -4.984375 C 6.816406 -6.140625 6.8125 -7.003906 6.8125 -7.578125 C 6.332031 -7.578125 5.613281 -7.582031 4.65625 -7.59375 C 3.695312 -7.613281 2.976562 -7.640625 2.5 -7.671875 C 2.457031 -7.546875 2.4375 -7.351562 2.4375 -7.09375 L 2.4375 -1.578125 C 2.476562 -1.359375 2.476562 -1.148438 2.4375 -0.953125 C 2.34375 -0.316406 2.007812 0 1.4375 0 C 0.769531 0.0625 0.398438 -0.222656 0.328125 -0.859375 C 0.234375 -1.503906 0.1875 -2.816406 0.1875 -4.796875 C 0.1875 -5.941406 0.175781 -7.671875 0.15625 -9.984375 C 0.144531 -12.304688 0.140625 -14.0625 0.140625 -15.25 C 0.140625 -15.5625 0.171875 -15.785156 0.234375 -15.921875 C 0.429688 -16.492188 0.816406 -16.75 1.390625 -16.6875 C 1.898438 -16.625 2.203125 -16.332031 2.296875 -15.8125 C 2.359375 -15.5 2.390625 -15.257812 2.390625 -15.09375 L 2.390625 -10.59375 C 2.390625 -10.5625 2.394531 -10.472656 2.40625 -10.328125 C 2.425781 -10.179688 2.4375 -10.0625 2.4375 -9.96875 Z M 2.4375 -9.96875 "/></g></g></g><g fill="#000000" fill-opacity="1"><g transform="translate(196.104026, 354.781408)"><g><path d="M 0.4375 -3.21875 C 0.0820312 -4.90625 0.160156 -6.375 0.671875 -7.625 C 1.148438 -8.90625 2.03125 -9.734375 3.3125 -10.109375 C 3.695312 -10.242188 4.09375 -10.257812 4.5 -10.15625 C 5.8125 -9.8125 6.644531 -8.984375 7 -7.671875 C 7.570312 -5.367188 7.378906 -3.273438 6.421875 -1.390625 C 5.910156 -0.398438 5.132812 0.140625 4.09375 0.234375 C 3.0625 0.335938 2.191406 -0.0546875 1.484375 -0.953125 C 1.035156 -1.535156 0.6875 -2.289062 0.4375 -3.21875 Z M 4.984375 -6.859375 C 4.984375 -6.890625 4.96875 -6.957031 4.9375 -7.0625 C 4.90625 -7.175781 4.875 -7.265625 4.84375 -7.328125 C 4.519531 -8.003906 4.070312 -8.164062 3.5 -7.8125 C 3.113281 -7.519531 2.84375 -7.1875 2.6875 -6.8125 C 2.144531 -5.46875 2.238281 -4.078125 2.96875 -2.640625 C 3 -2.503906 3.097656 -2.359375 3.265625 -2.203125 C 3.679688 -1.722656 4.078125 -1.753906 4.453125 -2.296875 C 4.554688 -2.460938 4.640625 -2.625 4.703125 -2.78125 C 5.179688 -4.0625 5.273438 -5.421875 4.984375 -6.859375 Z M 4.984375 -6.859375 "/></g></g></g><g fill="#000000" fill-opacity="1"><g transform="translate(207.656836, 354.781408)"><g><path d="M 2.25 -7.234375 C 2.34375 -7.328125 2.453125 -7.445312 2.578125 -7.59375 C 2.710938 -7.738281 2.796875 -7.828125 2.828125 -7.859375 C 3.148438 -8.242188 3.40625 -8.515625 3.59375 -8.671875 C 4.195312 -9.148438 4.785156 -9.300781 5.359375 -9.125 C 5.941406 -8.957031 6.34375 -8.503906 6.5625 -7.765625 C 6.59375 -7.671875 6.640625 -7.519531 6.703125 -7.3125 C 6.773438 -7.101562 6.828125 -6.9375 6.859375 -6.8125 C 6.921875 -6.9375 7.015625 -7.101562 7.140625 -7.3125 C 7.265625 -7.519531 7.363281 -7.671875 7.4375 -7.765625 C 7.914062 -8.503906 8.472656 -9.0625 9.109375 -9.4375 C 10.160156 -10.050781 11.023438 -9.828125 11.703125 -8.765625 C 11.984375 -8.222656 12.15625 -7.554688 12.21875 -6.765625 C 12.25 -6.148438 12.265625 -5.253906 12.265625 -4.078125 C 12.265625 -3.597656 12.300781 -2.878906 12.375 -1.921875 L 12.375 -0.671875 C 12.332031 -0.378906 12.21875 -0.140625 12.03125 0.046875 C 11.84375 0.234375 11.617188 0.3125 11.359375 0.28125 C 10.753906 0.28125 10.421875 -0.0507812 10.359375 -0.71875 C 10.359375 -1.101562 10.34375 -1.671875 10.3125 -2.421875 C 10.28125 -3.171875 10.265625 -3.738281 10.265625 -4.125 C 10.265625 -5.269531 10.242188 -6.132812 10.203125 -6.71875 C 10.203125 -6.8125 10.175781 -6.960938 10.125 -7.171875 C 10.082031 -7.378906 10.0625 -7.515625 10.0625 -7.578125 C 9.75 -7.441406 9.429688 -7.15625 9.109375 -6.71875 C 8.085938 -4.925781 7.460938 -3.132812 7.234375 -1.34375 C 7.171875 -0.664062 6.851562 -0.296875 6.28125 -0.234375 C 5.570312 -0.171875 5.1875 -0.523438 5.125 -1.296875 L 4.84375 -5.171875 C 4.84375 -5.429688 4.8125 -6.007812 4.75 -6.90625 C 4.6875 -6.84375 4.601562 -6.769531 4.5 -6.6875 C 4.40625 -6.601562 4.34375 -6.546875 4.3125 -6.515625 C 3.800781 -5.941406 3.398438 -5.128906 3.109375 -4.078125 C 2.984375 -3.566406 2.78125 -2.59375 2.5 -1.15625 C 2.5 -1.082031 2.476562 -0.984375 2.4375 -0.859375 C 2.40625 -0.734375 2.390625 -0.640625 2.390625 -0.578125 C 2.265625 -0.128906 1.976562 0.109375 1.53125 0.140625 C 1.050781 0.203125 0.734375 0.0078125 0.578125 -0.4375 C 0.484375 -0.65625 0.4375 -0.910156 0.4375 -1.203125 C 0.363281 -2.609375 0.296875 -4.71875 0.234375 -7.53125 C 0.234375 -7.90625 0.203125 -8.445312 0.140625 -9.15625 C 0.140625 -9.476562 0.15625 -9.71875 0.1875 -9.875 C 0.351562 -10.476562 0.707031 -10.75 1.25 -10.6875 C 1.789062 -10.625 2.09375 -10.304688 2.15625 -9.734375 C 2.1875 -9.472656 2.207031 -9.0625 2.21875 -8.5 C 2.238281 -7.945312 2.25 -7.523438 2.25 -7.234375 Z M 2.25 -7.234375 "/></g></g></g><g fill="#000000" fill-opacity="1"><g transform="translate(224.29098, 354.781408)"><g><path d="M 2.4375 -3.78125 C 2.476562 -3.207031 2.71875 -2.648438 3.15625 -2.109375 C 3.507812 -1.753906 3.910156 -1.675781 4.359375 -1.875 C 4.867188 -2.09375 5.269531 -2.441406 5.5625 -2.921875 C 5.625 -3.078125 5.75 -3.316406 5.9375 -3.640625 C 6.257812 -4.117188 6.660156 -4.25 7.140625 -4.03125 C 7.648438 -3.738281 7.828125 -3.351562 7.671875 -2.875 C 7.035156 -0.957031 5.820312 0.0625 4.03125 0.1875 C 3.257812 0.28125 2.601562 0.0546875 2.0625 -0.484375 C 1.351562 -1.148438 0.890625 -1.867188 0.671875 -2.640625 C 0.160156 -4.296875 0.03125 -5.703125 0.28125 -6.859375 C 0.632812 -8.546875 1.675781 -9.566406 3.40625 -9.921875 C 3.820312 -10.015625 4.300781 -9.96875 4.84375 -9.78125 C 5.539062 -9.519531 6.113281 -9.019531 6.5625 -8.28125 C 7.007812 -7.550781 7.1875 -6.804688 7.09375 -6.046875 C 7 -5.015625 6.457031 -4.375 5.46875 -4.125 C 5.175781 -4.0625 4.679688 -4 3.984375 -3.9375 C 3.691406 -3.90625 3.273438 -3.890625 2.734375 -3.890625 C 2.703125 -3.847656 2.65625 -3.828125 2.59375 -3.828125 C 2.53125 -3.828125 2.476562 -3.8125 2.4375 -3.78125 Z M 2.15625 -5.796875 C 2.445312 -5.828125 2.867188 -5.859375 3.421875 -5.890625 C 3.984375 -5.921875 4.410156 -5.9375 4.703125 -5.9375 C 5.015625 -6.007812 5.15625 -6.203125 5.125 -6.515625 C 5.09375 -6.710938 5.015625 -6.96875 4.890625 -7.28125 C 4.503906 -7.957031 3.945312 -8.132812 3.21875 -7.8125 C 2.507812 -7.488281 2.15625 -6.816406 2.15625 -5.796875 Z M 2.15625 -5.796875 "/></g></g></g><g fill="#000000" fill-opacity="1"><g transform="translate(236.179339, 354.781408)"><g/></g></g><g fill="#000000" fill-opacity="1"><g transform="translate(242.986391, 354.781408)"><g><path d="M 2.734375 -14.140625 L 2.59375 -13.28125 C 2.5625 -12.988281 2.535156 -12.570312 2.515625 -12.03125 C 2.503906 -11.488281 2.5 -11.070312 2.5 -10.78125 L 3.890625 -10.78125 C 4.523438 -10.78125 4.90625 -10.765625 5.03125 -10.734375 C 5.707031 -10.515625 5.992188 -10.066406 5.890625 -9.390625 C 5.734375 -8.816406 5.320312 -8.53125 4.65625 -8.53125 L 3.015625 -8.53125 C 2.984375 -8.53125 2.9375 -8.519531 2.875 -8.5 C 2.8125 -8.488281 2.738281 -8.46875 2.65625 -8.4375 C 2.582031 -8.40625 2.53125 -8.390625 2.5 -8.390625 C 2.5 -8.296875 2.488281 -8.132812 2.46875 -7.90625 C 2.445312 -7.6875 2.4375 -7.53125 2.4375 -7.4375 C 2.4375 -6.882812 2.425781 -5.878906 2.40625 -4.421875 C 2.394531 -2.972656 2.390625 -1.976562 2.390625 -1.4375 C 2.390625 -1.019531 2.273438 -0.675781 2.046875 -0.40625 C 1.828125 -0.132812 1.5625 -0.015625 1.25 -0.046875 C 0.507812 -0.046875 0.140625 -0.507812 0.140625 -1.4375 C 0.140625 -3.550781 0.171875 -5.945312 0.234375 -8.625 C 0.296875 -11.5 0.363281 -13.640625 0.4375 -15.046875 C 0.4375 -15.785156 0.816406 -16.21875 1.578125 -16.34375 C 1.992188 -16.375 2.648438 -16.421875 3.546875 -16.484375 C 5.015625 -16.585938 5.765625 -16.640625 5.796875 -16.640625 C 6.691406 -16.703125 7.171875 -16.363281 7.234375 -15.625 C 7.328125 -14.863281 6.910156 -14.445312 5.984375 -14.375 C 5.703125 -14.375 5.265625 -14.359375 4.671875 -14.328125 C 4.078125 -14.296875 3.640625 -14.265625 3.359375 -14.234375 C 3.191406 -14.234375 2.984375 -14.203125 2.734375 -14.140625 Z M 2.734375 -14.140625 "/></g></g></g><g fill="#000000" fill-opacity="1"><g transform="translate(254.155714, 354.781408)"><g><path d="M 0.4375 -3.21875 C 0.0820312 -4.90625 0.160156 -6.375 0.671875 -7.625 C 1.148438 -8.90625 2.03125 -9.734375 3.3125 -10.109375 C 3.695312 -10.242188 4.09375 -10.257812 4.5 -10.15625 C 5.8125 -9.8125 6.644531 -8.984375 7 -7.671875 C 7.570312 -5.367188 7.378906 -3.273438 6.421875 -1.390625 C 5.910156 -0.398438 5.132812 0.140625 4.09375 0.234375 C 3.0625 0.335938 2.191406 -0.0546875 1.484375 -0.953125 C 1.035156 -1.535156 0.6875 -2.289062 0.4375 -3.21875 Z M 4.984375 -6.859375 C 4.984375 -6.890625 4.96875 -6.957031 4.9375 -7.0625 C 4.90625 -7.175781 4.875 -7.265625 4.84375 -7.328125 C 4.519531 -8.003906 4.070312 -8.164062 3.5 -7.8125 C 3.113281 -7.519531 2.84375 -7.1875 2.6875 -6.8125 C 2.144531 -5.46875 2.238281 -4.078125 2.96875 -2.640625 C 3 -2.503906 3.097656 -2.359375 3.265625 -2.203125 C 3.679688 -1.722656 4.078125 -1.753906 4.453125 -2.296875 C 4.554688 -2.460938 4.640625 -2.625 4.703125 -2.78125 C 5.179688 -4.0625 5.273438 -5.421875 4.984375 -6.859375 Z M 4.984375 -6.859375 "/></g></g></g><g fill="#000000" fill-opacity="1"><g transform="translate(265.708524, 354.781408)"><g><path d="M 0.4375 -3.21875 C 0.0820312 -4.90625 0.160156 -6.375 0.671875 -7.625 C 1.148438 -8.90625 2.03125 -9.734375 3.3125 -10.109375 C 3.695312 -10.242188 4.09375 -10.257812 4.5 -10.15625 C 5.8125 -9.8125 6.644531 -8.984375 7 -7.671875 C 7.570312 -5.367188 7.378906 -3.273438 6.421875 -1.390625 C 5.910156 -0.398438 5.132812 0.140625 4.09375 0.234375 C 3.0625 0.335938 2.191406 -0.0546875 1.484375 -0.953125 C 1.035156 -1.535156 0.6875 -2.289062 0.4375 -3.21875 Z M 4.984375 -6.859375 C 4.984375 -6.890625 4.96875 -6.957031 4.9375 -7.0625 C 4.90625 -7.175781 4.875 -7.265625 4.84375 -7.328125 C 4.519531 -8.003906 4.070312 -8.164062 3.5 -7.8125 C 3.113281 -7.519531 2.84375 -7.1875 2.6875 -6.8125 C 2.144531 -5.46875 2.238281 -4.078125 2.96875 -2.640625 C 3 -2.503906 3.097656 -2.359375 3.265625 -2.203125 C 3.679688 -1.722656 4.078125 -1.753906 4.453125 -2.296875 C 4.554688 -2.460938 4.640625 -2.625 4.703125 -2.78125 C 5.179688 -4.0625 5.273438 -5.421875 4.984375 -6.859375 Z M 4.984375 -6.859375 "/></g></g></g><g fill="#000000" fill-opacity="1"><g transform="translate(277.261334, 354.781408)"><g><path d="M 4.984375 -9.203125 L 4.984375 -12.03125 C 4.984375 -12.351562 4.972656 -12.832031 4.953125 -13.46875 C 4.941406 -14.101562 4.9375 -14.582031 4.9375 -14.90625 C 4.9375 -15.132812 5 -15.40625 5.125 -15.71875 C 5.320312 -16.132812 5.660156 -16.3125 6.140625 -16.25 C 6.648438 -16.1875 6.96875 -15.929688 7.09375 -15.484375 C 7.15625 -15.160156 7.1875 -14.9375 7.1875 -14.8125 C 7.1875 -10.75 7.203125 -7.710938 7.234375 -5.703125 C 7.234375 -5.316406 7.316406 -4.085938 7.484375 -2.015625 C 7.484375 -1.921875 7.5 -1.742188 7.53125 -1.484375 C 7.5625 -1.234375 7.5625 -1.023438 7.53125 -0.859375 C 7.5 -0.472656 7.351562 -0.1875 7.09375 0 C 6.84375 0.1875 6.523438 0.234375 6.140625 0.140625 C 6.035156 0.109375 5.585938 0.09375 4.796875 0.09375 C 3.992188 0.15625 3.304688 0.125 2.734375 0 C 1.328125 -0.21875 0.492188 -1.097656 0.234375 -2.640625 C -0.046875 -4.554688 0.335938 -6.25 1.390625 -7.71875 C 2.222656 -8.9375 3.242188 -9.429688 4.453125 -9.203125 Z M 5.171875 -2.109375 C 5.078125 -3.390625 5.03125 -4.570312 5.03125 -5.65625 C 5.03125 -6.101562 4.851562 -6.472656 4.5 -6.765625 C 4.125 -7.078125 3.789062 -7.078125 3.5 -6.765625 C 2.539062 -5.765625 2.1875 -4.5 2.4375 -2.96875 C 2.539062 -2.394531 2.878906 -2.109375 3.453125 -2.109375 Z M 5.171875 -2.109375 "/></g></g></g></svg>